{"glyphs":{"0":{"ha":985,"x_min":44,"x_max":950,"o":"m 947 618 l 946 615 q 949 578 949 596 q 950 542 950 560 q 903 316 950 418 q 746 151 857 214 l 561 49 q 489 15 526 28 q 414 0 451 3 q 395 -2 404 -1 q 376 -3 386 -3 q 200 57 282 -3 q 78 253 118 117 q 57 340 65 296 q 46 431 49 385 q 45 453 46 442 q 44 475 44 464 q 91 709 44 599 q 249 885 138 819 l 440 999 q 504 1024 471 1015 q 572 1033 538 1032 q 594 1033 583 1033 q 617 1031 606 1032 q 831 906 732 1013 q 947 617 931 799 l 947 618 m 242 351 l 242 353 q 355 176 274 232 q 529 119 436 119 q 620 132 575 119 q 706 167 665 144 q 719 187 711 171 q 735 228 726 203 q 761 347 749 275 q 776 494 774 418 q 776 508 776 501 q 776 519 776 514 q 767 638 776 581 q 736 739 758 696 q 653 832 706 796 q 543 886 600 868 q 475 902 508 897 q 413 907 442 907 q 365 903 386 907 q 333 892 344 899 q 251 754 281 856 q 219 539 221 653 q 219 536 219 538 q 219 533 219 535 q 225 439 219 486 q 242 350 231 392 l 242 351 z "},"1":{"ha":600,"x_min":33,"x_max":564,"o":"m 363 1010 l 358 832 l 346 121 q 377 115 363 117 q 406 110 392 113 q 437 108 421 108 q 472 107 453 107 q 496 107 485 107 q 518 108 507 107 q 540 110 529 108 q 564 113 551 111 q 549 97 556 104 q 533 83 542 90 q 509 65 522 74 q 481 46 496 56 q 472 41 476 43 q 463 36 468 39 q 433 21 447 28 q 404 8 418 14 q 367 -2 386 1 q 325 -6 347 -6 q 319 -6 322 -6 q 313 -6 315 -6 l 100 3 q 92 1 96 1 q 83 1 88 1 q 72 2 78 1 q 61 7 65 3 q 69 22 56 13 q 100 43 83 32 q 111 51 106 47 q 121 57 117 54 q 126 60 124 58 q 129 64 128 63 q 141 74 136 69 q 151 85 146 79 q 152 87 151 86 q 154 88 153 88 q 163 96 158 92 q 172 106 167 100 l 183 789 q 168 769 182 785 q 139 733 154 753 q 138 733 138 733 q 138 732 138 732 q 127 721 132 726 q 118 710 122 715 q 108 697 114 704 q 97 683 103 690 q 92 678 94 681 q 86 671 89 675 q 60 646 72 657 q 40 635 47 635 q 38 635 39 635 q 36 636 38 635 q 35 638 35 638 q 35 640 35 639 q 49 670 33 650 q 85 717 65 690 q 101 738 93 726 q 115 763 108 750 q 123 776 119 769 q 131 789 126 782 q 131 790 131 789 q 132 792 131 790 q 163 847 147 821 q 186 883 178 872 q 212 905 194 893 q 250 931 229 917 q 260 938 254 935 q 271 946 265 942 q 293 962 283 954 q 313 978 303 969 q 332 992 322 985 q 354 1008 342 1000 l 363 1010 l 363 1010 z "},"2":{"ha":918,"x_min":46,"x_max":888,"o":"m 290 728 q 272 710 281 718 q 254 696 263 703 q 249 691 251 693 q 244 688 247 689 q 230 676 238 682 q 213 663 222 669 q 191 647 201 654 q 171 632 181 639 q 163 627 167 629 q 156 622 160 625 q 138 611 147 617 q 118 599 129 606 q 115 622 117 610 q 114 649 114 635 q 117 690 114 668 q 125 735 119 713 q 136 768 129 751 q 151 800 143 785 q 154 805 153 803 q 157 808 156 807 q 190 856 172 836 q 235 893 208 875 q 238 896 236 894 q 243 899 240 897 l 401 1000 q 443 1017 422 1011 q 485 1024 464 1024 q 501 1023 493 1024 q 517 1021 510 1022 q 582 997 550 1014 q 644 958 614 981 q 719 881 690 925 q 751 792 747 838 q 753 785 753 789 q 753 778 753 782 q 753 766 753 772 q 751 753 753 760 q 710 643 744 697 q 635 543 675 589 q 577 485 604 511 q 533 442 550 458 l 413 322 q 396 304 410 318 q 365 272 382 290 q 356 261 361 267 q 346 249 351 256 q 338 240 342 244 q 332 229 335 235 q 322 214 326 221 q 314 200 318 207 q 303 181 308 190 q 293 158 299 171 l 464 136 q 522 127 496 131 q 575 121 549 124 q 615 119 594 119 q 658 118 636 118 q 678 118 668 118 q 699 118 689 118 q 769 126 738 119 q 825 142 801 133 q 867 159 851 151 q 883 164 882 167 q 867 138 888 156 q 819 101 847 119 q 801 89 810 94 q 783 78 792 83 q 758 64 771 71 q 735 51 746 57 q 671 23 701 35 q 610 4 640 11 q 554 -4 582 -1 q 496 -7 526 -7 q 458 -6 478 -7 q 418 -3 439 -6 l 224 14 q 198 15 210 14 q 175 18 186 17 q 151 19 163 18 q 125 22 139 21 q 123 22 124 22 q 122 22 122 22 q 120 22 121 22 q 118 22 119 22 q 109 22 114 22 q 99 22 104 22 q 94 22 96 22 q 89 22 92 22 q 80 21 85 21 q 71 21 75 21 q 58 22 64 21 q 50 25 53 22 q 47 31 49 28 q 46 36 46 33 q 71 93 46 57 q 129 168 96 129 q 138 178 133 174 q 147 189 142 183 q 173 219 160 204 q 197 247 186 233 q 211 263 204 256 q 226 279 218 271 q 238 290 232 285 q 249 301 243 296 q 303 353 278 331 q 333 381 329 376 l 479 525 q 509 557 494 539 q 535 593 524 575 q 562 644 551 619 q 572 685 572 668 q 572 687 572 686 q 572 689 572 688 q 572 690 572 689 q 572 692 572 690 q 526 799 563 754 q 447 869 490 843 q 388 901 417 890 q 340 913 358 911 q 340 913 340 913 q 340 913 340 913 q 339 913 339 913 q 339 913 339 913 q 305 884 315 914 q 292 818 294 854 q 290 791 290 804 q 289 765 289 778 q 289 750 289 757 q 290 738 289 743 q 290 730 290 733 q 290 726 290 726 l 290 728 z "},"3":{"ha":831,"x_min":38,"x_max":793,"o":"m 464 1039 l 464 1035 q 622 967 556 1032 q 689 810 688 901 q 689 808 689 808 q 689 807 689 807 q 667 718 689 761 q 617 644 644 675 q 588 616 601 628 q 564 597 574 604 l 518 568 l 578 563 q 726 499 664 553 q 793 358 789 444 q 793 353 793 356 q 793 347 793 350 q 767 242 793 288 q 688 163 740 196 l 492 35 q 467 17 479 25 q 443 3 456 10 q 401 -14 422 -7 q 353 -21 379 -21 q 349 -21 351 -21 q 344 -21 346 -21 q 340 -19 342 -19 q 335 -19 338 -19 q 245 -5 289 -17 q 168 22 201 7 q 146 32 156 26 q 128 42 136 38 l 61 81 q 59 80 60 79 q 57 82 58 81 q 46 90 51 85 q 39 101 40 94 q 42 114 38 108 q 50 124 46 119 q 52 126 51 125 q 53 126 53 126 q 54 128 53 128 q 56 129 56 129 l 158 231 l 214 197 q 242 180 217 194 q 306 150 268 165 q 355 130 329 139 q 407 114 381 121 q 447 106 428 108 q 485 103 467 103 q 485 103 485 103 q 488 103 486 103 q 490 103 489 103 q 490 103 490 103 q 590 154 567 104 q 618 264 614 204 q 618 266 618 265 q 618 268 618 267 q 618 271 618 269 q 618 274 618 272 q 618 276 618 275 q 618 279 618 278 q 551 408 619 365 q 365 451 483 451 l 235 453 q 209 451 221 451 q 188 451 197 451 q 173 451 178 450 q 165 454 168 453 q 177 468 163 458 q 210 489 192 478 q 212 491 211 490 q 214 492 213 492 q 226 499 219 496 q 238 507 232 503 q 255 519 247 514 q 271 531 263 525 q 287 541 279 535 q 304 553 294 547 q 310 553 306 553 q 324 553 315 553 q 346 553 333 553 q 372 556 358 554 q 393 557 383 556 q 411 561 403 558 q 517 633 497 589 q 535 742 536 678 q 485 848 533 800 q 379 914 438 896 q 351 920 365 918 q 325 922 338 922 q 295 919 310 922 q 268 908 281 915 q 240 876 249 896 q 231 833 232 856 q 229 824 229 829 q 229 815 229 819 q 230 797 229 806 q 232 779 231 788 q 233 764 232 771 q 233 753 233 757 q 233 751 233 751 q 233 749 233 750 q 232 747 232 747 q 232 746 232 746 q 223 735 231 742 q 207 724 215 729 q 204 722 206 724 q 201 721 203 721 q 195 716 199 718 q 189 713 192 714 l 132 676 q 126 671 129 674 q 118 665 122 668 q 117 665 118 665 q 115 663 117 664 q 97 651 106 656 q 83 651 89 647 q 83 653 83 651 q 82 658 82 656 q 81 666 81 661 q 79 675 81 671 q 79 682 79 679 q 79 688 79 685 l 79 725 q 82 753 79 735 q 92 790 85 771 q 99 810 94 800 q 110 829 104 821 q 133 860 121 847 q 161 882 146 872 q 174 891 167 886 q 188 900 181 896 l 326 996 q 349 1008 338 1003 q 369 1019 360 1014 q 414 1033 392 1029 q 464 1038 436 1038 l 464 1039 z "},"4":{"ha":1056,"x_min":19,"x_max":1017,"o":"m 1017 426 l 1014 422 q 1003 408 1008 414 q 992 394 997 401 q 969 374 981 383 q 946 354 958 364 q 935 347 940 351 q 922 339 929 343 q 886 317 904 326 q 851 300 868 307 q 784 279 818 286 q 707 272 750 272 l 703 72 l 572 11 q 567 7 569 8 q 561 4 564 6 q 559 3 560 4 q 557 3 558 3 q 541 -3 549 0 q 526 -6 533 -6 q 524 -6 525 -6 q 522 -6 524 -6 q 514 4 517 -4 q 511 24 511 13 q 511 32 511 28 q 513 42 511 36 q 513 50 513 46 q 513 58 513 54 l 514 272 q 453 274 481 272 q 400 278 426 275 q 347 281 374 279 q 286 285 319 283 q 253 287 269 286 q 219 289 236 288 q 203 290 211 289 q 188 290 196 290 q 97 297 138 293 q 40 306 56 300 q 100 392 19 314 q 281 596 181 469 q 294 613 288 604 q 308 631 301 622 q 319 644 314 638 q 328 657 324 650 q 451 835 397 753 q 517 935 506 918 q 526 945 521 940 q 538 954 532 950 q 553 964 546 960 q 564 969 561 968 l 653 1024 q 660 1026 657 1024 q 668 1031 664 1028 q 683 1039 676 1035 q 694 1043 690 1043 q 697 1043 696 1043 q 697 1043 697 1043 q 708 1033 706 1039 q 710 1019 710 1026 q 710 1013 710 1017 q 710 1007 710 1010 l 710 393 l 865 393 q 889 392 878 392 q 910 394 900 393 q 928 398 919 396 q 949 403 938 400 q 968 408 960 406 q 986 413 976 410 q 1001 419 993 415 q 1017 425 1008 422 l 1017 426 m 513 399 l 510 401 l 517 772 q 469 719 490 743 q 426 674 447 696 q 384 628 406 651 q 336 576 363 604 q 298 535 315 554 q 264 499 281 517 q 262 498 263 499 q 261 497 261 497 q 228 461 244 479 q 190 422 211 443 q 228 417 211 419 q 263 414 246 415 q 297 410 279 411 q 335 407 314 408 q 381 403 360 406 q 424 400 403 401 q 466 399 444 400 q 513 397 488 397 l 513 399 z "},"5":{"ha":831,"x_min":42,"x_max":792,"o":"m 333 668 l 404 664 q 428 660 417 661 q 453 658 440 660 q 684 577 579 642 q 790 388 789 513 q 753 267 792 315 q 653 179 714 218 l 415 28 q 388 12 401 18 q 361 1 375 6 q 326 -6 344 -3 q 289 -8 308 -8 q 260 -8 275 -8 q 228 -4 244 -7 q 158 9 189 0 q 96 35 126 18 q 69 51 83 42 q 42 71 56 60 l 167 193 q 191 178 168 190 q 249 154 214 167 q 310 133 276 143 q 379 119 344 124 q 403 116 390 117 q 426 115 415 115 q 428 115 428 115 q 431 115 429 115 q 431 115 431 115 q 433 115 432 115 q 558 164 517 118 q 601 299 600 210 q 601 301 601 300 q 601 304 601 303 q 508 471 601 417 q 300 539 414 525 q 266 542 283 540 q 232 543 249 543 l 149 547 l 149 946 q 162 951 156 949 q 174 958 168 954 q 181 962 178 960 q 188 965 185 964 q 203 976 196 971 q 221 986 211 981 q 235 995 228 990 q 247 1004 242 1000 q 253 1008 250 1006 q 258 1011 256 1010 q 273 1022 265 1017 q 289 1035 281 1028 q 350 1026 322 1029 q 406 1019 378 1022 q 463 1017 433 1018 q 526 1015 492 1015 q 594 1017 564 1015 q 654 1021 625 1018 q 714 1027 683 1022 q 782 1038 744 1032 q 772 1027 778 1032 q 761 1017 767 1022 q 710 978 739 997 q 646 943 681 958 q 619 932 632 936 q 592 924 606 928 q 554 917 574 919 q 511 915 535 915 l 333 919 l 333 668 l 333 668 z "},"6":{"ha":842,"x_min":43,"x_max":811,"o":"m 324 875 l 326 881 q 253 799 282 847 q 207 700 224 751 q 177 569 183 631 q 171 486 171 507 q 171 480 171 482 q 171 478 171 478 l 238 557 q 250 569 244 563 q 263 583 256 576 q 385 685 321 647 q 542 724 450 724 q 547 724 544 724 q 550 724 549 724 q 740 647 669 721 q 811 468 811 574 q 796 357 811 408 q 736 258 781 306 l 582 99 q 483 26 538 50 q 371 1 429 1 q 320 6 346 1 q 267 19 294 10 q 94 162 144 63 q 43 383 43 261 q 43 388 43 386 q 43 393 43 390 q 43 397 43 394 q 43 401 43 400 q 224 839 50 650 q 649 1028 397 1028 q 655 1028 651 1028 q 661 1028 658 1028 q 694 1026 679 1028 q 722 1022 708 1025 q 747 1019 735 1021 q 774 1014 760 1017 q 758 999 765 1006 q 743 986 750 992 q 738 981 740 983 q 732 976 735 979 q 717 965 725 971 q 700 951 710 958 q 693 946 696 949 q 686 940 690 943 q 678 933 682 938 q 669 925 674 929 q 649 909 660 917 q 621 897 638 901 q 621 897 621 897 q 621 897 621 897 q 619 897 619 897 q 619 897 619 897 q 600 900 614 897 q 565 906 586 903 q 523 911 546 908 q 475 914 500 914 q 447 913 461 914 q 419 910 433 913 q 369 897 394 906 q 324 874 344 889 l 324 875 m 349 197 l 347 194 q 396 176 371 183 q 447 165 421 168 q 467 163 457 164 q 488 163 478 163 q 597 184 546 163 q 671 253 647 206 q 683 285 679 268 q 688 319 688 301 q 687 336 688 328 q 685 353 686 344 q 622 472 671 415 q 518 556 574 528 q 513 558 515 557 q 510 560 511 558 q 468 574 489 569 q 426 578 447 578 q 306 547 363 578 q 218 479 250 517 q 198 452 206 465 q 188 426 190 439 q 186 420 186 424 q 186 414 186 417 q 196 368 186 394 q 222 315 206 342 q 277 247 244 279 q 349 196 310 214 l 349 197 z "},"7":{"ha":857,"x_min":39,"x_max":821,"o":"m 303 111 l 304 108 q 286 89 300 101 q 257 64 272 76 q 256 63 257 63 q 256 63 256 63 q 245 54 250 58 q 236 46 240 50 q 215 28 225 36 q 196 11 206 19 q 191 8 193 10 q 188 4 189 6 q 169 -8 178 -1 q 150 -24 161 -15 l 257 182 l 621 893 l 269 917 q 231 918 249 917 q 197 919 214 919 q 178 921 188 921 q 158 921 168 921 q 144 921 151 921 q 129 921 136 921 q 102 917 115 921 q 78 911 89 914 q 58 905 67 908 q 46 901 50 901 q 43 902 44 901 q 40 904 42 903 q 58 929 39 908 q 111 974 76 950 q 152 1000 129 988 q 200 1022 175 1013 q 242 1032 217 1029 q 297 1035 268 1035 q 308 1035 303 1035 q 317 1035 313 1035 q 327 1033 322 1033 q 336 1033 332 1033 l 568 1019 q 601 1016 586 1017 q 632 1015 617 1015 q 638 1015 635 1015 q 643 1015 640 1015 q 657 1015 650 1015 q 671 1017 664 1015 q 687 1017 679 1017 q 703 1017 694 1017 q 735 1018 721 1017 q 764 1019 750 1019 q 791 1022 778 1021 q 821 1025 804 1024 q 772 949 794 983 q 728 881 750 914 q 724 874 726 878 q 721 868 722 871 q 678 799 700 835 q 631 721 657 764 q 600 669 615 696 q 571 615 585 642 q 549 576 560 596 q 526 535 538 556 q 385 269 449 393 q 303 110 322 144 l 303 111 z "},"8":{"ha":924,"x_min":40,"x_max":882,"o":"m 629 600 l 685 581 q 824 506 767 554 q 882 351 881 457 q 880 321 882 336 q 872 289 878 306 q 830 205 860 246 q 753 140 800 164 l 535 31 q 479 8 508 15 q 421 -1 450 0 q 406 -3 414 -3 q 392 -3 399 -3 q 381 -3 386 -3 q 371 -3 375 -3 q 215 42 290 1 q 86 153 139 82 q 72 174 78 164 q 60 196 65 185 q 45 240 50 218 q 40 282 40 261 q 93 425 40 360 q 218 531 146 490 l 271 561 q 238 570 261 561 q 189 596 215 579 q 129 653 157 618 q 101 735 101 688 q 101 738 101 736 q 101 740 101 739 q 101 743 101 742 q 101 746 101 744 q 149 870 107 819 q 258 944 190 921 l 469 1019 q 517 1030 493 1026 q 564 1033 540 1033 q 731 981 654 1035 q 814 819 807 926 q 814 816 814 818 q 814 811 814 814 q 778 719 815 760 q 692 644 740 679 l 629 600 l 629 600 m 288 213 l 286 208 q 348 156 313 178 q 421 121 383 135 q 497 99 460 107 q 561 92 535 92 q 583 94 574 92 q 599 97 593 96 q 652 147 636 113 q 675 218 668 181 q 679 249 678 233 q 682 279 681 264 q 683 283 683 281 q 683 286 683 285 q 683 291 683 289 q 685 294 683 293 q 685 299 685 297 q 685 304 685 301 q 650 413 685 365 q 556 479 615 460 l 397 533 q 388 535 393 533 q 379 536 383 536 q 360 540 369 539 q 343 540 351 540 q 333 540 338 540 q 324 539 328 540 q 251 483 282 529 q 219 375 219 436 q 226 326 219 351 q 244 274 232 300 q 263 242 253 257 q 288 211 274 226 l 288 213 m 579 614 l 604 638 q 623 665 615 646 q 635 704 631 683 q 639 728 638 717 q 640 750 640 740 q 640 754 640 753 q 640 757 640 756 q 639 761 639 760 q 639 764 639 763 q 575 903 631 846 q 435 963 519 960 q 433 963 433 963 q 431 963 432 963 q 328 915 371 963 q 285 806 285 867 q 336 710 285 742 q 449 657 388 678 q 460 652 454 654 q 472 649 467 650 l 579 614 l 579 614 z "},"9":{"ha":849,"x_min":40,"x_max":814,"o":"m 522 153 l 522 150 q 593 223 567 179 q 635 314 619 267 q 658 416 653 367 q 663 494 663 465 q 663 507 663 501 q 663 517 663 513 q 661 523 661 521 q 661 525 661 525 l 600 461 q 585 444 593 453 q 568 429 578 436 q 447 345 518 383 q 299 306 375 307 q 119 379 197 304 q 40 560 40 454 q 43 600 40 579 q 51 640 46 621 q 83 722 61 682 q 139 797 106 763 l 221 883 q 352 987 282 947 q 500 1028 422 1026 q 515 1027 507 1028 q 529 1026 522 1026 q 558 1022 543 1025 q 588 1014 572 1019 q 760 878 707 979 q 814 654 813 778 q 814 647 814 650 q 814 639 814 643 q 813 631 813 635 q 813 624 813 628 q 619 184 801 375 q 189 -4 438 -7 q 158 -3 172 -4 q 131 -1 144 -3 q 106 2 118 0 q 78 7 93 4 q 96 23 88 15 q 113 38 104 31 q 119 43 115 40 q 125 49 122 46 q 138 59 132 54 q 151 69 144 64 q 162 78 157 74 q 171 88 167 83 q 176 93 174 90 q 179 99 178 96 q 197 115 188 107 q 221 128 206 124 q 221 128 221 128 q 222 128 221 128 q 222 128 222 128 q 222 128 222 128 q 242 125 228 128 q 278 119 257 122 q 321 114 297 117 q 369 111 344 111 q 394 112 382 111 q 418 114 406 113 q 472 126 446 117 q 522 151 499 135 l 522 153 m 514 853 l 515 853 q 463 869 490 863 q 408 876 436 875 q 394 878 401 878 q 381 878 388 878 q 256 853 313 879 q 181 772 199 826 q 172 739 175 756 q 169 703 169 722 q 170 690 169 696 q 171 676 171 683 q 217 559 178 615 q 333 474 257 503 q 383 460 358 464 q 431 456 408 456 q 552 486 499 456 q 635 554 606 517 q 651 580 644 567 q 661 604 658 593 q 663 613 663 608 q 663 622 663 617 q 656 670 663 643 q 636 725 650 697 q 588 797 618 763 q 514 851 557 832 l 514 853 z "}," ":{"ha":682,"x_min":0,"x_max":0,"o":""},"!":{"ha":346,"x_min":42,"x_max":311,"o":"m 211 231 l 210 235 l 283 156 q 287 151 285 153 q 292 146 289 149 q 292 146 292 146 q 292 146 292 146 q 304 133 299 139 q 311 122 310 126 q 308 113 311 118 q 299 100 304 107 q 293 95 296 97 q 288 90 290 93 q 284 86 286 88 q 281 83 282 85 l 194 11 q 192 8 193 8 q 190 6 192 7 q 188 5 189 6 q 186 3 188 4 q 178 -3 182 0 q 169 -6 174 -6 q 164 -4 167 -6 q 158 0 161 -3 q 156 1 157 0 q 153 4 154 3 q 149 8 150 6 q 146 11 147 10 l 68 92 q 65 94 67 92 q 61 97 63 96 q 47 113 53 104 q 42 129 42 121 q 42 132 42 131 q 42 135 42 133 q 42 136 42 135 q 43 139 43 138 q 53 149 44 142 q 71 167 61 157 q 73 168 72 168 q 75 169 74 168 q 82 176 78 172 q 89 182 86 179 l 147 233 q 149 234 149 233 q 151 235 150 235 q 157 240 154 238 q 163 244 160 242 q 174 251 168 249 q 183 253 179 253 q 183 253 183 253 q 185 253 183 253 q 185 253 185 253 q 185 253 185 253 q 191 250 188 253 q 199 244 194 247 q 202 240 200 242 q 206 235 204 238 q 208 232 207 233 q 211 229 210 231 l 211 231 m 158 290 l 160 288 q 149 354 153 286 q 143 514 146 422 q 141 561 142 538 q 139 608 140 585 q 136 696 138 653 q 132 776 135 739 q 128 828 131 801 q 125 883 126 856 q 124 893 125 888 q 124 904 124 899 q 115 1053 119 982 q 111 1158 111 1124 q 111 1173 111 1167 q 113 1182 111 1179 q 132 1203 114 1189 q 171 1232 150 1217 q 173 1234 172 1233 q 175 1235 174 1235 q 191 1246 183 1240 q 206 1257 199 1251 q 217 1265 211 1261 q 229 1274 222 1269 q 262 1299 246 1288 q 285 1308 278 1310 q 287 1304 286 1308 q 288 1292 288 1300 q 283 1208 288 1267 q 271 1079 278 1149 q 269 1056 271 1068 q 267 1032 268 1044 q 261 958 264 994 q 257 888 258 921 q 251 782 254 829 q 246 689 249 735 q 240 595 243 643 q 235 489 238 547 q 226 464 231 475 q 218 442 222 453 q 217 437 218 439 q 215 432 215 435 q 206 407 211 419 q 196 381 201 394 q 190 365 193 374 q 186 349 188 357 q 183 338 185 343 q 179 326 181 332 q 170 300 175 311 q 158 289 165 289 l 158 290 z "},"\"":{"ha":485,"x_min":49,"x_max":440,"o":"m 107 1060 l 228 1089 l 160 753 l 49 693 l 107 1060 l 107 1060 m 319 1060 l 440 1089 l 372 753 l 261 693 l 319 1060 l 319 1060 z "},"#":{"ha":800,"x_min":43,"x_max":758,"o":"m 722 335 l 561 335 l 517 15 l 431 15 l 475 336 l 283 336 l 236 15 l 151 15 l 197 335 l 43 335 l 46 417 l 208 417 l 240 618 l 83 618 l 83 701 l 251 701 l 294 1007 l 381 1007 l 338 701 l 531 701 l 576 1007 l 661 1007 l 617 701 l 758 701 l 758 618 l 606 618 l 576 417 l 722 417 l 722 335 l 722 335 m 519 618 l 328 618 l 297 415 l 492 415 l 519 618 l 519 618 z "},"$":{"ha":779,"x_min":43,"x_max":744,"o":"m 188 853 l 194 857 q 192 850 193 853 q 192 844 192 847 q 190 839 190 842 q 190 833 190 836 q 230 753 190 792 q 318 689 269 715 q 324 685 321 688 q 332 682 328 683 l 557 572 q 560 569 558 569 q 565 567 563 568 q 688 491 632 535 q 744 382 743 447 q 744 380 744 381 q 744 378 744 379 q 737 324 744 347 q 713 279 729 301 q 705 268 710 274 q 696 257 700 263 l 532 71 q 524 59 528 64 q 515 50 519 54 q 499 35 507 42 q 482 21 492 28 q 478 17 481 19 q 472 14 475 15 q 465 9 468 11 q 457 4 461 7 q 443 -1 450 1 q 426 -4 436 -3 l 426 -179 q 408 -192 417 -186 q 390 -206 399 -199 q 383 -210 386 -208 q 375 -215 379 -212 q 360 -226 368 -221 q 342 -236 351 -231 q 320 -249 331 -243 q 300 -260 310 -254 q 290 -265 294 -262 q 279 -271 285 -268 q 265 -277 272 -274 q 251 -283 258 -281 l 251 11 q 238 15 244 13 q 226 19 232 17 q 205 28 215 24 q 185 38 194 33 q 162 50 174 43 q 136 65 150 57 q 119 76 128 71 q 104 86 111 81 q 93 94 99 90 q 82 103 88 99 q 65 116 74 108 q 46 132 56 124 l 175 282 l 228 246 q 293 204 258 224 q 364 171 328 185 q 419 153 392 160 q 474 146 447 146 q 533 158 506 146 q 581 199 561 171 q 594 226 590 213 q 599 251 599 239 q 564 326 599 292 q 486 385 529 361 q 478 389 482 386 q 469 393 474 392 l 283 486 q 269 492 276 488 q 256 499 263 496 q 110 592 176 539 q 43 718 44 646 q 43 726 43 722 q 44 735 43 731 q 84 820 50 779 q 158 893 118 861 q 183 912 171 903 q 206 928 194 921 l 276 978 l 276 1165 q 300 1178 289 1172 q 322 1192 311 1185 q 344 1205 333 1199 q 368 1219 356 1211 q 392 1234 381 1228 q 414 1247 403 1240 q 436 1260 425 1254 q 460 1275 447 1267 l 460 1025 q 484 1020 464 1024 q 528 1011 504 1017 q 544 1007 536 1010 q 561 1001 553 1004 q 578 995 569 999 q 594 988 586 992 q 612 978 603 983 q 629 969 621 974 q 658 951 646 960 q 669 936 669 942 q 669 933 669 935 q 668 931 668 932 q 642 907 663 919 q 594 872 622 894 q 585 865 590 868 q 575 857 581 861 q 574 856 575 857 q 572 854 574 856 q 542 832 557 842 q 522 821 528 822 q 522 821 522 821 q 522 821 522 821 q 521 821 521 821 q 521 821 521 821 q 508 824 514 821 q 496 831 501 826 q 493 833 494 832 q 489 835 492 833 q 483 840 486 838 q 476 843 481 842 l 414 878 q 410 878 413 878 q 407 881 408 879 q 360 896 388 889 q 303 906 332 903 q 295 906 299 906 q 288 906 292 906 q 226 894 254 906 q 188 851 199 882 l 188 853 z "},"%":{"ha":951,"x_min":43,"x_max":917,"o":"m 703 985 l 703 983 q 722 992 713 988 q 739 1001 731 997 q 744 1004 742 1003 q 747 1007 746 1006 q 766 1017 757 1011 q 786 1029 775 1022 q 794 1034 790 1032 q 803 1039 799 1036 q 812 1044 807 1042 q 821 1050 817 1047 q 865 1078 844 1065 q 896 1099 885 1092 q 801 945 894 1093 q 594 621 708 797 q 592 619 593 619 q 592 617 592 618 q 589 612 590 614 q 586 607 588 610 q 381 290 475 435 q 278 136 288 146 q 262 120 269 128 q 246 106 254 113 q 240 99 243 101 q 232 93 236 96 q 214 77 224 85 q 193 60 204 69 q 181 51 188 56 q 169 40 175 46 q 166 39 168 40 q 163 36 164 38 q 122 6 140 19 q 94 -14 103 -8 q 192 118 104 0 q 496 622 279 236 q 528 680 511 650 q 563 742 546 710 q 565 746 564 743 q 568 750 567 749 q 658 907 617 836 q 703 983 700 978 l 703 985 m 553 335 l 707 454 q 743 476 724 465 q 783 490 763 486 q 795 492 789 492 q 807 493 801 493 q 861 474 836 493 q 900 407 886 456 q 912 355 908 379 q 915 311 915 331 q 895 226 917 260 q 835 160 874 192 q 824 152 829 156 q 814 144 819 149 l 697 58 q 692 53 694 56 q 688 50 690 51 q 651 25 669 38 q 613 6 632 13 q 590 -1 601 1 q 568 -3 579 -3 q 515 15 540 -3 q 467 81 489 33 q 456 112 460 96 q 453 144 453 128 q 453 162 453 153 q 456 181 454 171 q 490 264 464 224 q 553 333 515 304 l 553 335 m 619 214 l 619 215 q 622 203 621 208 q 624 194 622 199 q 646 133 631 161 q 693 103 661 104 q 693 103 693 103 q 694 103 693 103 q 694 103 694 103 q 694 103 694 103 q 724 128 715 101 q 736 188 733 156 q 738 203 738 196 q 738 219 738 211 q 738 240 738 231 q 736 254 738 249 q 734 271 735 263 q 731 288 733 279 q 712 344 725 318 q 672 371 699 369 q 669 371 671 371 q 668 371 668 371 q 665 369 667 369 q 663 369 664 369 q 632 333 644 365 q 617 261 619 300 q 617 254 617 257 q 617 249 617 251 q 617 230 617 239 q 619 213 618 221 l 619 214 m 138 879 l 293 1001 q 329 1023 310 1013 q 369 1038 349 1033 q 381 1040 375 1039 q 393 1040 388 1040 q 446 1022 421 1040 q 483 954 471 1003 q 493 912 490 932 q 496 872 496 892 q 475 780 496 821 q 411 703 454 739 l 279 592 q 231 558 258 572 q 178 539 204 543 q 165 537 171 538 q 153 536 158 536 q 94 556 122 536 q 51 624 67 575 q 45 651 47 636 q 43 679 43 665 q 44 707 43 693 q 50 735 46 721 q 81 813 58 775 q 138 878 103 851 l 138 879 m 211 786 l 211 789 q 213 774 213 781 q 215 760 214 767 q 242 690 224 722 q 292 656 261 657 q 292 656 292 656 q 293 656 292 656 q 293 656 293 656 q 293 656 293 656 q 322 683 314 656 q 332 742 331 710 q 332 752 332 747 q 332 763 332 757 q 332 786 332 775 q 331 804 332 797 q 328 820 329 813 q 326 836 328 828 q 304 897 319 869 q 261 925 289 924 q 258 925 260 925 q 256 925 257 925 q 253 924 254 925 q 250 924 251 924 q 222 890 232 919 q 210 826 211 861 q 210 819 210 822 q 210 814 210 817 q 210 799 210 807 q 211 785 210 792 l 211 786 z "},"&":{"ha":1890,"x_min":44,"x_max":1850,"o":"m 390 808 l 494 846 q 474 860 486 849 q 449 886 461 871 q 410 942 428 910 q 390 1008 393 975 q 390 1013 390 1011 q 390 1018 390 1015 q 390 1023 390 1021 q 390 1026 390 1025 q 420 1120 394 1081 q 496 1181 446 1160 l 690 1263 q 765 1284 729 1276 q 835 1292 800 1292 q 852 1291 843 1292 q 869 1290 861 1290 q 940 1276 904 1286 q 1013 1247 975 1265 q 1020 1244 1017 1246 q 1028 1239 1024 1242 q 1076 1206 1053 1225 q 1121 1164 1100 1186 q 1178 1101 1156 1131 q 1201 1069 1200 1072 l 1007 1015 l 968 1061 q 947 1083 957 1072 q 925 1106 936 1094 q 806 1192 865 1165 q 700 1219 747 1219 q 654 1213 675 1219 q 618 1193 633 1207 q 588 1155 599 1176 q 578 1108 578 1133 q 586 1061 578 1086 q 613 1011 594 1036 q 678 942 636 976 q 783 881 721 908 l 1026 764 q 1052 749 1040 756 q 1076 738 1064 743 q 1103 723 1090 731 q 1131 707 1117 715 q 1174 679 1151 694 q 1222 646 1197 664 q 1260 619 1243 632 q 1292 593 1276 606 q 1302 586 1297 590 q 1311 578 1307 582 q 1344 550 1328 564 q 1381 519 1361 536 l 1413 553 q 1435 575 1425 564 q 1454 597 1444 586 q 1465 611 1460 604 q 1475 625 1469 618 q 1492 649 1483 636 q 1511 676 1501 663 q 1539 719 1526 699 q 1564 758 1551 739 q 1578 783 1571 771 q 1592 810 1585 796 q 1603 835 1597 822 q 1617 863 1610 849 l 1850 924 q 1803 859 1825 888 q 1761 803 1782 831 q 1747 786 1754 794 q 1733 769 1740 778 q 1685 713 1711 742 q 1629 649 1660 683 q 1588 603 1607 624 q 1549 563 1568 582 q 1540 554 1544 558 q 1532 546 1536 550 q 1492 507 1513 526 q 1447 464 1472 488 q 1490 425 1471 443 q 1528 389 1510 407 q 1537 381 1532 385 q 1546 372 1542 376 q 1583 335 1564 354 q 1622 293 1601 315 q 1669 242 1647 265 q 1711 197 1692 219 q 1719 188 1715 192 q 1728 178 1724 183 q 1767 132 1747 156 q 1811 79 1788 108 l 1638 21 q 1601 65 1618 44 q 1567 106 1583 86 q 1553 119 1560 113 q 1542 133 1547 126 q 1504 173 1524 153 q 1463 215 1485 193 q 1431 247 1446 232 q 1403 275 1417 261 q 1394 283 1399 279 q 1386 290 1390 286 q 1356 318 1372 304 q 1321 349 1340 332 l 1253 301 q 1027 154 1144 224 q 789 43 910 85 q 666 10 728 22 q 543 -1 604 -1 q 331 44 433 -1 q 139 200 228 90 q 67 320 89 263 q 44 431 44 378 q 149 657 44 561 q 378 803 253 753 q 385 805 382 804 q 390 807 388 806 l 390 808 m 1196 331 l 1267 394 l 1175 465 q 1013 578 1097 524 q 840 675 928 632 q 651 751 744 722 q 475 779 558 779 q 390 769 431 779 q 313 740 349 760 q 240 660 265 713 q 215 543 215 608 q 219 486 215 515 q 233 426 224 457 q 369 222 268 317 q 639 100 469 126 q 659 98 649 99 q 679 97 669 97 q 813 118 739 97 q 965 178 888 139 q 1085 245 1026 207 q 1196 329 1144 283 l 1196 331 z "},"'":{"ha":332,"x_min":42,"x_max":274,"o":"m 44 903 l 42 901 q 55 916 49 908 q 67 931 61 924 q 73 937 69 933 q 79 943 76 940 q 91 955 85 949 q 104 968 97 961 q 119 983 113 976 q 133 994 126 989 q 136 997 135 996 q 139 1000 138 999 q 152 1012 144 1006 q 168 1025 160 1018 q 244 948 217 990 q 274 844 272 906 q 269 806 274 826 q 254 765 264 786 q 224 713 242 739 q 189 664 207 688 q 138 601 161 628 q 107 564 114 575 q 103 558 106 561 q 99 551 101 554 q 92 544 96 547 q 86 538 89 540 q 79 533 82 535 q 74 532 76 532 q 73 532 74 532 q 71 532 72 532 q 69 533 69 532 q 68 533 68 533 q 68 544 64 536 q 78 561 72 553 q 78 563 78 563 q 79 565 79 564 q 83 572 82 568 q 86 578 85 575 q 95 595 86 579 q 114 632 104 611 q 122 649 118 640 q 128 665 125 657 q 138 694 133 681 q 142 719 142 708 q 142 726 142 722 q 142 731 142 729 q 126 804 142 772 q 93 857 111 836 q 62 888 76 876 q 44 901 47 899 l 44 903 z "},"(":{"ha":432,"x_min":74,"x_max":422,"o":"m 414 1331 l 403 1314 q 381 1296 392 1303 q 358 1283 369 1289 q 327 1261 342 1272 q 300 1231 313 1250 q 288 1211 293 1221 q 278 1192 282 1201 q 264 1144 268 1168 q 260 1090 260 1119 l 260 793 l 260 82 q 260 67 260 74 q 260 56 260 61 q 265 -49 260 -1 q 310 -142 271 -97 q 316 -149 313 -146 q 324 -157 319 -153 q 367 -193 344 -179 q 422 -217 390 -207 l 240 -328 q 176 -286 201 -310 q 126 -232 150 -262 q 113 -212 119 -222 q 101 -192 107 -201 q 77 -106 81 -150 q 74 -10 74 -62 q 74 -3 74 -7 q 74 1 74 0 l 74 239 l 74 950 q 78 1049 74 1004 q 107 1138 83 1094 q 117 1154 113 1146 q 129 1171 122 1163 q 133 1176 131 1174 q 136 1179 135 1178 q 174 1217 154 1203 q 219 1244 193 1232 q 227 1249 224 1247 q 235 1253 231 1251 l 406 1340 l 410 1315 q 410 1318 410 1317 q 413 1322 411 1319 q 413 1326 413 1324 q 414 1329 414 1328 l 414 1331 z "},")":{"ha":439,"x_min":24,"x_max":372,"o":"m 43 -283 q 98 -261 76 -282 q 138 -212 119 -240 q 142 -206 140 -210 q 146 -200 144 -203 q 158 -181 153 -190 q 168 -161 164 -171 q 182 -113 178 -137 q 186 -60 186 -89 l 186 239 l 186 950 q 186 962 186 956 q 186 974 186 968 q 181 1080 186 1032 q 136 1172 175 1128 q 130 1180 133 1176 q 122 1188 126 1183 q 78 1224 101 1210 q 24 1247 56 1238 l 206 1360 q 271 1317 244 1340 q 319 1263 297 1293 q 333 1242 326 1253 q 344 1222 339 1232 q 369 1137 365 1181 q 372 1040 372 1093 q 372 1034 372 1038 q 372 1028 372 1031 l 372 793 l 372 82 q 367 -19 372 25 q 339 -107 363 -64 q 328 -124 333 -115 q 317 -140 324 -132 q 313 -145 315 -143 q 310 -149 311 -147 q 272 -187 292 -172 q 226 -214 253 -201 q 219 -219 222 -217 q 211 -222 215 -221 l 40 -308 l 36 -283 q 37 -286 36 -286 q 40 -285 38 -286 q 40 -285 40 -285 q 40 -285 40 -285 q 42 -283 42 -283 q 43 -283 43 -283 l 43 -283 z "},"*":{"ha":439,"x_min":36,"x_max":414,"o":"m 183 1233 l 182 1285 q 186 1288 185 1286 q 190 1292 188 1290 q 196 1297 193 1294 q 201 1303 199 1300 q 209 1309 206 1306 q 217 1315 213 1313 q 226 1324 222 1319 q 236 1331 231 1328 q 247 1338 242 1335 q 258 1344 251 1342 q 264 1348 261 1346 q 269 1351 267 1350 l 269 1218 l 394 1283 l 403 1213 l 324 1171 l 414 1118 q 397 1110 404 1114 q 381 1101 389 1106 q 376 1098 379 1100 q 371 1094 374 1096 q 353 1082 361 1089 q 339 1067 346 1075 l 265 1100 l 265 1031 l 182 986 l 182 1101 l 58 1035 q 56 1044 57 1039 q 54 1054 56 1049 q 53 1065 54 1060 q 53 1075 53 1069 q 53 1085 53 1081 q 54 1096 53 1090 q 55 1106 54 1101 q 57 1117 56 1111 l 140 1158 l 36 1213 q 54 1218 46 1214 q 69 1226 63 1222 q 79 1232 75 1229 q 89 1238 83 1235 q 99 1245 94 1242 q 108 1253 104 1249 q 113 1256 111 1254 q 118 1261 115 1258 l 183 1233 l 183 1233 z "},"+":{"ha":801,"x_min":40,"x_max":764,"o":"m 40 550 l 360 550 l 360 875 l 439 875 l 439 550 l 764 550 l 764 469 l 439 469 l 439 142 l 360 142 l 360 469 l 40 469 l 40 550 l 40 550 z "},",":{"ha":332,"x_min":35,"x_max":293,"o":"m 35 158 l 35 154 q 50 171 43 163 q 64 186 57 179 q 70 194 67 190 q 76 201 74 197 q 90 215 83 207 q 106 229 97 222 q 123 245 115 238 q 139 260 131 253 q 142 265 140 263 q 147 268 144 267 q 161 280 154 274 q 176 293 168 286 q 260 207 229 254 q 293 93 292 160 q 288 52 293 74 q 272 10 282 31 q 240 -49 260 -19 q 199 -107 219 -79 q 142 -175 168 -146 q 107 -215 115 -204 q 103 -222 106 -218 q 97 -229 100 -225 q 92 -235 94 -232 q 86 -242 89 -239 q 78 -248 82 -246 q 71 -250 74 -250 q 70 -250 71 -250 q 68 -250 69 -250 q 66 -249 67 -250 q 65 -249 65 -249 q 64 -247 64 -247 q 64 -244 64 -246 q 67 -233 64 -240 q 75 -218 71 -225 q 76 -214 75 -215 q 79 -210 78 -212 q 81 -204 81 -207 q 83 -199 82 -201 q 93 -180 83 -197 q 114 -139 103 -162 q 122 -122 118 -131 q 129 -103 125 -112 q 140 -72 135 -87 q 144 -43 144 -56 q 144 -37 144 -40 q 144 -32 144 -35 q 127 49 144 13 q 89 108 110 85 q 55 142 71 131 q 35 157 39 154 l 35 158 z "},"-":{"ha":761,"x_min":38,"x_max":731,"o":"m 204 590 l 671 590 q 672 589 671 589 q 672 589 672 589 q 683 589 675 589 q 700 588 692 589 q 721 583 711 586 q 731 572 731 579 q 731 572 731 572 q 731 569 731 571 q 730 567 731 568 q 729 567 729 567 q 710 551 728 564 q 672 522 693 539 q 670 522 671 522 q 668 519 669 521 q 654 509 661 514 q 640 499 647 504 q 624 485 632 492 q 610 474 617 479 q 606 471 608 472 q 603 468 604 469 q 588 455 596 461 q 572 440 581 449 l 88 442 q 83 440 86 440 q 79 440 81 440 q 74 440 76 440 q 69 440 72 440 q 49 442 58 440 q 39 450 40 444 q 56 470 38 457 q 94 499 74 483 q 100 502 97 500 q 106 506 103 504 q 118 515 113 510 q 129 524 124 519 q 147 539 139 532 q 164 553 156 546 q 167 556 165 554 q 169 558 168 557 q 186 573 178 565 q 204 589 194 581 l 204 590 z "},".":{"ha":357,"x_min":38,"x_max":322,"o":"m 213 246 l 213 249 l 293 174 q 296 169 294 171 q 300 167 297 168 q 303 163 301 164 q 307 158 306 161 q 317 147 313 153 q 322 138 322 142 q 318 127 322 133 q 308 114 314 121 q 305 111 307 113 q 301 107 303 110 q 298 103 300 106 q 293 99 296 101 l 204 10 q 202 6 203 7 q 200 4 201 6 q 197 1 199 3 q 192 -1 194 0 q 185 -5 189 -3 q 179 -7 182 -7 q 174 -6 176 -7 q 168 -1 171 -4 q 165 1 167 0 q 163 3 164 1 q 158 6 160 4 q 156 10 157 8 l 67 103 q 63 105 65 103 q 58 108 61 107 q 56 111 57 110 q 51 114 54 113 q 42 125 46 119 q 38 138 38 131 q 38 142 38 140 q 39 146 38 144 q 47 156 39 147 q 67 174 56 164 q 69 176 68 175 q 72 179 71 178 q 81 187 76 183 q 89 193 85 190 l 150 244 q 153 247 151 244 q 158 250 156 249 q 160 252 158 251 q 161 254 161 253 q 173 263 167 258 q 183 267 179 267 q 183 267 183 267 q 185 267 183 267 q 185 267 185 267 q 185 267 185 267 q 194 261 189 265 q 204 251 200 257 q 209 248 207 250 q 213 244 211 246 l 213 246 z "},"/":{"ha":897,"x_min":60,"x_max":876,"o":"m 60 -56 l 60 -57 q 153 90 111 22 q 235 221 194 157 q 242 234 238 228 q 250 247 246 240 q 326 373 288 308 q 410 515 364 438 q 438 565 424 539 q 468 618 453 592 q 476 633 472 625 q 485 649 481 640 q 585 831 539 746 q 646 932 631 915 q 680 962 663 950 q 715 985 697 974 q 740 997 728 990 q 765 1013 753 1004 q 793 1030 781 1022 q 818 1046 806 1038 q 824 1049 821 1047 q 829 1051 826 1050 q 851 1065 840 1058 q 876 1079 863 1072 l 740 872 l 278 161 q 258 136 268 147 q 240 114 249 125 q 233 108 236 111 q 226 100 231 104 q 208 80 218 90 q 188 58 199 69 q 160 31 174 43 q 135 7 147 18 q 124 -3 129 1 q 113 -12 118 -7 q 88 -33 101 -22 q 60 -56 75 -43 l 60 -56 z "},":":{"ha":363,"x_min":42,"x_max":332,"o":"m 217 263 l 218 267 l 303 182 q 306 177 304 179 q 310 174 308 175 q 312 172 311 172 q 313 171 313 171 q 325 157 319 164 q 332 146 331 150 q 328 135 332 142 q 318 122 324 129 q 315 119 317 121 q 311 115 313 118 q 308 112 310 114 q 303 107 306 110 l 213 14 q 210 10 211 11 q 208 8 210 10 q 205 6 207 7 q 200 3 203 4 q 194 -1 197 0 q 188 -3 190 -3 q 182 -1 185 -3 q 176 1 179 0 q 174 4 175 3 q 171 7 172 6 q 167 10 168 8 q 164 14 165 13 l 75 108 q 69 113 72 110 q 64 118 67 115 q 49 133 56 125 q 46 151 42 140 q 56 163 47 154 q 76 183 65 172 q 78 183 78 183 q 78 185 78 183 q 86 192 82 188 q 93 199 90 196 l 156 263 q 159 265 157 263 q 164 268 161 267 q 165 270 164 269 q 167 272 167 271 q 178 281 172 276 q 189 285 185 285 q 189 285 189 285 q 190 285 189 285 q 190 285 190 285 q 190 285 190 285 q 197 282 193 285 q 204 276 200 279 q 208 272 206 274 q 211 267 210 269 q 214 264 213 265 q 217 261 215 263 l 217 263 m 218 700 l 218 703 l 303 617 q 306 612 304 614 q 310 608 308 610 q 312 606 311 607 q 313 606 313 606 q 325 592 319 599 q 332 581 331 585 q 328 570 332 576 q 318 557 324 564 q 315 554 317 556 q 311 550 313 553 q 308 547 310 549 q 303 542 306 544 l 213 449 q 210 445 211 446 q 208 443 210 444 q 205 440 207 442 q 200 438 203 439 q 194 433 197 435 q 188 431 190 431 q 182 433 185 431 q 176 438 179 435 q 174 440 175 439 q 171 442 172 440 q 167 447 169 444 q 164 450 165 449 l 76 535 q 74 536 75 535 q 71 539 72 538 q 58 553 64 546 q 51 571 51 561 q 51 576 51 574 q 53 581 51 578 q 64 595 54 583 q 86 619 74 607 q 87 622 86 621 q 89 624 88 622 q 92 627 90 625 q 96 631 94 629 l 157 696 q 160 698 158 696 q 164 701 161 700 q 167 706 165 704 q 171 710 169 708 q 182 719 176 715 q 192 722 188 722 q 198 719 194 722 q 206 714 201 717 q 209 709 207 711 q 213 704 211 707 q 215 701 214 703 q 218 699 217 700 l 218 700 z "},";":{"ha":365,"x_min":35,"x_max":325,"o":"m 47 163 l 47 158 q 63 175 56 167 q 76 190 69 183 q 83 198 79 194 q 89 206 86 201 q 103 219 96 211 q 118 233 110 226 q 135 249 128 242 q 151 264 143 257 q 155 269 153 267 q 160 272 157 271 q 174 284 167 278 q 189 297 181 290 q 273 211 242 258 q 306 97 304 164 q 300 56 306 78 q 285 14 294 35 q 252 -45 272 -15 q 211 -103 232 -75 q 154 -171 181 -142 q 119 -211 128 -200 q 115 -217 118 -214 q 110 -225 113 -221 q 104 -231 107 -228 q 99 -237 101 -235 q 90 -244 94 -242 q 83 -246 86 -246 q 83 -246 83 -246 q 81 -246 82 -246 q 78 -245 79 -246 q 78 -244 78 -244 q 76 -242 76 -243 q 76 -240 76 -242 q 80 -228 76 -236 q 88 -214 83 -221 q 89 -210 88 -211 q 92 -206 90 -208 q 94 -200 93 -203 q 96 -194 94 -197 q 106 -176 96 -193 q 126 -135 115 -158 q 134 -117 131 -126 q 142 -99 138 -108 q 152 -67 147 -83 q 157 -39 157 -51 q 157 -33 157 -36 q 157 -28 157 -31 q 140 53 157 17 q 101 113 122 89 q 67 147 83 135 q 47 161 51 158 l 47 163 m 210 697 l 211 701 l 296 615 q 299 610 297 613 q 303 607 301 608 q 305 605 304 606 q 306 604 306 604 q 318 590 313 597 q 325 579 324 583 q 321 569 325 575 q 311 556 317 563 q 308 553 310 554 q 304 549 306 551 q 301 545 303 547 q 296 540 299 543 l 206 447 q 203 444 204 444 q 201 442 203 443 q 198 439 200 440 q 193 436 196 438 q 187 431 190 433 q 181 429 183 429 q 175 431 178 429 q 169 435 172 432 q 167 438 168 436 q 164 440 165 439 q 160 444 161 442 q 157 447 158 446 l 68 542 q 63 546 65 543 q 57 551 60 549 q 42 566 49 558 q 39 585 35 574 q 49 597 40 588 q 69 617 58 606 q 71 617 71 617 q 71 618 71 617 q 79 625 75 621 q 86 632 83 629 l 149 697 q 152 699 150 697 q 157 703 154 701 q 158 705 157 704 q 160 707 160 706 q 172 715 165 711 q 182 719 178 719 q 182 719 182 719 q 183 719 182 719 q 183 719 183 719 q 183 719 183 719 q 190 717 186 719 q 197 711 193 714 q 201 706 199 708 q 204 701 203 704 q 207 699 206 700 q 210 696 208 697 l 210 697 z "},"<":{"ha":800,"x_min":42,"x_max":764,"o":"m 42 557 l 53 563 l 764 903 l 764 813 l 147 511 l 764 229 l 764 146 l 753 151 l 42 476 l 42 557 l 42 557 z "},"=":{"ha":703,"x_min":47,"x_max":672,"o":"m 672 461 l 672 390 l 47 390 l 47 461 l 672 461 l 672 461 m 672 636 l 672 565 l 47 565 l 47 636 l 672 636 l 672 636 z "},">":{"ha":810,"x_min":44,"x_max":767,"o":"m 44 903 l 56 897 l 767 557 l 767 476 l 756 471 l 44 146 l 44 229 l 658 511 l 44 813 l 44 903 l 44 903 z "},"?":{"ha":869,"x_min":40,"x_max":826,"o":"m 474 226 l 474 228 l 535 151 q 538 147 536 149 q 540 143 539 146 q 544 140 542 142 q 547 136 546 138 q 554 125 551 131 q 557 115 557 119 q 557 115 557 115 q 557 115 557 115 q 557 114 557 114 q 557 114 557 114 q 550 101 556 107 q 536 89 544 94 q 533 88 535 89 q 531 85 532 86 l 440 15 q 438 13 439 14 q 436 11 438 11 q 431 8 433 10 q 425 4 428 6 q 414 -1 419 0 q 404 -1 408 -1 q 397 1 400 -1 q 389 8 393 4 q 383 14 386 11 q 378 19 381 17 q 375 24 376 22 q 372 26 374 25 l 311 107 q 308 111 310 108 q 303 117 306 114 q 302 117 303 117 q 301 118 301 118 q 293 132 297 125 q 289 143 289 139 q 289 144 289 143 q 289 144 289 144 q 289 145 289 144 q 289 146 289 146 q 297 157 290 151 q 311 168 304 163 q 316 172 314 169 q 321 175 318 174 l 404 240 q 409 242 407 240 q 413 246 411 244 q 415 248 414 247 q 418 250 417 249 q 429 257 424 254 q 439 260 435 260 q 452 252 446 260 q 465 236 458 244 q 469 231 467 233 q 474 225 472 228 l 474 226 m 360 283 l 358 288 l 504 540 q 582 691 549 617 q 628 838 615 765 q 633 875 631 857 q 635 911 635 893 q 635 919 635 915 q 635 926 635 922 q 565 1072 629 1003 q 428 1172 501 1140 q 381 1188 404 1182 q 338 1193 358 1193 q 296 1187 315 1193 q 261 1167 276 1181 q 217 1107 231 1140 q 204 1036 204 1074 q 206 1006 204 1021 q 211 975 208 990 q 233 915 219 944 q 263 857 246 885 q 303 806 279 829 q 350 767 326 783 q 383 747 367 756 q 414 733 400 739 l 288 643 q 282 638 285 640 q 278 633 279 636 q 276 632 276 633 q 274 631 275 631 q 263 623 268 626 q 251 619 258 619 q 249 619 250 619 q 247 619 249 619 q 218 630 233 622 q 186 650 203 638 q 142 690 164 667 q 103 739 121 713 q 56 828 71 785 q 42 910 42 871 q 73 1024 40 971 q 158 1119 106 1076 l 350 1276 q 365 1286 357 1281 q 379 1296 372 1292 q 426 1317 401 1310 q 482 1325 451 1325 q 547 1313 511 1325 q 619 1278 582 1300 q 751 1160 690 1235 q 825 990 811 1085 q 826 983 826 988 q 826 975 826 979 q 816 909 826 947 q 786 831 806 871 q 765 788 776 810 q 740 747 753 767 l 539 456 q 524 433 532 443 q 510 414 517 424 q 495 395 503 404 q 479 376 488 386 q 462 360 471 368 q 442 342 453 351 q 425 327 433 333 q 408 315 417 321 q 399 307 404 311 q 386 299 393 303 q 374 290 381 294 q 360 282 367 286 l 360 283 z "},"@":{"ha":1126,"x_min":64,"x_max":1068,"o":"m 678 692 l 699 658 l 725 750 l 847 750 l 747 375 l 739 349 q 736 335 738 342 q 733 324 735 329 q 731 310 732 317 q 731 299 731 304 q 735 274 731 285 q 753 258 740 264 q 763 256 758 257 q 774 256 768 256 q 800 260 786 256 q 828 272 814 264 q 914 361 872 300 q 976 489 956 422 q 985 522 981 506 q 990 556 989 539 q 993 584 993 571 q 993 611 993 597 q 920 824 993 735 q 686 950 847 913 q 635 960 660 957 q 585 963 610 963 q 288 842 415 963 q 146 553 161 722 q 144 533 144 543 q 144 511 144 522 q 252 219 143 346 q 528 67 361 92 q 560 64 544 65 q 592 63 576 63 q 778 99 693 61 q 911 183 863 138 q 939 213 928 199 q 957 240 950 228 l 972 269 l 1061 269 l 1044 242 q 854 57 975 118 q 596 -6 733 -4 q 579 -6 588 -6 q 563 -4 571 -6 q 544 -3 553 -4 q 528 -1 536 -3 q 197 165 329 17 q 64 511 64 314 q 64 522 64 517 q 64 532 64 526 q 65 541 64 536 q 65 551 65 546 q 234 892 81 751 q 582 1033 388 1033 q 629 1031 606 1033 q 676 1024 653 1029 q 961 882 856 986 q 1068 621 1067 778 q 1068 613 1068 617 q 1068 604 1068 608 q 1067 594 1068 599 q 1067 586 1067 590 q 957 327 1056 439 q 722 214 858 215 q 674 231 696 214 q 640 268 653 247 q 630 288 633 278 q 625 306 626 299 l 621 335 l 594 300 q 529 240 567 261 q 450 218 492 219 q 438 219 444 218 q 426 219 432 219 q 414 222 419 221 q 401 225 408 224 q 293 305 331 244 q 256 438 256 365 q 256 451 256 444 q 257 467 256 458 q 258 481 257 474 q 261 494 260 488 q 349 653 281 583 q 493 749 417 724 q 529 758 511 754 q 565 761 547 761 q 586 760 576 761 q 606 757 596 760 q 651 734 633 750 q 678 690 668 718 l 678 692 m 446 267 l 444 267 q 461 261 453 263 q 476 260 469 260 q 562 306 526 258 q 621 413 597 354 q 630 437 625 425 q 639 461 635 449 q 651 497 646 478 q 660 533 656 515 q 666 570 664 551 q 668 606 668 589 q 658 669 668 640 q 621 713 647 697 q 613 717 617 715 q 604 719 608 719 q 594 722 599 721 q 586 722 590 722 q 503 678 543 724 q 435 576 463 632 q 424 554 429 565 q 415 532 419 543 q 401 490 407 513 q 390 446 394 468 q 385 413 388 429 q 383 381 383 396 q 397 308 383 340 q 446 265 411 276 l 446 267 z "},"A":{"ha":1393,"x_min":-133,"x_max":1479,"o":"m -133 -194 l -133 -197 q -94 -163 -111 -179 q -62 -131 -78 -147 q -40 -108 -51 -119 q -19 -85 -29 -96 q 10 -48 -4 -67 q 40 -7 24 -29 q 64 24 54 10 q 82 53 74 39 q 85 58 83 56 q 89 64 86 61 q 115 109 100 83 q 153 176 129 135 l 256 353 l 168 353 l 293 411 l 579 901 q 546 902 561 901 q 515 904 531 903 q 503 904 510 904 q 490 904 497 904 q 474 904 482 904 q 456 904 465 904 q 420 903 436 904 q 389 900 404 901 q 360 898 375 900 q 329 894 346 896 q 342 907 336 901 q 353 918 347 913 q 367 931 360 925 q 383 943 375 938 q 398 952 390 947 q 415 963 406 957 q 440 977 429 971 q 463 989 451 983 q 505 1003 482 999 q 571 1007 528 1007 l 760 1006 l 856 822 l 1221 111 l 1342 111 q 1364 110 1354 110 q 1383 110 1374 110 q 1401 112 1392 111 q 1419 114 1410 113 q 1435 117 1428 115 q 1450 121 1442 118 q 1464 124 1457 122 q 1479 129 1471 126 q 1443 94 1463 110 q 1403 64 1424 78 q 1347 31 1374 44 q 1303 10 1319 18 q 1260 0 1288 3 q 1201 -3 1233 -3 q 1194 -3 1197 -3 q 1186 -3 1190 -3 q 1139 -1 1163 -3 q 1097 1 1115 0 q 1069 4 1081 3 q 1057 6 1058 6 l 871 356 l 360 363 l 207 117 q 190 88 199 101 q 171 61 181 75 q 128 8 151 35 q 75 -46 104 -18 q 38 -79 56 -64 q 4 -108 21 -94 q -36 -140 -15 -125 q -82 -168 -57 -154 q -106 -181 -93 -174 q -132 -194 -118 -187 l -133 -194 m 410 438 l 832 436 l 639 803 l 410 438 l 410 438 z "},"B":{"ha":1129,"x_min":35,"x_max":1089,"o":"m 263 63 l 261 228 l 256 939 l 35 935 l 217 1038 l 682 1044 q 708 1042 694 1043 q 733 1040 721 1042 q 908 985 828 1032 q 994 853 989 938 q 994 850 994 851 q 994 847 994 849 q 994 844 994 846 q 994 842 994 843 q 940 719 994 767 q 814 643 886 672 l 753 619 l 814 607 q 999 528 917 585 q 1088 374 1082 472 q 1088 370 1088 372 q 1088 367 1088 368 q 1088 363 1088 364 q 1088 358 1088 361 q 934 126 1089 213 q 593 11 779 39 q 513 3 553 6 q 433 0 472 0 q 418 0 425 0 q 404 0 411 0 q 284 5 306 -1 q 263 61 263 11 l 263 63 m 500 532 l 443 535 l 443 138 q 443 135 443 136 q 443 133 443 135 q 443 133 443 133 q 443 132 443 132 q 443 124 443 129 q 444 115 443 119 q 447 105 446 110 q 451 97 449 100 q 473 86 460 88 q 501 85 486 85 q 501 85 501 85 q 503 85 501 85 q 506 85 504 85 q 510 85 508 85 l 664 86 q 675 85 669 85 q 686 86 681 85 q 835 142 767 92 q 903 264 903 192 q 903 269 903 267 q 903 272 903 271 q 788 460 894 404 q 554 526 681 515 q 527 529 540 528 q 500 531 514 531 l 500 532 m 443 613 l 558 611 q 578 610 568 610 q 599 611 589 611 q 738 649 674 617 q 811 756 803 681 q 811 759 811 757 q 813 763 811 761 q 813 766 813 764 q 813 769 813 768 q 749 879 813 840 q 607 929 685 918 q 577 932 592 931 q 547 933 563 933 l 443 935 l 443 613 l 443 613 z "},"C":{"ha":1207,"x_min":39,"x_max":1175,"o":"m 1086 179 l 1081 178 l 1108 193 l 1106 172 l 982 94 q 825 19 901 42 q 675 -4 749 -4 q 603 1 639 -4 q 531 17 567 6 q 434 53 482 31 q 336 106 386 76 q 125 288 211 182 q 39 517 39 393 q 39 527 39 522 q 39 538 39 532 q 40 547 39 542 q 40 557 40 551 q 76 710 49 636 q 133 829 103 783 q 144 844 139 838 q 156 857 150 851 q 197 869 157 860 q 282 892 236 878 q 322 906 303 899 q 357 919 340 913 q 377 929 367 924 q 399 940 388 935 q 419 953 408 947 q 439 967 429 960 q 500 1008 474 989 q 533 1028 526 1028 q 588 1033 558 1031 q 649 1035 618 1035 q 720 1033 683 1035 q 794 1028 757 1031 q 1047 988 931 1015 q 1174 929 1163 960 q 1175 927 1175 928 q 1175 925 1175 926 q 1175 922 1175 924 q 1175 918 1175 919 q 1170 894 1175 904 q 1157 872 1165 883 l 1061 757 q 1056 748 1058 751 q 1049 740 1053 744 q 1045 735 1047 738 q 1042 729 1043 732 q 1026 714 1033 719 q 1013 713 1018 708 q 1013 722 1011 714 q 1019 740 1015 729 q 1022 751 1021 744 q 1025 763 1024 757 q 1026 770 1025 767 q 1026 778 1026 774 q 1026 783 1026 781 q 1026 786 1026 785 q 978 842 1019 819 q 886 878 936 865 q 855 885 871 882 q 824 889 839 888 l 590 915 q 556 917 574 917 q 521 918 539 918 q 518 918 519 918 q 515 918 517 918 q 405 906 457 918 q 336 867 353 893 q 264 713 286 785 q 242 581 242 642 q 326 361 242 450 q 533 215 411 272 l 696 142 q 736 124 717 131 q 775 111 756 117 q 813 105 793 107 q 853 103 832 103 q 861 103 857 103 q 869 104 865 103 q 876 104 872 104 q 885 104 881 104 q 949 115 921 107 q 1004 135 978 122 q 1044 155 1024 144 q 1086 178 1064 165 l 1086 179 z "},"D":{"ha":1275,"x_min":39,"x_max":1240,"o":"m 96 1069 l 217 1167 q 223 1171 219 1168 q 229 1176 226 1174 q 233 1179 231 1178 q 236 1183 235 1181 q 247 1190 242 1188 q 256 1193 251 1193 q 260 1192 258 1193 q 264 1190 263 1192 q 267 1175 272 1185 q 251 1156 261 1165 q 249 1153 250 1154 q 247 1151 249 1153 q 232 1135 239 1143 q 226 1121 225 1126 q 242 1113 228 1117 q 272 1106 256 1108 q 284 1103 278 1104 q 296 1101 290 1103 l 919 1003 q 1142 906 1049 981 q 1238 675 1236 832 q 1217 392 1240 511 q 1076 207 1193 272 l 782 42 q 700 8 742 18 q 617 -3 658 -3 q 441 40 528 -3 q 276 150 354 82 q 175 288 213 207 q 126 457 138 369 q 123 490 124 474 q 122 524 122 507 q 152 696 121 615 q 246 819 183 776 l 413 938 l 96 990 q 87 991 92 990 q 78 992 82 992 q 51 999 63 994 q 39 1013 40 1004 q 48 1028 39 1018 q 69 1047 57 1038 q 74 1051 71 1049 q 79 1056 76 1053 q 88 1062 83 1058 q 96 1068 92 1065 l 96 1069 m 453 932 l 417 904 q 347 778 375 864 q 319 592 319 692 q 319 573 319 582 q 321 554 319 564 q 352 401 325 475 q 436 276 379 328 q 453 263 444 269 q 471 249 461 256 q 594 178 522 211 q 744 136 667 144 q 766 134 756 135 q 788 133 776 133 q 877 146 833 133 q 958 189 921 158 q 976 214 965 194 q 997 264 986 233 q 1029 378 1014 311 q 1047 517 1044 446 q 1047 528 1047 522 q 1047 539 1047 533 q 1031 670 1047 607 q 971 778 1014 733 q 882 840 932 818 q 768 872 832 861 l 453 932 l 453 932 z "},"E":{"ha":1165,"x_min":44,"x_max":1126,"o":"m 133 865 l 131 864 q 176 880 138 868 q 260 908 215 892 q 293 921 276 914 q 325 935 310 928 q 356 953 340 943 q 385 972 371 963 q 437 1009 413 992 q 481 1028 461 1026 q 492 1029 486 1029 q 506 1029 499 1029 q 545 1028 524 1029 q 590 1024 567 1026 q 601 1022 596 1022 q 613 1021 607 1021 l 929 989 q 964 983 935 988 q 1028 969 993 979 q 1094 944 1064 960 q 1126 906 1125 929 q 1126 906 1126 906 q 1126 904 1126 906 q 1122 885 1126 894 q 1108 865 1117 875 q 1094 849 1103 857 q 1078 832 1086 840 q 1065 818 1071 825 q 1053 804 1058 811 q 1033 777 1042 789 q 1014 753 1024 765 q 1013 750 1014 751 q 1011 749 1011 749 q 992 724 1001 736 q 971 697 982 711 q 979 724 976 711 q 982 749 982 736 q 977 784 982 767 q 961 819 972 801 q 904 865 940 856 q 828 878 868 875 q 814 879 821 879 q 800 881 807 879 l 513 914 q 464 917 488 915 q 417 919 440 919 q 367 916 390 919 q 319 903 343 913 q 267 829 290 890 q 235 697 244 768 q 231 664 232 681 q 229 632 229 647 l 226 564 l 831 543 q 853 542 842 542 q 874 542 864 542 q 890 542 882 542 q 906 542 897 542 q 938 544 921 542 q 974 549 954 546 q 997 553 986 551 q 1018 557 1008 556 q 1040 563 1029 560 q 1063 569 1050 565 l 1065 558 q 1039 544 1056 553 q 1001 526 1022 535 q 966 511 985 518 q 928 499 947 504 q 922 498 925 499 q 915 496 918 497 q 758 474 840 479 q 576 467 675 468 l 268 464 q 312 406 283 439 q 376 336 340 372 q 438 282 406 308 q 506 233 471 256 q 567 197 538 214 q 628 165 597 179 q 715 133 671 144 q 807 121 758 121 q 847 123 826 121 q 890 129 868 125 q 915 136 901 132 q 940 146 928 140 q 960 156 950 151 q 981 167 971 161 q 1033 197 1011 183 q 1056 204 1056 210 q 1051 192 1056 199 q 1040 178 1047 185 q 1028 167 1035 172 q 1014 157 1021 161 q 1010 154 1013 156 q 1006 151 1008 153 l 835 46 q 805 28 819 35 q 776 17 790 21 q 721 3 749 7 q 657 -3 693 -1 q 649 -3 653 -3 q 640 -3 644 -3 q 563 5 604 -3 q 481 31 522 13 q 417 62 449 43 q 357 104 386 81 l 194 238 q 81 373 117 299 q 44 544 44 447 q 44 567 44 556 q 46 589 44 578 q 49 624 47 606 q 56 658 51 642 q 87 781 67 724 q 128 860 107 838 q 131 862 129 861 q 133 864 132 863 l 133 865 z "},"F":{"ha":994,"x_min":18,"x_max":957,"o":"m 204 21 l 203 225 l 201 936 l 40 940 l 186 1022 q 192 1024 189 1022 q 199 1026 196 1025 q 210 1031 204 1029 q 224 1035 217 1033 q 240 1038 232 1036 q 254 1040 247 1039 q 272 1041 264 1040 q 292 1042 281 1042 l 957 1043 q 940 1029 947 1035 q 924 1019 932 1024 q 917 1015 921 1017 q 911 1011 914 1013 q 897 1002 904 1007 q 881 993 889 997 q 862 983 871 988 q 844 972 853 978 q 822 963 833 967 q 797 954 811 958 q 781 951 789 953 q 767 949 774 950 q 748 948 757 949 q 728 947 739 947 l 390 949 l 390 492 l 597 483 q 619 481 608 482 q 640 481 631 481 q 663 479 651 479 q 686 478 675 479 q 701 478 693 478 q 717 478 708 478 q 743 478 729 478 q 771 479 757 478 q 812 481 793 479 q 850 483 831 482 q 887 487 868 485 q 928 492 906 489 q 910 477 918 483 q 893 465 901 471 q 873 452 883 458 q 851 440 863 446 q 841 435 846 438 q 831 431 836 433 q 804 419 817 424 q 779 410 792 414 q 749 401 764 406 q 715 394 733 397 q 675 388 693 390 q 640 386 657 386 q 611 385 625 385 q 581 385 597 385 q 572 385 576 385 q 564 385 568 385 l 396 385 l 396 65 q 393 32 396 46 q 386 4 390 18 q 377 -15 382 -4 q 367 -36 372 -25 q 322 -89 354 -62 q 254 -142 290 -115 q 249 -147 251 -144 q 243 -150 246 -149 l 32 -311 l 18 -294 l 108 -214 q 116 -208 113 -211 q 124 -200 119 -204 q 161 -153 146 -178 q 188 -97 176 -129 q 196 -69 193 -82 q 201 -44 199 -57 q 203 -15 203 -29 q 204 19 204 0 l 204 21 z "},"G":{"ha":1207,"x_min":43,"x_max":1171,"o":"m 326 129 l 325 126 q 131 307 215 211 q 43 517 47 403 q 43 523 43 519 q 43 529 43 526 q 43 535 43 532 q 43 542 43 539 q 71 679 46 613 q 125 794 96 746 q 149 830 138 814 q 171 857 161 846 q 208 867 172 860 q 288 888 244 875 q 323 899 306 893 q 356 910 340 904 q 378 919 367 914 q 400 932 389 925 q 422 944 411 938 q 442 958 432 951 q 505 1000 478 981 q 540 1019 532 1019 q 547 1019 543 1019 q 554 1021 550 1019 q 561 1021 557 1021 q 569 1021 565 1021 q 689 1015 617 1021 q 838 999 761 1010 q 1042 965 947 985 q 1164 922 1138 944 q 1169 917 1167 919 q 1171 911 1171 914 q 1171 909 1171 910 q 1171 907 1171 908 q 1166 890 1171 897 q 1156 876 1161 883 q 1153 874 1154 875 q 1151 871 1153 872 q 1147 865 1149 868 q 1142 858 1144 863 l 1063 750 q 1057 742 1060 746 q 1051 733 1054 738 q 1046 726 1049 731 q 1040 719 1043 722 q 1026 707 1032 711 q 1014 707 1019 703 q 1015 716 1013 708 q 1021 735 1017 724 q 1024 745 1022 739 q 1026 757 1025 751 q 1027 765 1026 761 q 1028 772 1028 768 q 1028 777 1028 775 q 1028 781 1028 779 q 979 833 1021 814 q 888 861 938 851 q 856 867 872 864 q 825 871 840 869 l 596 901 q 575 903 586 901 q 554 906 564 904 q 513 910 533 908 q 471 911 492 911 q 383 897 424 911 q 321 840 343 882 q 263 703 281 764 q 244 590 244 642 q 304 416 243 485 q 444 290 365 347 l 588 188 q 608 174 596 181 q 635 158 619 167 q 705 130 665 143 q 786 114 744 117 q 794 113 790 113 q 800 113 797 113 q 803 113 801 113 q 807 113 806 113 q 810 113 808 113 q 814 113 813 113 q 843 113 829 113 q 869 117 857 114 q 899 124 885 119 q 932 133 914 128 l 951 464 l 885 468 q 869 468 876 468 q 854 468 861 468 q 846 468 850 468 q 836 468 842 468 q 815 467 826 468 q 790 465 804 467 q 764 465 776 465 q 739 463 751 464 q 713 460 726 461 q 683 457 700 458 q 713 474 699 467 q 740 488 726 481 q 760 497 750 493 q 779 506 769 501 q 793 511 786 508 q 807 517 800 514 q 844 531 826 524 q 878 544 861 539 q 918 556 897 551 q 964 560 939 560 l 1147 561 l 1099 60 q 1099 49 1099 53 q 1099 40 1099 44 q 1098 22 1099 31 q 1096 4 1097 13 q 1090 -17 1093 -6 q 1082 -42 1086 -29 q 1057 -85 1072 -68 q 1024 -115 1042 -101 q 1001 -134 1013 -125 q 979 -154 990 -143 q 974 -158 976 -156 q 971 -162 972 -160 q 956 -179 964 -171 q 940 -197 947 -187 q 938 -200 939 -199 q 935 -203 936 -201 q 889 -253 910 -231 q 861 -274 868 -276 q 861 -274 861 -274 q 861 -272 861 -274 q 860 -272 860 -272 q 860 -271 860 -271 q 867 -244 860 -265 q 882 -197 874 -224 q 885 -185 883 -192 q 890 -172 888 -179 q 897 -148 893 -160 q 901 -125 900 -136 q 911 -65 907 -92 q 917 -11 915 -37 q 917 13 917 0 q 918 38 918 25 q 918 66 918 51 q 917 96 918 81 q 891 85 908 92 q 854 69 874 78 q 841 63 847 67 q 829 57 835 60 q 789 37 808 46 q 749 19 769 28 q 690 3 719 8 q 628 -3 660 -3 q 491 26 564 -3 q 326 128 418 56 l 326 129 z "},"H":{"ha":1318,"x_min":43,"x_max":1281,"o":"m 289 -7 l 289 528 l 289 1239 l 43 1247 l 192 1343 l 482 1343 l 482 907 l 565 943 q 585 950 575 946 q 604 957 594 954 q 758 1013 683 990 q 885 1036 833 1035 q 885 1036 885 1036 q 886 1036 885 1036 q 886 1036 886 1036 q 886 1036 886 1036 q 965 1012 917 1036 q 1063 946 1013 988 q 1206 785 1140 882 q 1279 585 1271 689 q 1279 579 1279 582 q 1281 574 1279 576 q 1281 568 1281 571 q 1281 563 1281 565 q 1281 549 1281 556 q 1279 536 1281 543 q 1242 390 1274 461 q 1174 263 1210 318 q 1123 192 1147 222 q 1083 147 1099 163 l 901 -35 q 885 -51 894 -42 q 867 -68 876 -60 q 861 -75 864 -72 q 856 -79 858 -78 q 819 -112 836 -99 q 792 -126 801 -126 q 787 -125 789 -126 q 783 -121 785 -124 q 800 -90 781 -112 q 843 -42 819 -68 q 844 -39 843 -40 q 847 -37 846 -37 q 862 -19 854 -28 q 876 -3 869 -11 l 917 46 q 1042 258 1003 150 q 1085 481 1081 365 q 1085 485 1085 483 q 1085 489 1085 488 q 1037 667 1085 582 q 932 808 989 751 q 884 851 908 833 q 840 881 860 869 l 753 931 q 744 933 750 931 q 729 938 738 935 q 708 943 719 940 q 685 947 696 946 q 680 947 682 947 q 675 947 678 947 q 669 947 672 947 q 664 946 667 947 q 658 945 661 946 q 653 944 656 944 q 537 876 589 931 q 476 757 485 821 q 475 748 475 753 q 475 739 475 743 l 475 63 l 289 -7 l 289 -7 z "},"I":{"ha":507,"x_min":40,"x_max":465,"o":"m 232 928 l 232 704 l 232 -7 l 42 88 l 42 313 l 42 1024 l 321 1024 l 465 928 l 232 928 l 232 928 m 167 1347 l 168 1344 q 168 1343 168 1343 q 169 1343 168 1343 q 181 1339 175 1343 q 192 1331 186 1335 q 193 1328 192 1329 q 194 1326 194 1328 q 199 1323 197 1325 q 203 1319 201 1321 l 261 1271 q 269 1263 265 1267 q 278 1256 274 1258 q 278 1253 278 1254 q 281 1253 279 1253 q 301 1233 292 1242 q 311 1222 310 1225 q 313 1219 313 1221 q 313 1215 313 1217 q 308 1201 313 1207 q 296 1189 303 1194 q 294 1188 296 1189 q 292 1185 293 1186 q 287 1181 289 1183 q 283 1178 285 1179 l 206 1099 q 203 1094 204 1096 q 199 1090 201 1092 q 196 1088 197 1089 q 194 1085 194 1086 q 188 1081 190 1082 q 182 1079 185 1079 q 174 1083 179 1081 q 165 1089 169 1085 q 163 1091 164 1090 q 161 1092 163 1092 q 159 1094 160 1093 q 157 1096 158 1094 l 72 1175 q 67 1177 69 1175 q 63 1182 65 1179 q 60 1185 61 1183 q 57 1188 58 1186 q 45 1201 50 1194 q 40 1211 40 1207 q 47 1222 42 1215 q 60 1236 53 1229 q 60 1237 60 1236 q 63 1239 61 1238 q 66 1242 64 1240 q 69 1246 68 1244 l 140 1325 q 142 1326 142 1325 q 143 1328 143 1326 q 149 1333 146 1331 q 154 1338 151 1336 q 160 1344 157 1342 q 167 1346 164 1346 l 167 1347 z "},"J":{"ha":536,"x_min":11,"x_max":499,"o":"m 388 -29 l 389 -28 q 336 -74 358 -51 q 293 -118 314 -96 q 249 -163 271 -140 q 196 -208 226 -186 q 163 -233 178 -221 q 135 -257 149 -246 q 94 -285 115 -272 q 44 -307 72 -297 q 52 -287 11 -318 q 149 -206 93 -257 q 203 -149 176 -179 q 246 -87 229 -118 q 250 -81 249 -85 q 253 -75 251 -78 q 266 -45 260 -60 q 278 -15 272 -31 q 301 73 293 26 q 308 175 310 119 l 307 217 l 301 928 l 39 928 l 213 1032 l 492 1032 l 492 757 l 492 46 q 469 29 479 36 q 449 15 458 22 q 441 10 444 13 q 435 6 438 8 q 413 -10 424 -1 q 388 -29 401 -18 l 388 -29 m 396 1321 l 397 1324 l 468 1246 q 472 1241 469 1243 q 475 1238 474 1239 q 477 1235 476 1236 q 478 1235 478 1235 q 490 1221 485 1228 q 497 1210 496 1214 q 493 1199 499 1206 q 481 1186 488 1193 q 478 1183 479 1185 q 475 1181 476 1182 q 470 1176 472 1178 q 465 1172 468 1174 l 381 1096 q 378 1092 379 1093 q 376 1090 378 1092 q 374 1090 375 1090 q 372 1088 374 1089 q 364 1081 368 1083 q 356 1078 360 1079 q 350 1079 353 1078 q 344 1083 347 1081 q 342 1086 343 1085 q 339 1089 340 1088 q 335 1092 336 1090 q 332 1096 333 1094 l 254 1178 q 251 1179 253 1178 q 249 1182 250 1181 q 248 1183 249 1182 q 247 1183 247 1183 q 235 1196 240 1189 q 229 1213 229 1203 q 229 1215 229 1214 q 229 1218 229 1217 q 230 1219 229 1218 q 231 1222 231 1221 q 240 1233 232 1225 q 257 1250 247 1240 q 260 1253 258 1251 q 263 1256 261 1254 q 269 1262 265 1258 q 276 1268 274 1265 l 335 1319 q 338 1322 336 1319 q 343 1325 340 1324 q 344 1327 343 1326 q 346 1329 346 1328 q 358 1338 351 1333 q 368 1342 364 1342 q 368 1342 368 1342 q 369 1342 368 1342 q 369 1342 369 1342 q 369 1342 369 1342 q 376 1340 372 1342 q 383 1333 379 1338 q 388 1329 385 1332 q 393 1324 390 1326 q 394 1322 393 1322 q 396 1319 394 1321 l 396 1321 z "},"K":{"ha":1519,"x_min":33,"x_max":1493,"o":"m 303 -1 l 297 242 l 283 953 l 33 950 l 158 1028 q 164 1029 161 1028 q 168 1032 167 1031 q 184 1039 176 1036 q 201 1043 192 1042 q 209 1044 206 1044 q 215 1044 213 1044 q 219 1044 217 1044 q 222 1044 221 1044 q 231 1044 226 1044 q 242 1044 236 1044 l 476 1042 l 475 639 q 508 654 494 647 q 536 668 522 661 q 542 671 539 669 q 549 675 546 672 q 597 705 571 686 q 667 764 622 724 q 701 797 685 781 q 733 831 718 814 q 751 852 742 842 q 769 872 761 863 q 835 943 801 908 q 917 1008 869 978 q 985 1039 944 1026 q 1067 1058 1025 1051 q 1094 1063 1081 1061 q 1121 1065 1108 1064 q 1081 1028 1099 1046 q 1044 994 1063 1011 q 1039 990 1042 992 q 1033 985 1036 988 q 996 951 1015 968 q 953 915 976 935 q 885 860 917 885 q 824 811 854 835 q 804 797 814 804 q 783 782 794 789 q 722 738 754 760 q 653 690 690 715 l 1038 310 q 1076 272 1053 293 q 1125 231 1099 251 q 1164 200 1144 215 q 1204 172 1183 185 q 1262 142 1233 154 q 1314 128 1290 129 q 1316 128 1315 128 q 1318 128 1317 128 q 1319 128 1318 128 q 1321 128 1319 128 q 1344 129 1332 128 q 1368 133 1356 131 q 1391 138 1379 135 q 1414 144 1403 142 q 1453 157 1436 151 q 1481 163 1471 163 q 1487 162 1485 163 q 1490 158 1489 161 q 1462 136 1493 150 q 1393 103 1431 122 q 1367 90 1379 97 q 1343 76 1354 83 q 1306 53 1324 64 q 1272 35 1289 43 q 1226 17 1250 24 q 1175 11 1203 11 q 1167 11 1171 11 q 1157 11 1163 11 q 1049 47 1100 15 q 950 126 999 79 q 903 173 926 149 q 854 222 879 197 q 851 226 853 224 q 846 231 849 228 l 531 544 q 525 548 529 544 q 515 554 521 551 q 510 558 513 557 q 506 561 508 560 q 498 565 501 564 q 492 567 494 567 q 487 565 489 567 q 483 561 485 564 q 482 557 482 560 q 482 551 482 554 q 482 549 482 550 q 482 547 482 547 q 482 544 482 546 q 482 542 482 543 l 486 81 l 303 -1 l 303 -1 z "},"L":{"ha":1006,"x_min":29,"x_max":969,"o":"m 214 -3 l 210 526 l 204 1238 l 29 1238 l 128 1313 q 133 1315 131 1314 q 139 1319 136 1317 q 147 1325 143 1322 q 156 1329 150 1328 q 166 1332 161 1332 q 176 1332 171 1332 q 183 1332 179 1332 q 190 1332 186 1332 l 393 1326 l 397 824 l 401 113 l 651 97 q 699 94 678 94 q 739 93 719 93 q 781 93 760 92 q 829 97 803 94 q 882 106 863 100 q 918 121 901 113 q 938 132 928 126 q 960 144 947 138 l 969 136 q 938 108 958 125 q 890 74 917 92 q 858 53 875 64 q 822 35 840 43 q 765 11 792 19 q 711 -1 738 3 q 635 -8 674 -8 q 550 -8 596 -8 l 214 -3 l 214 -3 z "},"M":{"ha":1914,"x_min":39,"x_max":1886,"o":"m 272 346 l 426 93 l 260 1 l 122 222 q 97 264 108 243 q 76 304 85 285 q 52 372 61 338 q 40 450 43 407 q 40 456 40 453 q 40 461 40 458 q 39 467 39 464 q 39 472 39 469 q 40 498 39 485 q 42 524 40 511 q 84 669 53 599 q 151 783 115 739 q 179 814 165 801 q 206 833 193 826 l 517 1004 q 546 1017 532 1011 q 572 1028 560 1024 q 593 1033 583 1031 q 614 1035 603 1035 q 631 1034 622 1035 q 649 1031 639 1033 q 718 1005 681 1022 q 793 963 756 988 q 849 921 821 943 q 901 874 876 899 l 939 838 q 944 831 942 833 q 949 825 946 828 q 953 820 951 822 q 957 815 954 818 q 974 799 965 806 q 997 792 983 792 q 1015 796 1007 792 q 1028 806 1022 800 q 1032 810 1031 808 q 1036 813 1033 811 q 1042 817 1039 815 q 1047 822 1044 819 l 1301 1003 q 1320 1014 1311 1008 q 1338 1024 1329 1019 q 1367 1036 1351 1031 q 1403 1044 1383 1042 q 1405 1044 1404 1044 q 1407 1044 1406 1044 q 1491 1019 1429 1044 q 1622 944 1553 993 q 1769 808 1701 889 q 1846 626 1838 728 q 1846 621 1846 624 q 1847 617 1846 618 q 1847 611 1847 614 q 1847 606 1847 608 q 1845 574 1847 590 q 1839 542 1843 558 q 1814 479 1829 511 q 1779 414 1799 447 l 1614 136 q 1647 128 1632 131 q 1678 125 1663 126 q 1711 123 1694 124 q 1747 122 1728 122 q 1788 124 1769 122 q 1822 128 1806 125 q 1853 133 1838 129 q 1886 140 1868 136 q 1872 125 1879 132 q 1860 113 1865 118 q 1828 87 1844 99 q 1792 65 1813 75 q 1787 63 1789 64 q 1782 60 1785 61 q 1744 43 1763 50 q 1708 32 1726 36 q 1650 22 1679 25 q 1585 19 1621 19 q 1576 19 1581 19 q 1568 19 1572 19 q 1531 20 1549 19 q 1497 24 1514 21 q 1461 31 1479 26 q 1421 42 1443 35 l 1513 201 q 1545 260 1529 229 q 1576 322 1561 290 q 1628 453 1607 390 q 1649 553 1649 515 q 1649 563 1650 558 q 1647 572 1649 568 q 1570 717 1628 650 q 1446 831 1513 783 q 1347 887 1394 867 q 1271 907 1300 907 q 1261 908 1265 908 q 1254 906 1257 907 q 1060 720 1106 857 q 1011 428 1014 583 q 1011 417 1011 422 q 1011 406 1011 411 l 1011 67 l 824 0 l 835 590 q 835 592 835 590 q 835 594 835 593 q 824 654 835 628 q 793 706 814 681 q 787 714 790 710 q 779 722 783 718 q 582 869 674 831 q 446 907 490 907 q 433 906 439 907 q 424 904 428 906 q 333 830 372 888 q 268 706 293 772 q 235 602 247 651 q 224 525 224 553 q 224 517 224 521 q 225 510 224 513 q 231 480 229 494 q 236 453 233 465 q 241 426 239 439 q 247 400 243 413 q 257 373 251 386 q 272 344 263 360 l 272 346 z "},"N":{"ha":1342,"x_min":36,"x_max":1307,"o":"m 282 0 l 282 213 l 282 924 l 36 928 l 210 1019 l 475 1019 l 475 879 l 517 907 q 557 931 536 918 q 599 954 578 943 q 730 1017 667 992 q 838 1050 793 1043 q 841 1050 839 1050 q 844 1051 843 1050 q 848 1051 846 1051 q 851 1051 850 1051 q 941 1028 889 1051 q 1049 967 993 1006 q 1226 788 1146 897 q 1307 556 1307 678 q 1269 397 1307 474 q 1186 258 1232 319 q 1128 188 1156 218 q 1083 142 1100 158 l 901 -35 q 881 -56 893 -43 q 853 -81 868 -68 q 847 -86 850 -83 q 842 -92 844 -89 q 795 -130 817 -115 q 771 -133 774 -144 q 787 -101 768 -125 q 828 -51 806 -78 q 828 -49 828 -50 q 831 -47 829 -49 q 846 -28 839 -37 q 860 -11 853 -19 l 917 63 q 969 133 944 97 q 1014 206 994 169 q 1079 349 1056 276 q 1106 499 1103 422 q 1106 503 1106 501 q 1106 507 1106 506 q 1058 678 1106 599 q 956 813 1011 758 q 914 847 935 832 q 875 872 893 863 l 788 922 q 776 926 785 922 q 753 933 767 929 q 727 941 742 938 q 697 946 713 944 q 687 947 692 947 q 678 947 682 947 q 664 947 671 947 q 650 944 657 946 q 543 882 593 932 q 475 774 493 832 q 470 749 472 761 q 468 726 468 738 l 468 69 l 282 0 l 282 0 z "},"O":{"ha":1181,"x_min":42,"x_max":1143,"o":"m 778 1022 l 775 1021 q 1040 851 939 972 q 1143 558 1142 731 q 1143 555 1143 557 q 1143 551 1143 553 q 1143 547 1143 549 q 1143 543 1143 546 q 1108 340 1143 431 q 976 188 1072 250 l 781 60 q 661 1 721 19 q 540 -17 601 -17 q 423 -1 482 -17 q 303 46 364 15 q 109 224 176 113 q 42 472 42 336 q 43 519 42 496 q 49 564 44 542 q 110 755 67 675 q 250 892 154 835 l 446 1010 q 519 1035 476 1026 q 613 1044 563 1044 q 673 1042 642 1044 q 736 1032 704 1039 q 757 1026 746 1029 q 778 1021 768 1024 l 778 1022 m 251 372 l 253 371 q 290 317 260 349 q 367 251 319 286 q 484 179 418 214 q 619 125 550 144 q 675 114 647 118 q 729 110 703 110 q 810 122 771 110 q 881 161 849 133 q 940 272 917 193 q 964 446 964 351 q 963 474 964 460 q 961 503 963 489 q 935 638 956 572 q 872 756 914 704 q 761 845 829 810 q 621 899 693 881 q 520 919 569 913 q 431 925 471 925 q 364 920 392 925 q 324 907 336 915 q 253 780 282 879 q 225 565 225 681 q 225 551 225 558 q 225 536 225 544 q 233 451 226 493 q 251 371 239 410 l 251 372 z "},"P":{"ha":1072,"x_min":35,"x_max":1038,"o":"m 414 424 l 410 72 l 231 -6 l 231 215 l 231 926 l 35 914 l 126 981 q 137 986 132 983 q 146 993 142 989 q 163 1001 154 997 q 183 1010 172 1006 q 202 1015 193 1013 q 219 1018 211 1017 q 237 1020 228 1019 q 256 1021 246 1021 l 629 1046 q 637 1044 633 1044 q 644 1046 640 1044 q 652 1046 649 1046 q 660 1046 656 1046 q 911 969 799 1046 q 1036 747 1024 893 q 1036 744 1036 746 q 1036 742 1036 743 q 1036 739 1036 740 q 1036 736 1036 738 q 903 548 1038 631 q 607 436 768 465 q 535 426 571 429 q 464 422 499 422 l 414 424 l 414 424 m 490 942 l 413 940 l 413 494 q 430 488 415 492 q 465 481 444 485 q 496 475 479 478 q 531 469 513 472 q 556 467 543 468 q 581 467 568 467 q 583 467 582 467 q 585 467 583 467 q 585 467 585 467 q 588 467 586 467 q 601 467 594 467 q 615 469 608 468 q 768 531 699 479 q 838 665 838 583 q 838 672 838 668 q 838 679 838 675 q 721 885 825 826 q 490 940 617 943 l 490 942 z "},"Q":{"ha":1011,"x_min":40,"x_max":1842,"o":"m 518 303 l 324 181 l 265 206 q 113 324 176 243 q 42 514 49 404 q 42 519 42 517 q 42 525 42 522 q 40 529 40 526 q 40 535 40 532 q 67 674 40 608 q 126 774 93 739 q 130 777 128 775 q 135 782 132 779 q 207 825 158 801 q 317 896 256 849 q 351 924 336 910 q 381 950 367 938 q 421 981 400 967 q 471 1006 442 996 q 499 1012 482 1010 q 535 1014 515 1014 q 618 1006 572 1014 q 713 983 664 999 q 896 880 813 951 q 979 690 979 808 q 979 685 979 689 q 979 679 979 682 q 948 482 975 558 q 858 339 921 406 q 838 317 849 328 q 815 296 826 307 q 782 267 800 282 q 743 239 764 253 q 706 214 725 226 q 668 189 688 201 q 542 115 600 146 q 476 82 483 83 l 542 63 l 1253 -153 q 1301 -167 1278 -160 q 1349 -179 1325 -174 q 1434 -195 1390 -189 q 1532 -204 1478 -201 q 1542 -204 1538 -204 q 1553 -204 1547 -204 q 1628 -198 1592 -204 q 1693 -181 1665 -192 l 1779 -143 q 1789 -139 1783 -142 q 1799 -133 1794 -136 q 1801 -133 1800 -133 q 1801 -132 1801 -132 q 1827 -121 1815 -125 q 1840 -124 1839 -117 q 1832 -138 1842 -131 q 1811 -151 1822 -146 q 1804 -156 1807 -154 q 1799 -158 1801 -157 l 1671 -228 q 1601 -260 1635 -247 q 1535 -282 1568 -274 q 1448 -297 1492 -293 q 1354 -300 1404 -300 q 1328 -300 1342 -300 q 1301 -300 1315 -300 q 1088 -281 1188 -299 q 892 -236 988 -262 q 721 -183 807 -211 q 539 -125 635 -154 q 478 -106 510 -115 q 415 -87 447 -97 q 325 -62 356 -71 q 269 -47 294 -53 q 261 -44 265 -46 q 253 -43 257 -43 q 226 -37 240 -40 q 194 -31 213 -35 l 129 -18 q 126 -17 128 -18 q 124 -17 125 -17 q 121 -17 122 -17 q 118 -17 119 -17 q 102 -12 110 -14 q 93 -4 94 -10 q 93 -3 93 -4 q 93 -3 93 -3 q 93 -2 93 -3 q 93 -1 93 -1 q 93 1 93 0 q 94 4 93 3 q 101 14 97 10 q 111 21 106 18 q 114 23 113 22 q 117 25 115 24 l 258 129 q 293 117 276 121 q 325 110 310 113 q 353 106 339 107 q 385 104 368 104 q 388 104 386 104 q 392 104 390 104 q 395 104 393 104 q 399 104 397 104 q 429 106 414 104 q 460 113 444 108 q 685 258 583 140 q 785 558 788 376 q 756 727 783 678 q 640 811 728 776 q 636 812 638 811 q 632 814 635 813 l 551 847 q 515 858 535 853 q 475 869 496 864 q 412 881 443 876 q 360 886 381 886 q 340 885 349 886 q 328 881 332 883 q 305 858 319 875 q 276 815 290 840 q 242 748 258 786 q 218 669 225 710 q 215 648 217 658 q 214 628 214 638 q 214 623 214 625 q 215 618 214 621 q 215 615 215 617 q 215 610 215 613 q 260 458 222 524 q 379 358 299 392 l 518 303 l 518 303 z "},"R":{"ha":1319,"x_min":29,"x_max":1286,"o":"m 417 926 l 415 769 l 415 58 l 233 -4 l 231 219 l 226 931 l 29 929 q 48 942 39 936 q 65 956 57 949 q 74 961 69 958 q 83 968 79 964 q 98 977 90 972 q 114 986 106 982 q 135 999 125 993 q 156 1008 146 1004 q 173 1017 164 1013 q 192 1025 182 1021 q 201 1028 196 1026 q 210 1032 206 1031 q 228 1032 219 1032 q 244 1032 236 1032 q 253 1031 249 1031 q 263 1031 258 1031 q 269 1031 265 1031 q 275 1031 272 1031 q 309 1031 292 1031 q 346 1032 326 1031 q 426 1037 390 1033 q 497 1044 463 1040 q 567 1051 531 1047 q 647 1056 604 1054 q 649 1056 649 1056 q 651 1056 650 1056 q 652 1056 651 1056 q 654 1056 653 1056 q 728 1049 685 1056 q 818 1026 772 1042 q 955 952 892 1003 q 1029 815 1018 901 q 1031 804 1031 810 q 1031 793 1031 799 q 953 650 1031 706 q 785 551 876 594 q 759 539 772 544 q 733 528 746 533 l 710 518 q 744 473 728 493 q 775 435 760 453 q 783 426 779 431 q 790 417 786 421 q 825 377 807 397 q 864 333 843 357 q 900 294 883 311 q 933 260 917 276 q 935 259 935 260 q 936 258 936 258 q 971 222 953 240 q 1010 182 989 204 l 1033 158 q 1040 150 1036 153 q 1046 143 1043 147 q 1086 114 1065 125 q 1136 101 1107 103 q 1139 101 1138 101 q 1142 101 1140 101 q 1144 101 1143 101 q 1147 101 1146 101 q 1153 101 1150 101 q 1158 101 1156 101 q 1199 109 1179 103 q 1236 122 1219 115 q 1264 135 1253 129 q 1276 142 1275 142 l 1286 125 l 1193 81 q 1169 68 1181 74 q 1147 56 1158 63 q 1120 40 1133 49 q 1094 25 1107 32 q 1043 4 1069 13 q 985 -4 1017 -4 q 981 -4 983 -4 q 978 -4 979 -4 q 974 -4 975 -4 q 969 -4 972 -4 q 885 25 922 -1 q 819 82 849 51 q 812 92 815 88 q 804 100 808 96 q 769 138 786 121 q 738 171 753 154 q 737 171 738 171 q 736 172 736 171 q 702 207 719 189 q 664 247 685 225 q 633 283 656 257 q 583 340 610 310 q 580 344 582 342 q 576 349 578 347 q 524 413 547 383 q 500 451 501 443 q 500 451 500 451 q 500 453 500 451 q 500 453 500 453 q 500 453 500 453 q 506 460 501 457 q 515 464 510 463 q 522 467 518 465 q 528 469 525 468 l 581 490 q 598 495 589 492 q 615 503 607 499 q 718 562 668 526 q 800 635 768 597 q 833 680 821 657 q 844 722 844 703 q 844 731 844 726 q 843 738 844 735 q 728 884 818 839 q 531 935 638 929 q 523 935 526 935 q 517 936 519 935 q 509 936 513 936 q 503 936 506 936 q 487 935 494 936 q 471 935 479 935 q 445 931 458 933 q 417 925 432 928 l 417 926 z "},"S":{"ha":925,"x_min":46,"x_max":892,"o":"m 89 828 l 94 828 q 101 833 97 831 q 111 840 106 836 q 175 868 133 851 q 268 924 217 885 q 288 939 278 931 q 308 956 299 947 q 369 1005 340 982 q 424 1035 399 1028 q 434 1035 424 1035 q 463 1038 444 1036 q 501 1038 479 1038 q 547 1039 524 1039 q 558 1039 553 1039 q 567 1039 563 1039 q 607 1038 588 1039 q 644 1035 626 1036 q 656 1034 650 1035 q 668 1032 663 1033 q 670 1032 669 1032 q 672 1032 671 1032 q 798 1015 739 1026 q 885 964 857 1003 q 877 931 892 953 q 838 885 863 910 q 825 873 832 879 q 811 861 818 867 q 801 853 806 857 q 792 843 796 849 q 753 804 769 822 q 729 785 738 786 q 726 786 728 785 q 722 792 724 788 q 722 794 722 793 q 721 796 722 794 q 723 805 721 800 q 726 814 725 810 q 726 814 726 814 q 728 814 726 814 q 731 822 729 818 q 733 831 733 826 q 733 833 733 832 q 733 835 733 833 q 733 835 733 835 q 732 838 732 836 q 681 867 725 854 q 585 889 638 879 q 551 894 568 892 q 519 899 535 897 q 481 903 501 901 q 439 904 460 904 q 428 904 433 904 q 418 904 424 904 q 344 902 378 904 q 294 897 310 900 q 288 895 290 896 q 285 894 286 894 q 266 869 272 885 q 257 836 260 853 q 253 817 254 826 q 253 799 253 807 q 253 790 253 794 q 254 782 253 785 q 254 775 254 778 q 254 771 254 772 q 254 768 254 769 q 254 764 254 767 q 282 731 258 749 q 367 689 306 714 l 578 608 q 719 542 654 578 q 819 460 785 506 q 858 395 842 432 q 878 319 875 358 q 879 313 879 317 q 879 307 879 310 q 877 284 879 296 q 872 261 875 272 q 843 235 871 256 q 781 192 815 215 q 774 187 778 189 q 768 182 771 185 q 749 167 758 174 q 731 153 739 160 q 727 150 729 151 q 724 147 725 149 q 699 126 711 138 q 676 104 688 115 q 615 46 643 74 q 571 11 588 18 q 537 -1 553 3 q 506 -8 521 -6 q 469 -12 488 -11 q 431 -14 451 -12 q 422 -14 426 -14 q 414 -14 418 -14 q 411 -14 413 -14 q 410 -14 410 -14 q 407 -14 408 -14 q 404 -14 406 -14 q 356 -11 381 -14 q 308 -4 332 -8 q 207 21 256 4 q 121 56 158 38 q 70 84 90 69 q 47 108 50 99 q 47 110 47 110 q 47 111 47 111 q 46 113 46 113 q 46 114 46 114 q 51 129 46 122 q 63 142 56 136 q 65 144 64 143 q 67 146 65 146 q 72 151 69 149 q 76 156 74 153 l 169 251 q 174 256 172 253 q 179 261 176 258 q 183 266 181 264 q 186 269 185 268 q 199 278 193 275 q 208 274 204 281 q 210 270 210 272 q 210 265 210 268 q 207 260 208 263 q 203 254 206 257 q 198 247 200 250 q 196 239 196 243 q 196 239 196 239 q 196 238 196 239 q 210 217 196 229 q 250 194 225 206 q 325 165 282 179 q 413 143 368 151 q 465 135 439 138 q 515 132 492 132 q 615 138 568 132 q 692 164 661 144 q 697 177 694 167 q 699 204 699 188 q 697 234 699 218 q 692 268 696 250 q 678 309 686 289 q 656 343 669 329 q 619 374 643 357 q 517 422 596 390 l 203 553 q 200 552 201 551 q 197 554 199 553 q 133 586 163 568 q 92 626 103 604 q 81 667 85 643 q 76 715 78 690 q 75 724 75 719 q 75 732 75 728 q 79 790 75 764 q 89 826 83 817 l 89 828 z "},"T":{"ha":1274,"x_min":38,"x_max":1236,"o":"m 221 833 l 379 928 l 38 933 q 74 954 57 944 q 107 974 90 964 q 119 981 113 978 q 133 989 126 985 q 160 1003 146 996 q 190 1018 174 1010 q 286 1072 250 1047 q 335 1096 322 1096 q 339 1095 338 1096 q 342 1092 340 1094 q 339 1081 343 1088 q 328 1068 335 1075 q 322 1063 325 1065 q 314 1056 318 1060 q 308 1051 311 1054 q 301 1047 304 1049 l 281 1033 q 394 1024 343 1026 q 494 1019 444 1021 q 532 1019 513 1019 q 571 1018 551 1018 q 639 1016 604 1017 q 713 1014 674 1015 q 799 1012 758 1013 q 876 1011 840 1011 q 1062 1016 992 1011 q 1171 1028 1132 1021 q 1219 1039 1206 1033 q 1236 1044 1233 1044 q 1197 1020 1215 1032 q 1161 999 1179 1008 q 1107 974 1135 985 q 1044 956 1079 964 q 878 931 964 936 q 690 926 793 926 l 451 928 q 443 923 447 925 q 435 919 439 921 q 406 904 419 913 q 381 881 392 896 q 340 776 357 850 q 324 617 324 703 q 324 606 324 611 q 324 594 324 600 q 333 499 325 546 q 356 410 340 451 q 403 352 364 388 q 499 278 442 317 q 592 221 542 249 q 694 171 643 193 q 797 136 747 150 q 890 122 847 122 q 904 122 897 122 q 917 124 911 122 q 1003 145 964 129 q 1074 179 1043 161 q 1131 219 1108 201 q 1164 238 1154 236 q 1166 238 1165 238 q 1168 236 1167 238 q 1144 193 1181 228 q 1043 118 1107 158 q 968 74 1008 96 q 886 36 928 53 q 802 8 843 18 q 725 -1 761 -1 q 724 -1 725 -1 q 722 -1 724 -1 q 720 -1 721 -1 q 719 -1 719 -1 q 633 10 678 0 q 543 39 589 21 q 395 115 468 69 q 267 210 322 161 q 190 291 221 251 q 154 361 160 331 q 148 390 153 371 q 138 438 143 410 q 125 513 131 471 q 119 599 119 556 q 119 602 119 600 q 119 607 119 604 q 142 736 121 674 q 221 832 163 799 l 221 833 z "},"U":{"ha":1474,"x_min":42,"x_max":1439,"o":"m 297 564 l 296 560 q 300 526 297 543 q 307 494 303 510 q 429 306 338 397 q 625 161 521 215 q 728 117 676 133 q 822 101 779 101 q 825 101 824 101 q 828 101 826 101 q 831 101 829 101 q 833 101 832 101 q 924 119 889 104 q 978 150 958 133 q 1007 185 1000 169 q 1014 200 1014 200 l 1014 907 l 764 910 l 858 979 q 866 983 863 981 q 874 989 869 986 q 888 997 881 993 q 904 1004 896 1001 q 915 1007 910 1006 q 926 1010 921 1008 q 939 1012 932 1011 q 954 1013 946 1013 l 1207 1014 l 1210 811 l 1214 100 l 1439 92 l 1340 17 q 1337 13 1339 14 q 1332 10 1335 11 q 1320 3 1326 6 q 1306 -3 1314 0 q 1295 -6 1300 -4 q 1286 -7 1290 -7 q 1276 -7 1281 -7 q 1267 -7 1272 -7 q 1263 -7 1265 -7 q 1258 -7 1261 -7 l 1018 -3 l 1018 139 l 874 56 q 847 39 860 46 q 819 26 833 32 q 714 -13 767 0 q 613 -26 661 -26 q 592 -26 603 -26 q 571 -24 582 -25 q 479 13 538 -19 q 358 96 421 44 q 199 261 272 165 q 114 457 126 357 q 112 470 113 464 q 111 482 111 476 q 111 486 111 485 q 111 489 111 488 q 156 647 111 567 q 253 817 200 728 q 258 823 256 819 q 261 829 260 826 l 307 908 l 42 913 q 74 936 56 924 q 110 958 92 949 q 176 993 146 979 q 211 1008 207 1007 q 239 1013 221 1011 q 279 1014 257 1014 q 312 1013 294 1014 q 347 1013 329 1013 q 386 1010 367 1011 q 424 1007 406 1008 q 472 1002 451 1004 q 493 1000 492 1000 q 460 950 490 999 q 396 835 431 901 q 375 797 385 817 q 356 757 365 776 q 315 653 332 704 q 297 568 297 603 q 297 567 297 568 q 297 565 297 567 q 297 563 297 564 q 297 563 297 563 l 297 564 z "},"V":{"ha":1331,"x_min":32,"x_max":1290,"o":"m 846 236 l 843 233 q 810 188 828 211 q 775 140 793 165 q 772 135 774 138 q 768 131 769 133 q 685 24 724 71 q 631 -24 646 -22 q 628 -24 629 -24 q 626 -22 628 -24 q 624 -20 625 -21 q 621 -18 622 -19 q 620 -18 621 -18 q 619 -17 619 -18 q 613 -12 615 -15 q 607 -6 610 -10 l 567 76 l 221 788 q 215 797 218 792 q 210 808 213 803 q 185 849 199 831 q 147 874 172 867 q 144 874 146 874 q 142 875 143 875 q 139 875 140 875 q 136 875 138 875 q 126 874 131 875 q 115 871 121 872 q 99 864 107 868 q 85 856 92 860 q 54 839 68 846 q 35 840 40 832 q 33 842 33 842 q 33 844 33 843 q 49 865 32 853 q 89 889 67 876 q 96 894 92 892 q 104 899 100 896 q 115 906 110 903 q 124 913 119 910 q 144 929 133 921 q 164 946 154 938 q 226 995 196 972 q 282 1018 256 1018 q 282 1018 282 1018 q 283 1018 282 1018 q 283 1018 283 1018 q 283 1018 283 1018 q 343 988 321 1018 q 383 921 365 957 q 384 919 383 919 q 385 917 385 918 l 399 890 l 740 179 q 797 259 772 222 q 843 331 822 296 q 858 355 851 343 q 872 378 865 367 q 904 435 888 406 q 939 499 921 464 q 991 599 968 553 q 1033 689 1014 644 q 1056 740 1046 714 q 1078 793 1067 767 q 1100 851 1089 821 q 1124 917 1111 882 l 782 933 l 915 1011 q 921 1013 918 1011 q 926 1014 924 1014 q 938 1018 932 1017 q 949 1021 943 1019 q 964 1024 957 1024 q 976 1024 971 1024 q 987 1024 982 1025 q 996 1024 992 1024 q 1001 1024 999 1024 q 1007 1024 1004 1024 l 1290 1025 q 1204 840 1276 989 q 1032 519 1132 690 q 941 372 988 444 q 846 235 894 299 l 846 236 z "},"W":{"ha":2146,"x_min":36,"x_max":2114,"o":"m 1046 103 l 997 146 l 860 72 q 830 54 853 67 q 775 28 807 42 q 717 6 749 17 q 654 -10 686 -4 q 629 -14 642 -12 q 604 -15 617 -15 q 600 -15 603 -15 q 596 -15 597 -15 q 591 -14 593 -14 q 586 -14 589 -14 q 458 19 513 -7 q 354 96 404 44 q 349 99 351 97 q 346 104 347 101 l 185 275 q 179 279 182 276 q 174 286 176 282 q 115 382 142 324 q 89 507 89 440 q 103 590 89 550 q 133 664 117 631 q 147 688 140 676 q 160 710 154 700 l 289 925 q 256 928 272 926 q 222 931 239 931 q 206 932 214 932 q 189 932 197 932 q 165 932 178 932 q 139 931 153 932 q 113 928 125 929 q 88 924 100 926 q 63 919 75 922 q 36 913 51 917 q 54 932 42 919 q 83 957 67 944 q 101 972 92 965 q 121 986 111 979 q 124 987 122 986 q 126 989 125 988 q 146 1002 138 996 q 163 1013 154 1008 q 188 1024 174 1019 q 224 1028 201 1028 l 440 1029 q 442 1028 442 1028 q 444 1028 443 1028 q 445 1028 444 1028 q 447 1028 446 1028 q 458 1027 453 1028 q 465 1021 463 1026 q 466 1009 469 1015 q 457 996 463 1003 q 453 992 456 994 q 450 986 451 989 l 367 838 q 347 797 357 818 q 328 756 336 776 q 292 657 306 704 q 276 590 278 610 q 276 584 276 588 q 276 578 276 581 q 292 476 276 521 q 343 388 308 431 q 352 378 347 383 q 361 368 357 374 l 469 253 q 520 203 493 225 q 575 165 547 182 q 671 118 625 135 q 744 100 717 101 q 753 100 749 100 q 761 100 757 100 q 810 104 785 100 q 861 118 835 108 q 881 126 871 121 q 901 136 892 131 l 964 174 l 847 315 q 827 339 836 326 q 810 364 818 351 q 776 435 788 399 q 763 518 764 471 q 771 583 763 554 q 792 639 779 611 q 815 682 803 660 q 842 729 828 704 l 949 929 q 935 928 942 928 q 922 929 929 928 q 910 929 917 929 q 899 929 904 929 q 888 929 893 929 q 878 929 883 929 q 847 929 863 929 q 813 931 832 929 q 799 931 806 931 q 785 931 792 931 q 778 931 781 931 q 771 931 775 931 q 752 931 761 931 q 735 931 743 931 q 694 928 715 929 q 649 926 674 928 l 764 996 q 777 1001 771 999 q 789 1007 783 1004 q 807 1014 797 1011 q 828 1019 817 1017 q 842 1022 836 1021 q 856 1025 849 1024 q 869 1026 863 1025 q 883 1026 875 1026 l 1146 1028 l 1039 840 q 1035 833 1038 836 q 1032 826 1033 829 q 1005 784 1018 804 q 982 744 992 764 q 955 685 965 715 q 944 619 944 656 q 944 614 944 617 q 946 608 944 611 q 946 603 946 606 q 946 597 946 600 q 955 540 949 565 q 974 490 961 515 q 985 470 979 481 q 1000 449 992 460 l 1082 343 q 1167 250 1119 292 q 1265 178 1215 208 q 1351 138 1308 153 q 1429 124 1393 124 q 1431 124 1431 124 q 1433 124 1432 124 q 1522 134 1483 125 q 1599 164 1561 143 q 1627 182 1613 172 q 1657 203 1642 192 l 1657 221 l 1657 932 q 1629 931 1642 931 q 1604 932 1617 932 q 1576 933 1590 933 q 1546 933 1563 933 q 1516 933 1532 933 q 1483 932 1500 932 q 1458 931 1471 932 q 1432 931 1444 931 q 1387 928 1406 929 q 1368 926 1368 926 l 1521 1010 q 1529 1013 1525 1011 q 1538 1015 1533 1014 q 1547 1019 1542 1018 q 1560 1022 1553 1021 q 1565 1024 1563 1024 q 1571 1025 1568 1024 q 1582 1026 1576 1025 q 1593 1026 1588 1026 l 1850 1028 l 1850 829 l 1850 118 l 2114 119 l 1989 42 q 1976 33 1982 36 q 1964 26 1969 29 q 1946 19 1956 22 q 1925 13 1936 15 q 1909 10 1917 11 q 1894 7 1901 8 q 1878 6 1886 6 q 1863 6 1871 6 l 1656 1 l 1654 158 l 1488 64 q 1441 37 1463 49 q 1397 15 1419 25 q 1344 -3 1371 3 q 1286 -10 1318 -10 q 1281 -10 1283 -10 q 1275 -10 1278 -10 q 1268 -8 1271 -8 q 1263 -8 1265 -8 q 1181 9 1217 -6 q 1114 47 1146 24 q 1081 73 1097 60 q 1046 101 1064 86 l 1046 103 z "},"X":{"ha":1606,"x_min":-26,"x_max":1571,"o":"m 596 594 l 325 938 l 39 938 l 176 1014 q 186 1017 182 1015 q 194 1022 190 1019 q 206 1027 200 1025 q 219 1031 213 1029 q 230 1033 225 1032 q 239 1036 235 1035 q 248 1037 243 1036 q 258 1038 253 1038 l 496 1039 l 726 753 l 833 860 q 863 886 843 868 q 910 922 883 904 q 947 949 928 936 q 988 972 967 963 q 1060 1008 1026 993 q 1128 1033 1094 1024 q 1188 1047 1158 1042 q 1253 1051 1218 1051 q 1329 1047 1289 1051 q 1418 1031 1369 1042 l 1231 944 q 1222 944 1229 943 q 1201 947 1214 946 q 1169 951 1188 950 q 1129 953 1150 953 q 1085 951 1107 953 q 1044 942 1063 949 q 997 917 1015 932 q 960 882 978 901 q 941 860 951 871 q 919 836 931 849 l 782 688 q 831 620 808 650 q 875 563 853 590 q 878 558 876 561 q 882 553 881 556 q 927 495 904 525 q 978 431 950 465 q 1044 347 1014 385 q 1103 275 1074 310 q 1109 267 1106 271 q 1117 258 1113 263 q 1178 184 1146 222 q 1249 101 1210 146 q 1284 99 1268 100 q 1317 99 1300 99 q 1348 97 1332 97 q 1383 97 1364 97 q 1434 98 1411 97 q 1479 100 1457 99 q 1523 103 1501 101 q 1571 107 1544 104 q 1545 90 1557 97 q 1522 75 1533 82 q 1503 65 1513 69 q 1485 56 1494 60 q 1469 48 1476 51 q 1451 40 1461 44 q 1417 25 1433 32 q 1386 11 1401 18 q 1346 0 1367 4 q 1300 -4 1325 -4 l 1099 -4 q 1043 51 1097 -3 q 833 299 989 106 q 783 360 806 332 q 739 415 761 389 q 736 419 738 418 q 733 424 735 421 q 691 476 713 449 q 644 538 669 504 l 193 54 q 171 31 190 50 q 126 -10 151 11 q 113 -22 119 -17 q 99 -33 106 -28 q 88 -42 93 -37 q 76 -50 82 -46 q 60 -62 68 -57 q 43 -71 51 -67 q 18 -82 31 -76 q -8 -92 6 -87 q -17 -94 -12 -93 q -26 -97 -22 -96 q -7 -81 -15 -89 q 11 -67 1 -74 q 16 -63 14 -65 q 21 -58 18 -61 q 41 -41 31 -50 q 63 -22 51 -32 q 78 -8 69 -15 q 94 4 86 -1 q 97 7 96 6 q 100 10 99 8 q 143 50 124 32 q 165 72 163 68 l 596 594 l 596 594 z "},"Y":{"ha":1303,"x_min":28,"x_max":1206,"o":"m 249 792 l 322 919 l 28 924 l 165 1003 q 175 1006 171 1004 q 185 1010 179 1008 q 200 1016 192 1014 q 218 1019 208 1018 q 232 1022 225 1021 q 244 1022 239 1022 q 249 1022 247 1022 q 254 1022 251 1022 q 263 1022 258 1022 q 274 1021 268 1022 l 497 1011 l 340 711 q 328 683 333 696 q 318 657 322 669 q 310 624 314 640 q 306 586 307 607 q 306 580 306 583 q 306 574 306 576 q 316 510 306 543 q 344 443 326 476 q 456 302 386 371 q 603 183 526 233 q 717 124 661 146 q 815 101 772 101 q 860 103 840 101 q 900 113 881 106 q 924 121 911 115 q 949 133 936 126 l 1015 172 l 1015 210 l 1015 921 l 736 921 l 861 999 q 866 1000 864 999 q 871 1004 868 1001 q 874 1006 872 1006 q 878 1008 876 1007 q 887 1015 882 1013 q 899 1021 892 1018 q 908 1024 903 1022 q 917 1026 913 1025 q 929 1028 922 1028 q 943 1029 936 1029 l 1204 1031 l 1204 807 l 1204 96 q 1204 81 1204 88 q 1206 68 1204 75 q 1206 56 1206 63 q 1206 43 1206 50 q 1201 6 1206 24 q 1181 -31 1196 -12 q 1139 -65 1174 -37 q 1060 -124 1104 -93 q 1051 -131 1056 -128 q 1042 -137 1046 -135 q 1013 -158 1026 -147 q 985 -176 999 -168 q 932 -215 956 -196 q 885 -250 908 -233 q 818 -292 853 -274 q 736 -319 783 -310 q 733 -319 735 -319 q 731 -321 732 -319 q 728 -321 729 -321 q 725 -321 726 -321 q 631 -304 694 -321 q 494 -264 567 -287 q 447 -248 471 -257 q 401 -231 424 -239 q 391 -227 396 -229 q 382 -224 386 -225 q 338 -206 361 -215 q 292 -189 315 -197 q 245 -169 268 -179 q 201 -151 222 -160 q 122 -110 154 -131 q 86 -71 89 -89 q 86 -71 86 -71 q 86 -71 86 -71 q 86 -69 86 -69 q 86 -69 86 -69 q 116 -26 85 -53 q 188 29 147 0 q 198 37 193 33 q 207 43 203 40 q 233 62 221 53 q 258 79 246 71 q 264 83 261 81 q 269 88 267 86 q 275 92 272 90 q 281 96 278 93 q 292 101 286 99 q 303 104 297 104 q 306 104 304 104 q 308 103 307 104 q 310 102 308 103 q 313 100 311 101 q 316 91 317 96 q 311 82 315 86 q 304 76 308 79 q 296 69 300 74 q 283 57 289 64 q 276 42 276 50 q 294 12 278 21 q 329 -4 310 3 q 330 -4 329 -4 q 331 -4 331 -4 q 338 -7 335 -6 q 346 -10 342 -8 l 557 -93 q 596 -106 563 -94 q 678 -132 629 -118 q 726 -145 700 -139 q 776 -157 751 -151 q 839 -167 808 -162 q 896 -171 869 -171 q 920 -170 908 -171 q 942 -167 932 -169 q 997 -123 981 -158 q 1014 -47 1013 -87 q 1015 -35 1015 -42 q 1015 -24 1015 -29 l 1015 129 l 794 13 q 760 -5 776 1 q 728 -17 744 -11 q 679 -30 704 -25 q 624 -39 654 -35 q 621 -39 622 -39 q 618 -40 619 -39 q 614 -40 615 -40 q 611 -40 613 -40 q 515 -8 571 -40 q 399 78 458 25 q 319 156 358 114 q 244 242 279 199 q 151 377 188 313 q 115 482 115 442 q 115 490 115 486 q 117 496 115 493 q 143 590 128 549 q 178 669 158 631 q 210 727 193 697 q 249 790 228 757 l 249 792 z "},"Z":{"ha":1304,"x_min":35,"x_max":1265,"o":"m 856 936 l 850 940 l 139 961 q 156 966 147 963 q 172 972 164 969 q 184 978 178 975 q 196 983 190 981 q 221 994 208 989 q 247 1007 233 1000 q 268 1017 258 1013 q 286 1026 278 1021 q 294 1030 290 1028 q 301 1033 297 1032 q 324 1046 313 1039 q 349 1060 335 1053 q 474 1052 417 1056 q 585 1046 531 1049 q 698 1041 640 1043 q 825 1038 756 1039 q 909 1035 871 1036 q 985 1035 947 1035 q 1059 1035 1021 1035 q 1143 1035 1097 1035 q 1094 965 1117 997 q 1050 904 1072 933 q 1037 888 1043 896 q 1024 871 1031 879 q 974 806 1000 839 q 915 736 947 774 q 831 641 871 683 q 751 561 790 599 q 738 548 744 554 q 725 535 732 542 q 641 453 685 496 q 549 358 597 411 q 495 300 519 326 q 447 247 471 274 q 445 246 446 247 q 443 243 444 244 q 396 191 419 218 q 343 132 372 164 l 546 110 q 749 88 654 96 q 933 81 844 81 q 1020 83 978 81 q 1104 89 1063 85 q 1153 100 1131 92 q 1196 118 1176 108 q 1241 142 1224 132 q 1263 147 1258 153 q 1263 147 1263 147 q 1264 144 1264 146 q 1265 142 1264 143 q 1265 142 1265 142 q 1253 119 1265 132 q 1221 94 1240 107 q 1203 83 1213 89 q 1186 72 1194 78 q 1165 60 1175 65 q 1144 49 1154 54 q 1093 24 1118 35 q 1044 6 1068 13 q 935 -15 990 -10 q 813 -21 879 -19 q 656 -16 726 -21 q 517 -4 585 -11 q 503 -2 510 -3 q 490 -1 497 -1 q 367 10 431 4 q 226 17 303 15 q 188 17 206 17 q 153 18 169 18 q 121 19 138 19 q 86 19 104 19 q 78 19 82 19 q 68 21 74 19 q 44 31 54 22 q 53 64 35 40 q 98 119 76 93 q 140 169 119 144 q 151 182 146 175 q 163 194 157 189 q 217 255 189 225 q 276 321 244 285 q 394 445 339 390 q 504 553 450 500 q 510 558 507 556 q 517 565 514 561 q 626 673 571 617 q 742 800 681 729 q 772 834 758 818 q 797 865 785 850 q 799 867 799 865 q 801 869 800 868 q 827 900 814 885 q 856 935 840 915 l 856 936 z "},"[":{"ha":386,"x_min":57,"x_max":358,"o":"m 58 -110 l 67 -61 q 72 80 72 -18 q 72 294 72 178 q 71 344 71 319 q 71 393 71 368 q 71 463 71 428 q 71 532 71 499 q 71 607 71 568 q 71 685 71 646 q 67 940 69 821 q 61 1093 64 1060 l 57 1128 l 79 1128 q 101 1125 86 1126 q 133 1122 115 1124 q 149 1120 140 1121 q 165 1119 157 1119 q 178 1119 172 1119 q 192 1118 185 1118 q 199 1118 196 1118 q 207 1118 203 1118 q 215 1117 211 1117 q 222 1117 218 1117 q 256 1117 239 1117 q 288 1119 272 1118 q 313 1120 301 1119 q 329 1121 324 1121 l 356 1122 l 356 1076 l 325 1076 q 313 1075 321 1075 q 296 1075 306 1075 q 280 1075 289 1075 q 263 1074 271 1075 q 231 1068 246 1072 q 207 1054 215 1064 q 194 1030 196 1043 q 192 1001 192 1017 q 192 999 192 1000 q 192 996 192 997 l 193 735 l 194 24 q 198 -10 194 4 q 214 -39 201 -25 q 241 -53 224 -49 q 278 -58 258 -57 q 286 -58 282 -58 q 294 -58 290 -58 q 308 -58 301 -58 q 321 -58 315 -58 q 331 -57 326 -57 q 338 -57 335 -57 l 357 -57 l 358 -106 l 332 -106 q 315 -105 326 -106 q 288 -104 303 -104 q 260 -103 275 -104 q 231 -103 244 -103 q 225 -103 228 -103 q 219 -103 222 -103 q 208 -103 214 -103 q 194 -103 201 -103 q 181 -103 188 -103 q 168 -104 175 -104 q 152 -105 160 -104 q 138 -106 144 -106 q 105 -108 119 -107 q 82 -110 90 -110 l 58 -110 l 58 -110 z "},"\\":{"ha":888,"x_min":40,"x_max":856,"o":"m 728 114 l 729 115 q 708 135 718 125 q 689 156 697 146 q 681 164 685 160 q 674 172 676 168 q 656 192 665 182 q 638 215 647 203 l 561 319 l 40 1031 q 65 1015 54 1022 q 88 1001 76 1008 q 93 999 90 1000 q 99 996 96 997 q 124 980 111 988 q 151 963 136 972 q 176 947 164 954 q 200 935 189 940 q 235 912 218 924 q 269 882 253 900 q 342 775 285 865 q 467 582 400 685 q 508 516 488 549 q 549 453 529 483 q 616 354 586 397 q 674 271 646 311 q 675 269 674 269 q 676 267 676 268 q 756 151 714 213 q 856 -1 797 90 q 827 20 840 10 q 803 40 814 31 q 792 51 797 46 q 781 61 786 56 q 755 85 768 72 q 728 113 742 97 l 728 114 z "},"]":{"ha":369,"x_min":29,"x_max":333,"o":"m 324 -67 l 326 -115 l 303 -115 q 281 -114 296 -115 q 249 -111 267 -112 q 233 -110 240 -111 q 217 -110 225 -110 q 205 -109 211 -110 q 192 -108 199 -108 q 181 -108 186 -108 q 171 -108 176 -108 q 162 -108 167 -108 q 153 -108 157 -108 q 126 -109 139 -108 q 101 -110 113 -110 q 74 -110 86 -110 q 56 -111 61 -111 l 29 -111 l 32 -62 l 50 -62 q 58 -62 53 -62 q 68 -64 63 -62 q 80 -64 74 -64 q 93 -64 86 -64 q 101 -64 97 -64 q 110 -64 106 -64 q 148 -59 129 -62 q 176 -44 167 -56 q 181 -40 179 -42 q 183 -35 182 -37 q 193 -10 192 -22 q 194 17 194 1 l 196 281 l 197 992 q 197 993 197 992 q 197 996 197 994 q 196 1024 197 1011 q 183 1049 194 1038 q 158 1063 174 1058 q 124 1068 142 1067 q 110 1069 117 1069 q 96 1069 103 1069 q 78 1069 86 1069 q 65 1069 71 1069 l 35 1071 l 35 1117 l 61 1117 q 84 1115 68 1115 q 121 1113 100 1114 q 142 1112 131 1113 q 164 1111 153 1111 q 172 1111 168 1111 q 181 1113 176 1111 q 189 1113 185 1113 q 197 1113 193 1113 q 210 1113 204 1113 q 224 1114 217 1114 q 240 1115 232 1114 q 256 1117 249 1115 q 288 1119 274 1118 q 310 1121 303 1121 l 333 1122 l 329 1089 q 324 935 326 1054 q 319 679 321 815 q 319 601 319 640 q 319 526 319 563 q 319 458 319 493 q 319 388 319 422 q 319 338 319 363 q 318 289 318 314 q 317 74 317 172 q 324 -67 317 -24 l 324 -67 z "},"^":{"ha":879,"x_min":-18,"x_max":943,"o":"m 358 996 l 503 1025 q 508 1024 506 1024 q 513 1025 511 1025 q 518 1026 515 1026 q 524 1028 521 1026 q 526 1028 525 1028 q 529 1028 528 1028 q 533 1028 532 1028 q 538 1026 535 1028 q 541 1026 539 1026 q 544 1025 543 1025 q 584 1000 556 1021 q 647 956 613 979 q 655 950 651 953 q 663 944 658 947 q 681 931 672 938 q 700 919 690 925 q 761 881 733 899 q 817 847 789 864 q 828 840 822 843 q 840 833 833 836 q 889 805 864 819 q 943 775 914 790 q 933 775 940 775 q 915 775 926 775 q 851 776 890 775 q 768 783 811 778 q 726 790 747 786 q 685 800 704 794 q 676 803 681 801 q 668 806 672 804 q 639 815 653 810 q 613 825 625 819 q 583 839 597 832 q 550 854 568 846 l 406 931 l 293 858 q 283 851 288 854 q 274 844 279 847 q 260 837 267 840 q 244 831 253 833 q 226 824 235 826 q 210 819 218 821 q 196 815 203 817 q 182 813 189 814 q 176 811 179 811 q 168 810 172 811 l 49 789 q 38 786 43 788 q 28 783 33 785 q 24 783 26 783 q 21 782 22 783 q 3 778 11 781 q -11 776 -6 776 q -15 776 -14 776 q -17 778 -17 776 q -17 778 -17 778 q -18 779 -17 779 q -18 781 -18 781 q -18 781 -18 781 q -16 787 -18 783 q -10 794 -14 790 q -3 801 -7 797 q 7 808 1 806 q 13 812 10 810 q 18 815 15 814 l 246 953 q 256 957 251 954 q 265 963 261 960 q 278 969 272 967 q 292 975 285 972 q 308 981 300 978 q 322 986 315 983 q 339 991 331 989 q 358 994 347 993 l 358 996 z "},"_":{"ha":964,"x_min":-11,"x_max":1003,"o":"m -11 -235 l -11 -212 l 292 -212 l 1003 -212 l 1003 -235 l 700 -235 l -11 -235 l -11 -235 z "},"`":{"ha":636,"x_min":33,"x_max":607,"o":"m 350 851 l 351 851 q 343 853 347 851 q 335 856 339 854 q 306 865 319 860 q 279 875 292 869 q 249 889 264 882 q 217 904 235 896 l 64 985 q 61 985 63 985 q 58 986 60 986 q 41 999 49 992 q 33 1014 33 1006 q 39 1022 33 1018 q 53 1028 44 1025 q 67 1033 60 1031 q 82 1038 74 1035 l 169 1068 q 173 1067 171 1067 q 176 1069 175 1068 q 188 1074 182 1072 q 200 1076 194 1076 q 203 1076 201 1076 q 206 1076 204 1076 q 207 1076 206 1076 q 210 1075 208 1075 q 249 1050 221 1071 q 311 1006 278 1029 q 318 1001 315 1003 q 324 997 321 999 q 344 983 333 989 q 364 969 354 976 q 425 931 397 949 q 481 897 453 914 q 492 890 486 893 q 504 883 497 886 q 553 855 528 869 q 607 825 578 840 q 597 825 604 825 q 579 825 590 825 q 515 826 554 825 q 436 833 476 828 q 392 840 414 836 q 350 850 369 844 l 350 851 z "},"a":{"ha":1393,"x_min":-133,"x_max":1479,"o":"m -133 -194 l -133 -197 q -94 -163 -111 -179 q -62 -131 -78 -147 q -40 -108 -51 -119 q -19 -85 -29 -96 q 10 -48 -4 -67 q 40 -7 24 -29 q 64 24 54 10 q 82 53 74 39 q 85 58 83 56 q 89 64 86 61 q 115 109 100 83 q 153 176 129 135 l 256 353 l 168 353 l 293 411 l 579 901 q 546 902 561 901 q 515 904 531 903 q 503 904 510 904 q 490 904 497 904 q 474 904 482 904 q 456 904 465 904 q 420 903 436 904 q 389 900 404 901 q 360 898 375 900 q 329 894 346 896 q 342 907 336 901 q 353 918 347 913 q 367 931 360 925 q 383 943 375 938 q 398 952 390 947 q 415 963 406 957 q 440 977 429 971 q 463 989 451 983 q 505 1003 482 999 q 571 1007 528 1007 l 760 1006 l 856 822 l 1221 111 l 1342 111 q 1364 110 1354 110 q 1383 110 1374 110 q 1401 112 1392 111 q 1419 114 1410 113 q 1435 117 1428 115 q 1450 121 1442 118 q 1464 124 1457 122 q 1479 129 1471 126 q 1443 94 1463 110 q 1403 64 1424 78 q 1347 31 1374 44 q 1303 10 1319 18 q 1260 0 1288 3 q 1201 -3 1233 -3 q 1194 -3 1197 -3 q 1186 -3 1190 -3 q 1139 -1 1163 -3 q 1097 1 1115 0 q 1069 4 1081 3 q 1057 6 1058 6 l 871 356 l 360 363 l 207 117 q 190 88 199 101 q 171 61 181 75 q 128 8 151 35 q 75 -46 104 -18 q 38 -79 56 -64 q 4 -108 21 -94 q -36 -140 -15 -125 q -82 -168 -57 -154 q -106 -181 -93 -174 q -132 -194 -118 -187 l -133 -194 m 410 438 l 832 436 l 639 803 l 410 438 l 410 438 z "},"b":{"ha":1129,"x_min":35,"x_max":1089,"o":"m 263 63 l 261 228 l 256 939 l 35 935 l 217 1038 l 682 1044 q 708 1042 694 1043 q 733 1040 721 1042 q 908 985 828 1032 q 994 853 989 938 q 994 850 994 851 q 994 847 994 849 q 994 844 994 846 q 994 842 994 843 q 940 719 994 767 q 814 643 886 672 l 753 619 l 814 607 q 999 528 917 585 q 1088 374 1082 472 q 1088 370 1088 372 q 1088 367 1088 368 q 1088 363 1088 364 q 1088 358 1088 361 q 934 126 1089 213 q 593 11 779 39 q 513 3 553 6 q 433 0 472 0 q 418 0 425 0 q 404 0 411 0 q 284 5 306 -1 q 263 61 263 11 l 263 63 m 500 532 l 443 535 l 443 138 q 443 135 443 136 q 443 133 443 135 q 443 133 443 133 q 443 132 443 132 q 443 124 443 129 q 444 115 443 119 q 447 105 446 110 q 451 97 449 100 q 473 86 460 88 q 501 85 486 85 q 501 85 501 85 q 503 85 501 85 q 506 85 504 85 q 510 85 508 85 l 664 86 q 675 85 669 85 q 686 86 681 85 q 835 142 767 92 q 903 264 903 192 q 903 269 903 267 q 903 272 903 271 q 788 460 894 404 q 554 526 681 515 q 527 529 540 528 q 500 531 514 531 l 500 532 m 443 613 l 558 611 q 578 610 568 610 q 599 611 589 611 q 738 649 674 617 q 811 756 803 681 q 811 759 811 757 q 813 763 811 761 q 813 766 813 764 q 813 769 813 768 q 749 879 813 840 q 607 929 685 918 q 577 932 592 931 q 547 933 563 933 l 443 935 l 443 613 l 443 613 z "},"c":{"ha":1207,"x_min":39,"x_max":1175,"o":"m 1086 179 l 1081 178 l 1108 193 l 1106 172 l 982 94 q 825 19 901 42 q 675 -4 749 -4 q 603 1 639 -4 q 531 17 567 6 q 434 53 482 31 q 336 106 386 76 q 125 288 211 182 q 39 517 39 393 q 39 527 39 522 q 39 538 39 532 q 40 547 39 542 q 40 557 40 551 q 76 710 49 636 q 133 829 103 783 q 144 844 139 838 q 156 857 150 851 q 197 869 157 860 q 282 892 236 878 q 322 906 303 899 q 357 919 340 913 q 377 929 367 924 q 399 940 388 935 q 419 953 408 947 q 439 967 429 960 q 500 1008 474 989 q 533 1028 526 1028 q 588 1033 558 1031 q 649 1035 618 1035 q 720 1033 683 1035 q 794 1028 757 1031 q 1047 988 931 1015 q 1174 929 1163 960 q 1175 927 1175 928 q 1175 925 1175 926 q 1175 922 1175 924 q 1175 918 1175 919 q 1170 894 1175 904 q 1157 872 1165 883 l 1061 757 q 1056 748 1058 751 q 1049 740 1053 744 q 1045 735 1047 738 q 1042 729 1043 732 q 1026 714 1033 719 q 1013 713 1018 708 q 1013 722 1011 714 q 1019 740 1015 729 q 1022 751 1021 744 q 1025 763 1024 757 q 1026 770 1025 767 q 1026 778 1026 774 q 1026 783 1026 781 q 1026 786 1026 785 q 978 842 1019 819 q 886 878 936 865 q 855 885 871 882 q 824 889 839 888 l 590 915 q 556 917 574 917 q 521 918 539 918 q 518 918 519 918 q 515 918 517 918 q 405 906 457 918 q 336 867 353 893 q 264 713 286 785 q 242 581 242 642 q 326 361 242 450 q 533 215 411 272 l 696 142 q 736 124 717 131 q 775 111 756 117 q 813 105 793 107 q 853 103 832 103 q 861 103 857 103 q 869 104 865 103 q 876 104 872 104 q 885 104 881 104 q 949 115 921 107 q 1004 135 978 122 q 1044 155 1024 144 q 1086 178 1064 165 l 1086 179 z "},"d":{"ha":1275,"x_min":39,"x_max":1240,"o":"m 96 1069 l 217 1167 q 223 1171 219 1168 q 229 1176 226 1174 q 233 1179 231 1178 q 236 1183 235 1181 q 247 1190 242 1188 q 256 1193 251 1193 q 260 1192 258 1193 q 264 1190 263 1192 q 267 1175 272 1185 q 251 1156 261 1165 q 249 1153 250 1154 q 247 1151 249 1153 q 232 1135 239 1143 q 226 1121 225 1126 q 242 1113 228 1117 q 272 1106 256 1108 q 284 1103 278 1104 q 296 1101 290 1103 l 919 1003 q 1142 906 1049 981 q 1238 675 1236 832 q 1217 392 1240 511 q 1076 207 1193 272 l 782 42 q 700 8 742 18 q 617 -3 658 -3 q 441 40 528 -3 q 276 150 354 82 q 175 288 213 207 q 126 457 138 369 q 123 490 124 474 q 122 524 122 507 q 152 696 121 615 q 246 819 183 776 l 413 938 l 96 990 q 87 991 92 990 q 78 992 82 992 q 51 999 63 994 q 39 1013 40 1004 q 48 1028 39 1018 q 69 1047 57 1038 q 74 1051 71 1049 q 79 1056 76 1053 q 88 1062 83 1058 q 96 1068 92 1065 l 96 1069 m 453 932 l 417 904 q 347 778 375 864 q 319 592 319 692 q 319 573 319 582 q 321 554 319 564 q 352 401 325 475 q 436 276 379 328 q 453 263 444 269 q 471 249 461 256 q 594 178 522 211 q 744 136 667 144 q 766 134 756 135 q 788 133 776 133 q 877 146 833 133 q 958 189 921 158 q 976 214 965 194 q 997 264 986 233 q 1029 378 1014 311 q 1047 517 1044 446 q 1047 528 1047 522 q 1047 539 1047 533 q 1031 670 1047 607 q 971 778 1014 733 q 882 840 932 818 q 768 872 832 861 l 453 932 l 453 932 z "},"e":{"ha":1165,"x_min":44,"x_max":1126,"o":"m 133 865 l 131 864 q 176 880 138 868 q 260 908 215 892 q 293 921 276 914 q 325 935 310 928 q 356 953 340 943 q 385 972 371 963 q 437 1009 413 992 q 481 1028 461 1026 q 492 1029 486 1029 q 506 1029 499 1029 q 545 1028 524 1029 q 590 1024 567 1026 q 601 1022 596 1022 q 613 1021 607 1021 l 929 989 q 964 983 935 988 q 1028 969 993 979 q 1094 944 1064 960 q 1126 906 1125 929 q 1126 906 1126 906 q 1126 904 1126 906 q 1122 885 1126 894 q 1108 865 1117 875 q 1094 849 1103 857 q 1078 832 1086 840 q 1065 818 1071 825 q 1053 804 1058 811 q 1033 777 1042 789 q 1014 753 1024 765 q 1013 750 1014 751 q 1011 749 1011 749 q 992 724 1001 736 q 971 697 982 711 q 979 724 976 711 q 982 749 982 736 q 977 784 982 767 q 961 819 972 801 q 904 865 940 856 q 828 878 868 875 q 814 879 821 879 q 800 881 807 879 l 513 914 q 464 917 488 915 q 417 919 440 919 q 367 916 390 919 q 319 903 343 913 q 267 829 290 890 q 235 697 244 768 q 231 664 232 681 q 229 632 229 647 l 226 564 l 831 543 q 853 542 842 542 q 874 542 864 542 q 890 542 882 542 q 906 542 897 542 q 938 544 921 542 q 974 549 954 546 q 997 553 986 551 q 1018 557 1008 556 q 1040 563 1029 560 q 1063 569 1050 565 l 1065 558 q 1039 544 1056 553 q 1001 526 1022 535 q 966 511 985 518 q 928 499 947 504 q 922 498 925 499 q 915 496 918 497 q 758 474 840 479 q 576 467 675 468 l 268 464 q 312 406 283 439 q 376 336 340 372 q 438 282 406 308 q 506 233 471 256 q 567 197 538 214 q 628 165 597 179 q 715 133 671 144 q 807 121 758 121 q 847 123 826 121 q 890 129 868 125 q 915 136 901 132 q 940 146 928 140 q 960 156 950 151 q 981 167 971 161 q 1033 197 1011 183 q 1056 204 1056 210 q 1051 192 1056 199 q 1040 178 1047 185 q 1028 167 1035 172 q 1014 157 1021 161 q 1010 154 1013 156 q 1006 151 1008 153 l 835 46 q 805 28 819 35 q 776 17 790 21 q 721 3 749 7 q 657 -3 693 -1 q 649 -3 653 -3 q 640 -3 644 -3 q 563 5 604 -3 q 481 31 522 13 q 417 62 449 43 q 357 104 386 81 l 194 238 q 81 373 117 299 q 44 544 44 447 q 44 567 44 556 q 46 589 44 578 q 49 624 47 606 q 56 658 51 642 q 87 781 67 724 q 128 860 107 838 q 131 862 129 861 q 133 864 132 863 l 133 865 z "},"f":{"ha":994,"x_min":18,"x_max":957,"o":"m 204 21 l 203 225 l 201 936 l 40 940 l 186 1022 q 192 1024 189 1022 q 199 1026 196 1025 q 210 1031 204 1029 q 224 1035 217 1033 q 240 1038 232 1036 q 254 1040 247 1039 q 272 1041 264 1040 q 292 1042 281 1042 l 957 1043 q 940 1029 947 1035 q 924 1019 932 1024 q 917 1015 921 1017 q 911 1011 914 1013 q 897 1002 904 1007 q 881 993 889 997 q 862 983 871 988 q 844 972 853 978 q 822 963 833 967 q 797 954 811 958 q 781 951 789 953 q 767 949 774 950 q 748 948 757 949 q 728 947 739 947 l 390 949 l 390 492 l 597 483 q 619 481 608 482 q 640 481 631 481 q 663 479 651 479 q 686 478 675 479 q 701 478 693 478 q 717 478 708 478 q 743 478 729 478 q 771 479 757 478 q 812 481 793 479 q 850 483 831 482 q 887 487 868 485 q 928 492 906 489 q 910 477 918 483 q 893 465 901 471 q 873 452 883 458 q 851 440 863 446 q 841 435 846 438 q 831 431 836 433 q 804 419 817 424 q 779 410 792 414 q 749 401 764 406 q 715 394 733 397 q 675 388 693 390 q 640 386 657 386 q 611 385 625 385 q 581 385 597 385 q 572 385 576 385 q 564 385 568 385 l 396 385 l 396 65 q 393 32 396 46 q 386 4 390 18 q 377 -15 382 -4 q 367 -36 372 -25 q 322 -89 354 -62 q 254 -142 290 -115 q 249 -147 251 -144 q 243 -150 246 -149 l 32 -311 l 18 -294 l 108 -214 q 116 -208 113 -211 q 124 -200 119 -204 q 161 -153 146 -178 q 188 -97 176 -129 q 196 -69 193 -82 q 201 -44 199 -57 q 203 -15 203 -29 q 204 19 204 0 l 204 21 z "},"g":{"ha":1207,"x_min":43,"x_max":1171,"o":"m 326 129 l 325 126 q 131 307 215 211 q 43 517 47 403 q 43 523 43 519 q 43 529 43 526 q 43 535 43 532 q 43 542 43 539 q 71 679 46 613 q 125 794 96 746 q 149 830 138 814 q 171 857 161 846 q 208 867 172 860 q 288 888 244 875 q 323 899 306 893 q 356 910 340 904 q 378 919 367 914 q 400 932 389 925 q 422 944 411 938 q 442 958 432 951 q 505 1000 478 981 q 540 1019 532 1019 q 547 1019 543 1019 q 554 1021 550 1019 q 561 1021 557 1021 q 569 1021 565 1021 q 689 1015 617 1021 q 838 999 761 1010 q 1042 965 947 985 q 1164 922 1138 944 q 1169 917 1167 919 q 1171 911 1171 914 q 1171 909 1171 910 q 1171 907 1171 908 q 1166 890 1171 897 q 1156 876 1161 883 q 1153 874 1154 875 q 1151 871 1153 872 q 1147 865 1149 868 q 1142 858 1144 863 l 1063 750 q 1057 742 1060 746 q 1051 733 1054 738 q 1046 726 1049 731 q 1040 719 1043 722 q 1026 707 1032 711 q 1014 707 1019 703 q 1015 716 1013 708 q 1021 735 1017 724 q 1024 745 1022 739 q 1026 757 1025 751 q 1027 765 1026 761 q 1028 772 1028 768 q 1028 777 1028 775 q 1028 781 1028 779 q 979 833 1021 814 q 888 861 938 851 q 856 867 872 864 q 825 871 840 869 l 596 901 q 575 903 586 901 q 554 906 564 904 q 513 910 533 908 q 471 911 492 911 q 383 897 424 911 q 321 840 343 882 q 263 703 281 764 q 244 590 244 642 q 304 416 243 485 q 444 290 365 347 l 588 188 q 608 174 596 181 q 635 158 619 167 q 705 130 665 143 q 786 114 744 117 q 794 113 790 113 q 800 113 797 113 q 803 113 801 113 q 807 113 806 113 q 810 113 808 113 q 814 113 813 113 q 843 113 829 113 q 869 117 857 114 q 899 124 885 119 q 932 133 914 128 l 951 464 l 885 468 q 869 468 876 468 q 854 468 861 468 q 846 468 850 468 q 836 468 842 468 q 815 467 826 468 q 790 465 804 467 q 764 465 776 465 q 739 463 751 464 q 713 460 726 461 q 683 457 700 458 q 713 474 699 467 q 740 488 726 481 q 760 497 750 493 q 779 506 769 501 q 793 511 786 508 q 807 517 800 514 q 844 531 826 524 q 878 544 861 539 q 918 556 897 551 q 964 560 939 560 l 1147 561 l 1099 60 q 1099 49 1099 53 q 1099 40 1099 44 q 1098 22 1099 31 q 1096 4 1097 13 q 1090 -17 1093 -6 q 1082 -42 1086 -29 q 1057 -85 1072 -68 q 1024 -115 1042 -101 q 1001 -134 1013 -125 q 979 -154 990 -143 q 974 -158 976 -156 q 971 -162 972 -160 q 956 -179 964 -171 q 940 -197 947 -187 q 938 -200 939 -199 q 935 -203 936 -201 q 889 -253 910 -231 q 861 -274 868 -276 q 861 -274 861 -274 q 861 -272 861 -274 q 860 -272 860 -272 q 860 -271 860 -271 q 867 -244 860 -265 q 882 -197 874 -224 q 885 -185 883 -192 q 890 -172 888 -179 q 897 -148 893 -160 q 901 -125 900 -136 q 911 -65 907 -92 q 917 -11 915 -37 q 917 13 917 0 q 918 38 918 25 q 918 66 918 51 q 917 96 918 81 q 891 85 908 92 q 854 69 874 78 q 841 63 847 67 q 829 57 835 60 q 789 37 808 46 q 749 19 769 28 q 690 3 719 8 q 628 -3 660 -3 q 491 26 564 -3 q 326 128 418 56 l 326 129 z "},"h":{"ha":1318,"x_min":43,"x_max":1281,"o":"m 289 -7 l 289 528 l 289 1239 l 43 1247 l 192 1343 l 482 1343 l 482 907 l 565 943 q 585 950 575 946 q 604 957 594 954 q 758 1013 683 990 q 885 1036 833 1035 q 885 1036 885 1036 q 886 1036 885 1036 q 886 1036 886 1036 q 886 1036 886 1036 q 965 1012 917 1036 q 1063 946 1013 988 q 1206 785 1140 882 q 1279 585 1271 689 q 1279 579 1279 582 q 1281 574 1279 576 q 1281 568 1281 571 q 1281 563 1281 565 q 1281 549 1281 556 q 1279 536 1281 543 q 1242 390 1274 461 q 1174 263 1210 318 q 1123 192 1147 222 q 1083 147 1099 163 l 901 -35 q 885 -51 894 -42 q 867 -68 876 -60 q 861 -75 864 -72 q 856 -79 858 -78 q 819 -112 836 -99 q 792 -126 801 -126 q 787 -125 789 -126 q 783 -121 785 -124 q 800 -90 781 -112 q 843 -42 819 -68 q 844 -39 843 -40 q 847 -37 846 -37 q 862 -19 854 -28 q 876 -3 869 -11 l 917 46 q 1042 258 1003 150 q 1085 481 1081 365 q 1085 485 1085 483 q 1085 489 1085 488 q 1037 667 1085 582 q 932 808 989 751 q 884 851 908 833 q 840 881 860 869 l 753 931 q 744 933 750 931 q 729 938 738 935 q 708 943 719 940 q 685 947 696 946 q 680 947 682 947 q 675 947 678 947 q 669 947 672 947 q 664 946 667 947 q 658 945 661 946 q 653 944 656 944 q 537 876 589 931 q 476 757 485 821 q 475 748 475 753 q 475 739 475 743 l 475 63 l 289 -7 l 289 -7 z "},"i":{"ha":507,"x_min":39,"x_max":467,"o":"m 272 -7 l 272 217 l 272 928 l 39 928 l 183 1024 l 463 1024 l 463 799 l 463 88 l 272 -7 l 272 -7 m 364 1326 l 365 1329 l 436 1251 q 440 1247 438 1249 q 443 1243 442 1244 q 445 1241 444 1242 q 446 1240 446 1240 q 458 1226 453 1233 q 465 1215 464 1219 q 461 1205 467 1211 q 449 1192 456 1199 q 446 1189 447 1190 q 443 1186 444 1188 q 438 1181 440 1183 q 433 1178 436 1179 l 349 1101 q 347 1098 347 1099 q 344 1096 346 1097 q 342 1095 343 1096 q 340 1093 342 1094 q 332 1087 336 1089 q 324 1083 328 1085 q 318 1085 321 1083 q 313 1089 315 1086 q 310 1092 311 1090 q 307 1094 308 1093 q 303 1098 304 1096 q 300 1101 301 1100 l 222 1183 q 219 1185 221 1183 q 214 1189 217 1188 q 211 1192 213 1190 q 207 1194 210 1193 q 197 1206 201 1200 q 193 1218 193 1211 q 193 1223 193 1221 q 194 1226 193 1225 q 205 1238 196 1229 q 225 1257 214 1246 q 227 1258 226 1257 q 228 1260 228 1258 q 236 1267 232 1263 q 244 1274 240 1271 l 303 1325 q 306 1327 304 1325 q 311 1331 308 1329 q 313 1333 311 1332 q 314 1335 314 1333 q 326 1343 319 1339 q 336 1347 332 1347 q 336 1347 336 1347 q 338 1347 336 1347 q 338 1347 338 1347 q 338 1347 338 1347 q 344 1345 340 1347 q 351 1339 347 1343 q 356 1335 353 1338 q 361 1329 358 1332 q 362 1327 361 1328 q 364 1325 363 1326 l 364 1326 z "},"j":{"ha":536,"x_min":11,"x_max":499,"o":"m 388 -29 l 389 -28 q 336 -74 358 -51 q 293 -118 314 -96 q 249 -163 271 -140 q 196 -208 226 -186 q 163 -233 178 -221 q 135 -257 149 -246 q 94 -285 115 -272 q 44 -307 72 -297 q 52 -287 11 -318 q 149 -206 93 -257 q 203 -149 176 -179 q 246 -87 229 -118 q 250 -81 249 -85 q 253 -75 251 -78 q 266 -45 260 -60 q 278 -15 272 -31 q 301 73 293 26 q 308 175 310 119 l 307 217 l 301 928 l 39 928 l 213 1032 l 492 1032 l 492 757 l 492 46 q 469 29 479 36 q 449 15 458 22 q 441 10 444 13 q 435 6 438 8 q 413 -10 424 -1 q 388 -29 401 -18 l 388 -29 m 396 1321 l 397 1324 l 468 1246 q 472 1241 469 1243 q 475 1238 474 1239 q 477 1235 476 1236 q 478 1235 478 1235 q 490 1221 485 1228 q 497 1210 496 1214 q 493 1199 499 1206 q 481 1186 488 1193 q 478 1183 479 1185 q 475 1181 476 1182 q 470 1176 472 1178 q 465 1172 468 1174 l 381 1096 q 378 1092 379 1093 q 376 1090 378 1092 q 374 1090 375 1090 q 372 1088 374 1089 q 364 1081 368 1083 q 356 1078 360 1079 q 350 1079 353 1078 q 344 1083 347 1081 q 342 1086 343 1085 q 339 1089 340 1088 q 335 1092 336 1090 q 332 1096 333 1094 l 254 1178 q 251 1179 253 1178 q 249 1182 250 1181 q 248 1183 249 1182 q 247 1183 247 1183 q 235 1196 240 1189 q 229 1213 229 1203 q 229 1215 229 1214 q 229 1218 229 1217 q 230 1219 229 1218 q 231 1222 231 1221 q 240 1233 232 1225 q 257 1250 247 1240 q 260 1253 258 1251 q 263 1256 261 1254 q 269 1262 265 1258 q 276 1268 274 1265 l 335 1319 q 338 1322 336 1319 q 343 1325 340 1324 q 344 1327 343 1326 q 346 1329 346 1328 q 358 1338 351 1333 q 368 1342 364 1342 q 368 1342 368 1342 q 369 1342 368 1342 q 369 1342 369 1342 q 369 1342 369 1342 q 376 1340 372 1342 q 383 1333 379 1338 q 388 1329 385 1332 q 393 1324 390 1326 q 394 1322 393 1322 q 396 1319 394 1321 l 396 1321 z "},"k":{"ha":1519,"x_min":33,"x_max":1493,"o":"m 303 -1 l 297 242 l 283 953 l 33 950 l 158 1028 q 164 1029 161 1028 q 168 1032 167 1031 q 184 1039 176 1036 q 201 1043 192 1042 q 209 1044 206 1044 q 215 1044 213 1044 q 219 1044 217 1044 q 222 1044 221 1044 q 231 1044 226 1044 q 242 1044 236 1044 l 476 1042 l 475 639 q 508 654 494 647 q 536 668 522 661 q 542 671 539 669 q 549 675 546 672 q 597 705 571 686 q 667 764 622 724 q 701 797 685 781 q 733 831 718 814 q 751 852 742 842 q 769 872 761 863 q 835 943 801 908 q 917 1008 869 978 q 985 1039 944 1026 q 1067 1058 1025 1051 q 1094 1063 1081 1061 q 1121 1065 1108 1064 q 1081 1028 1099 1046 q 1044 994 1063 1011 q 1039 990 1042 992 q 1033 985 1036 988 q 996 951 1015 968 q 953 915 976 935 q 885 860 917 885 q 824 811 854 835 q 804 797 814 804 q 783 782 794 789 q 722 738 754 760 q 653 690 690 715 l 1038 310 q 1076 272 1053 293 q 1125 231 1099 251 q 1164 200 1144 215 q 1204 172 1183 185 q 1262 142 1233 154 q 1314 128 1290 129 q 1316 128 1315 128 q 1318 128 1317 128 q 1319 128 1318 128 q 1321 128 1319 128 q 1344 129 1332 128 q 1368 133 1356 131 q 1391 138 1379 135 q 1414 144 1403 142 q 1453 157 1436 151 q 1481 163 1471 163 q 1487 162 1485 163 q 1490 158 1489 161 q 1462 136 1493 150 q 1393 103 1431 122 q 1367 90 1379 97 q 1343 76 1354 83 q 1306 53 1324 64 q 1272 35 1289 43 q 1226 17 1250 24 q 1175 11 1203 11 q 1167 11 1171 11 q 1157 11 1163 11 q 1049 47 1100 15 q 950 126 999 79 q 903 173 926 149 q 854 222 879 197 q 851 226 853 224 q 846 231 849 228 l 531 544 q 525 548 529 544 q 515 554 521 551 q 510 558 513 557 q 506 561 508 560 q 498 565 501 564 q 492 567 494 567 q 487 565 489 567 q 483 561 485 564 q 482 557 482 560 q 482 551 482 554 q 482 549 482 550 q 482 547 482 547 q 482 544 482 546 q 482 542 482 543 l 486 81 l 303 -1 l 303 -1 z "},"l":{"ha":1006,"x_min":29,"x_max":969,"o":"m 214 -3 l 210 526 l 204 1238 l 29 1238 l 128 1313 q 133 1315 131 1314 q 139 1319 136 1317 q 147 1325 143 1322 q 156 1329 150 1328 q 166 1332 161 1332 q 176 1332 171 1332 q 183 1332 179 1332 q 190 1332 186 1332 l 393 1326 l 397 824 l 401 113 l 651 97 q 699 94 678 94 q 739 93 719 93 q 781 93 760 92 q 829 97 803 94 q 882 106 863 100 q 918 121 901 113 q 938 132 928 126 q 960 144 947 138 l 969 136 q 938 108 958 125 q 890 74 917 92 q 858 53 875 64 q 822 35 840 43 q 765 11 792 19 q 711 -1 738 3 q 635 -8 674 -8 q 550 -8 596 -8 l 214 -3 l 214 -3 z "},"m":{"ha":1914,"x_min":39,"x_max":1886,"o":"m 272 346 l 426 93 l 260 1 l 122 222 q 97 264 108 243 q 76 304 85 285 q 52 372 61 338 q 40 450 43 407 q 40 456 40 453 q 40 461 40 458 q 39 467 39 464 q 39 472 39 469 q 40 498 39 485 q 42 524 40 511 q 84 669 53 599 q 151 783 115 739 q 179 814 165 801 q 206 833 193 826 l 517 1004 q 546 1017 532 1011 q 572 1028 560 1024 q 593 1033 583 1031 q 614 1035 603 1035 q 631 1034 622 1035 q 649 1031 639 1033 q 718 1005 681 1022 q 793 963 756 988 q 849 921 821 943 q 901 874 876 899 l 939 838 q 944 831 942 833 q 949 825 946 828 q 953 820 951 822 q 957 815 954 818 q 974 799 965 806 q 997 792 983 792 q 1015 796 1007 792 q 1028 806 1022 800 q 1032 810 1031 808 q 1036 813 1033 811 q 1042 817 1039 815 q 1047 822 1044 819 l 1301 1003 q 1320 1014 1311 1008 q 1338 1024 1329 1019 q 1367 1036 1351 1031 q 1403 1044 1383 1042 q 1405 1044 1404 1044 q 1407 1044 1406 1044 q 1491 1019 1429 1044 q 1622 944 1553 993 q 1769 808 1701 889 q 1846 626 1838 728 q 1846 621 1846 624 q 1847 617 1846 618 q 1847 611 1847 614 q 1847 606 1847 608 q 1845 574 1847 590 q 1839 542 1843 558 q 1814 479 1829 511 q 1779 414 1799 447 l 1614 136 q 1647 128 1632 131 q 1678 125 1663 126 q 1711 123 1694 124 q 1747 122 1728 122 q 1788 124 1769 122 q 1822 128 1806 125 q 1853 133 1838 129 q 1886 140 1868 136 q 1872 125 1879 132 q 1860 113 1865 118 q 1828 87 1844 99 q 1792 65 1813 75 q 1787 63 1789 64 q 1782 60 1785 61 q 1744 43 1763 50 q 1708 32 1726 36 q 1650 22 1679 25 q 1585 19 1621 19 q 1576 19 1581 19 q 1568 19 1572 19 q 1531 20 1549 19 q 1497 24 1514 21 q 1461 31 1479 26 q 1421 42 1443 35 l 1513 201 q 1545 260 1529 229 q 1576 322 1561 290 q 1628 453 1607 390 q 1649 553 1649 515 q 1649 563 1650 558 q 1647 572 1649 568 q 1570 717 1628 650 q 1446 831 1513 783 q 1347 887 1394 867 q 1271 907 1300 907 q 1261 908 1265 908 q 1254 906 1257 907 q 1060 720 1106 857 q 1011 428 1014 583 q 1011 417 1011 422 q 1011 406 1011 411 l 1011 67 l 824 0 l 835 590 q 835 592 835 590 q 835 594 835 593 q 824 654 835 628 q 793 706 814 681 q 787 714 790 710 q 779 722 783 718 q 582 869 674 831 q 446 907 490 907 q 433 906 439 907 q 424 904 428 906 q 333 830 372 888 q 268 706 293 772 q 235 602 247 651 q 224 525 224 553 q 224 517 224 521 q 225 510 224 513 q 231 480 229 494 q 236 453 233 465 q 241 426 239 439 q 247 400 243 413 q 257 373 251 386 q 272 344 263 360 l 272 346 z "},"n":{"ha":1342,"x_min":36,"x_max":1307,"o":"m 282 0 l 282 213 l 282 924 l 36 928 l 210 1019 l 475 1019 l 475 879 l 517 907 q 557 931 536 918 q 599 954 578 943 q 730 1017 667 992 q 838 1050 793 1043 q 841 1050 839 1050 q 844 1051 843 1050 q 848 1051 846 1051 q 851 1051 850 1051 q 941 1028 889 1051 q 1049 967 993 1006 q 1226 788 1146 897 q 1307 556 1307 678 q 1269 397 1307 474 q 1186 258 1232 319 q 1128 188 1156 218 q 1083 142 1100 158 l 901 -35 q 881 -56 893 -43 q 853 -81 868 -68 q 847 -86 850 -83 q 842 -92 844 -89 q 795 -130 817 -115 q 771 -133 774 -144 q 787 -101 768 -125 q 828 -51 806 -78 q 828 -49 828 -50 q 831 -47 829 -49 q 846 -28 839 -37 q 860 -11 853 -19 l 917 63 q 969 133 944 97 q 1014 206 994 169 q 1079 349 1056 276 q 1106 499 1103 422 q 1106 503 1106 501 q 1106 507 1106 506 q 1058 678 1106 599 q 956 813 1011 758 q 914 847 935 832 q 875 872 893 863 l 788 922 q 776 926 785 922 q 753 933 767 929 q 727 941 742 938 q 697 946 713 944 q 687 947 692 947 q 678 947 682 947 q 664 947 671 947 q 650 944 657 946 q 543 882 593 932 q 475 774 493 832 q 470 749 472 761 q 468 726 468 738 l 468 69 l 282 0 l 282 0 z "},"o":{"ha":1181,"x_min":42,"x_max":1143,"o":"m 778 1022 l 775 1021 q 1040 851 939 972 q 1143 558 1142 731 q 1143 555 1143 557 q 1143 551 1143 553 q 1143 547 1143 549 q 1143 543 1143 546 q 1108 340 1143 431 q 976 188 1072 250 l 781 60 q 661 1 721 19 q 540 -17 601 -17 q 423 -1 482 -17 q 303 46 364 15 q 109 224 176 113 q 42 472 42 336 q 43 519 42 496 q 49 564 44 542 q 110 755 67 675 q 250 892 154 835 l 446 1010 q 519 1035 476 1026 q 613 1044 563 1044 q 673 1042 642 1044 q 736 1032 704 1039 q 757 1026 746 1029 q 778 1021 768 1024 l 778 1022 m 251 372 l 253 371 q 290 317 260 349 q 367 251 319 286 q 484 179 418 214 q 619 125 550 144 q 675 114 647 118 q 729 110 703 110 q 810 122 771 110 q 881 161 849 133 q 940 272 917 193 q 964 446 964 351 q 963 474 964 460 q 961 503 963 489 q 935 638 956 572 q 872 756 914 704 q 761 845 829 810 q 621 899 693 881 q 520 919 569 913 q 431 925 471 925 q 364 920 392 925 q 324 907 336 915 q 253 780 282 879 q 225 565 225 681 q 225 551 225 558 q 225 536 225 544 q 233 451 226 493 q 251 371 239 410 l 251 372 z "},"p":{"ha":1072,"x_min":35,"x_max":1038,"o":"m 414 424 l 410 72 l 231 -6 l 231 215 l 231 926 l 35 914 l 126 981 q 137 986 132 983 q 146 993 142 989 q 163 1001 154 997 q 183 1010 172 1006 q 202 1015 193 1013 q 219 1018 211 1017 q 237 1020 228 1019 q 256 1021 246 1021 l 629 1046 q 637 1044 633 1044 q 644 1046 640 1044 q 652 1046 649 1046 q 660 1046 656 1046 q 911 969 799 1046 q 1036 747 1024 893 q 1036 744 1036 746 q 1036 742 1036 743 q 1036 739 1036 740 q 1036 736 1036 738 q 903 548 1038 631 q 607 436 768 465 q 535 426 571 429 q 464 422 499 422 l 414 424 l 414 424 m 490 942 l 413 940 l 413 494 q 430 488 415 492 q 465 481 444 485 q 496 475 479 478 q 531 469 513 472 q 556 467 543 468 q 581 467 568 467 q 583 467 582 467 q 585 467 583 467 q 585 467 585 467 q 588 467 586 467 q 601 467 594 467 q 615 469 608 468 q 768 531 699 479 q 838 665 838 583 q 838 672 838 668 q 838 679 838 675 q 721 885 825 826 q 490 940 617 943 l 490 942 z "},"q":{"ha":1011,"x_min":40,"x_max":1842,"o":"m 518 303 l 324 181 l 265 206 q 113 324 176 243 q 42 514 49 404 q 42 519 42 517 q 42 525 42 522 q 40 529 40 526 q 40 535 40 532 q 67 674 40 608 q 126 774 93 739 q 130 777 128 775 q 135 782 132 779 q 207 825 158 801 q 317 896 256 849 q 351 924 336 910 q 381 950 367 938 q 421 981 400 967 q 471 1006 442 996 q 499 1012 482 1010 q 535 1014 515 1014 q 618 1006 572 1014 q 713 983 664 999 q 896 880 813 951 q 979 690 979 808 q 979 685 979 689 q 979 679 979 682 q 948 482 975 558 q 858 339 921 406 q 838 317 849 328 q 815 296 826 307 q 782 267 800 282 q 743 239 764 253 q 706 214 725 226 q 668 189 688 201 q 542 115 600 146 q 476 82 483 83 l 542 63 l 1253 -153 q 1301 -167 1278 -160 q 1349 -179 1325 -174 q 1434 -195 1390 -189 q 1532 -204 1478 -201 q 1542 -204 1538 -204 q 1553 -204 1547 -204 q 1628 -198 1592 -204 q 1693 -181 1665 -192 l 1779 -143 q 1789 -139 1783 -142 q 1799 -133 1794 -136 q 1801 -133 1800 -133 q 1801 -132 1801 -132 q 1827 -121 1815 -125 q 1840 -124 1839 -117 q 1832 -138 1842 -131 q 1811 -151 1822 -146 q 1804 -156 1807 -154 q 1799 -158 1801 -157 l 1671 -228 q 1601 -260 1635 -247 q 1535 -282 1568 -274 q 1448 -297 1492 -293 q 1354 -300 1404 -300 q 1328 -300 1342 -300 q 1301 -300 1315 -300 q 1088 -281 1188 -299 q 892 -236 988 -262 q 721 -183 807 -211 q 539 -125 635 -154 q 478 -106 510 -115 q 415 -87 447 -97 q 325 -62 356 -71 q 269 -47 294 -53 q 261 -44 265 -46 q 253 -43 257 -43 q 226 -37 240 -40 q 194 -31 213 -35 l 129 -18 q 126 -17 128 -18 q 124 -17 125 -17 q 121 -17 122 -17 q 118 -17 119 -17 q 102 -12 110 -14 q 93 -4 94 -10 q 93 -3 93 -4 q 93 -3 93 -3 q 93 -2 93 -3 q 93 -1 93 -1 q 93 1 93 0 q 94 4 93 3 q 101 14 97 10 q 111 21 106 18 q 114 23 113 22 q 117 25 115 24 l 258 129 q 293 117 276 121 q 325 110 310 113 q 353 106 339 107 q 385 104 368 104 q 388 104 386 104 q 392 104 390 104 q 395 104 393 104 q 399 104 397 104 q 429 106 414 104 q 460 113 444 108 q 685 258 583 140 q 785 558 788 376 q 756 727 783 678 q 640 811 728 776 q 636 812 638 811 q 632 814 635 813 l 551 847 q 515 858 535 853 q 475 869 496 864 q 412 881 443 876 q 360 886 381 886 q 340 885 349 886 q 328 881 332 883 q 305 858 319 875 q 276 815 290 840 q 242 748 258 786 q 218 669 225 710 q 215 648 217 658 q 214 628 214 638 q 214 623 214 625 q 215 618 214 621 q 215 615 215 617 q 215 610 215 613 q 260 458 222 524 q 379 358 299 392 l 518 303 l 518 303 z "},"r":{"ha":1319,"x_min":29,"x_max":1286,"o":"m 417 926 l 415 769 l 415 58 l 233 -4 l 231 219 l 226 931 l 29 929 q 48 942 39 936 q 65 956 57 949 q 74 961 69 958 q 83 968 79 964 q 98 977 90 972 q 114 986 106 982 q 135 999 125 993 q 156 1008 146 1004 q 173 1017 164 1013 q 192 1025 182 1021 q 201 1028 196 1026 q 210 1032 206 1031 q 228 1032 219 1032 q 244 1032 236 1032 q 253 1031 249 1031 q 263 1031 258 1031 q 269 1031 265 1031 q 275 1031 272 1031 q 309 1031 292 1031 q 346 1032 326 1031 q 426 1037 390 1033 q 497 1044 463 1040 q 567 1051 531 1047 q 647 1056 604 1054 q 649 1056 649 1056 q 651 1056 650 1056 q 652 1056 651 1056 q 654 1056 653 1056 q 728 1049 685 1056 q 818 1026 772 1042 q 955 952 892 1003 q 1029 815 1018 901 q 1031 804 1031 810 q 1031 793 1031 799 q 953 650 1031 706 q 785 551 876 594 q 759 539 772 544 q 733 528 746 533 l 710 518 q 744 473 728 493 q 775 435 760 453 q 783 426 779 431 q 790 417 786 421 q 825 377 807 397 q 864 333 843 357 q 900 294 883 311 q 933 260 917 276 q 935 259 935 260 q 936 258 936 258 q 971 222 953 240 q 1010 182 989 204 l 1033 158 q 1040 150 1036 153 q 1046 143 1043 147 q 1086 114 1065 125 q 1136 101 1107 103 q 1139 101 1138 101 q 1142 101 1140 101 q 1144 101 1143 101 q 1147 101 1146 101 q 1153 101 1150 101 q 1158 101 1156 101 q 1199 109 1179 103 q 1236 122 1219 115 q 1264 135 1253 129 q 1276 142 1275 142 l 1286 125 l 1193 81 q 1169 68 1181 74 q 1147 56 1158 63 q 1120 40 1133 49 q 1094 25 1107 32 q 1043 4 1069 13 q 985 -4 1017 -4 q 981 -4 983 -4 q 978 -4 979 -4 q 974 -4 975 -4 q 969 -4 972 -4 q 885 25 922 -1 q 819 82 849 51 q 812 92 815 88 q 804 100 808 96 q 769 138 786 121 q 738 171 753 154 q 737 171 738 171 q 736 172 736 171 q 702 207 719 189 q 664 247 685 225 q 633 283 656 257 q 583 340 610 310 q 580 344 582 342 q 576 349 578 347 q 524 413 547 383 q 500 451 501 443 q 500 451 500 451 q 500 453 500 451 q 500 453 500 453 q 500 453 500 453 q 506 460 501 457 q 515 464 510 463 q 522 467 518 465 q 528 469 525 468 l 581 490 q 598 495 589 492 q 615 503 607 499 q 718 562 668 526 q 800 635 768 597 q 833 680 821 657 q 844 722 844 703 q 844 731 844 726 q 843 738 844 735 q 728 884 818 839 q 531 935 638 929 q 523 935 526 935 q 517 936 519 935 q 509 936 513 936 q 503 936 506 936 q 487 935 494 936 q 471 935 479 935 q 445 931 458 933 q 417 925 432 928 l 417 926 z "},"s":{"ha":917,"x_min":46,"x_max":892,"o":"m 89 828 l 94 828 q 101 833 97 831 q 111 840 106 836 q 175 868 133 851 q 268 924 217 885 q 288 939 278 931 q 308 956 299 947 q 369 1005 340 982 q 424 1035 399 1028 q 434 1035 424 1035 q 463 1038 444 1036 q 501 1038 479 1038 q 547 1039 524 1039 q 558 1039 553 1039 q 567 1039 563 1039 q 607 1038 588 1039 q 644 1035 626 1036 q 656 1034 650 1035 q 668 1032 663 1033 q 670 1032 669 1032 q 672 1032 671 1032 q 798 1015 739 1026 q 885 964 857 1003 q 877 931 892 953 q 838 885 863 910 q 825 873 832 879 q 811 861 818 867 q 801 853 806 857 q 792 843 796 849 q 753 804 769 822 q 729 785 738 786 q 726 786 728 785 q 722 792 724 788 q 722 794 722 793 q 721 796 722 794 q 723 805 721 800 q 726 814 725 810 q 726 814 726 814 q 728 814 726 814 q 731 822 729 818 q 733 831 733 826 q 733 833 733 832 q 733 835 733 833 q 733 835 733 835 q 732 838 732 836 q 681 867 725 854 q 585 889 638 879 q 551 894 568 892 q 519 899 535 897 q 481 903 501 901 q 439 904 460 904 q 428 904 433 904 q 418 904 424 904 q 344 902 378 904 q 294 897 310 900 q 288 895 290 896 q 285 894 286 894 q 266 869 272 885 q 257 836 260 853 q 253 817 254 826 q 253 799 253 807 q 253 790 253 794 q 254 782 253 785 q 254 775 254 778 q 254 771 254 772 q 254 768 254 769 q 254 764 254 767 q 282 731 258 749 q 367 689 306 714 l 578 608 q 719 542 654 578 q 819 460 785 506 q 858 395 842 432 q 878 319 875 358 q 879 313 879 317 q 879 307 879 310 q 877 284 879 296 q 872 261 875 272 q 843 235 871 256 q 781 192 815 215 q 774 187 778 189 q 768 182 771 185 q 749 167 758 174 q 731 153 739 160 q 727 150 729 151 q 724 147 725 149 q 699 126 711 138 q 676 104 688 115 q 615 46 643 74 q 571 11 588 18 q 537 -1 553 3 q 506 -8 521 -6 q 469 -12 488 -11 q 431 -14 451 -12 q 422 -14 426 -14 q 414 -14 418 -14 q 411 -14 413 -14 q 410 -14 410 -14 q 407 -14 408 -14 q 404 -14 406 -14 q 356 -11 381 -14 q 308 -4 332 -8 q 207 21 256 4 q 121 56 158 38 q 70 84 90 69 q 47 108 50 99 q 47 110 47 110 q 47 111 47 111 q 46 113 46 113 q 46 114 46 114 q 51 129 46 122 q 63 142 56 136 q 65 144 64 143 q 67 146 65 146 q 72 151 69 149 q 76 156 74 153 l 169 251 q 174 256 172 253 q 179 261 176 258 q 183 266 181 264 q 186 269 185 268 q 199 278 193 275 q 208 274 204 281 q 210 270 210 272 q 210 265 210 268 q 207 260 208 263 q 203 254 206 257 q 198 247 200 250 q 196 239 196 243 q 196 239 196 239 q 196 238 196 239 q 210 217 196 229 q 250 194 225 206 q 325 165 282 179 q 413 143 368 151 q 465 135 439 138 q 515 132 492 132 q 615 138 568 132 q 692 164 661 144 q 697 177 694 167 q 699 204 699 188 q 697 234 699 218 q 692 268 696 250 q 678 309 686 289 q 656 343 669 329 q 619 374 643 357 q 517 422 596 390 l 203 553 q 200 552 201 551 q 197 554 199 553 q 133 586 163 568 q 92 626 103 604 q 81 667 85 643 q 76 715 78 690 q 75 724 75 719 q 75 732 75 728 q 79 790 75 764 q 89 826 83 817 l 89 828 z "},"t":{"ha":1274,"x_min":38,"x_max":1236,"o":"m 221 833 l 379 928 l 38 933 q 74 954 57 944 q 107 974 90 964 q 119 981 113 978 q 133 989 126 985 q 160 1003 146 996 q 190 1018 174 1010 q 286 1072 250 1047 q 335 1096 322 1096 q 339 1095 338 1096 q 342 1092 340 1094 q 339 1081 343 1088 q 328 1068 335 1075 q 322 1063 325 1065 q 314 1056 318 1060 q 308 1051 311 1054 q 301 1047 304 1049 l 281 1033 q 394 1024 343 1026 q 494 1019 444 1021 q 532 1019 513 1019 q 571 1018 551 1018 q 639 1016 604 1017 q 713 1014 674 1015 q 799 1012 758 1013 q 876 1011 840 1011 q 1062 1016 992 1011 q 1171 1028 1132 1021 q 1219 1039 1206 1033 q 1236 1044 1233 1044 q 1197 1020 1215 1032 q 1161 999 1179 1008 q 1107 974 1135 985 q 1044 956 1079 964 q 878 931 964 936 q 690 926 793 926 l 451 928 q 443 923 447 925 q 435 919 439 921 q 406 904 419 913 q 381 881 392 896 q 340 776 357 850 q 324 617 324 703 q 324 606 324 611 q 324 594 324 600 q 333 499 325 546 q 356 410 340 451 q 403 352 364 388 q 499 278 442 317 q 592 221 542 249 q 694 171 643 193 q 797 136 747 150 q 890 122 847 122 q 904 122 897 122 q 917 124 911 122 q 1003 145 964 129 q 1074 179 1043 161 q 1131 219 1108 201 q 1164 238 1154 236 q 1166 238 1165 238 q 1168 236 1167 238 q 1144 193 1181 228 q 1043 118 1107 158 q 968 74 1008 96 q 886 36 928 53 q 802 8 843 18 q 725 -1 761 -1 q 724 -1 725 -1 q 722 -1 724 -1 q 720 -1 721 -1 q 719 -1 719 -1 q 633 10 678 0 q 543 39 589 21 q 395 115 468 69 q 267 210 322 161 q 190 291 221 251 q 154 361 160 331 q 148 390 153 371 q 138 438 143 410 q 125 513 131 471 q 119 599 119 556 q 119 602 119 600 q 119 607 119 604 q 142 736 121 674 q 221 832 163 799 l 221 833 z "},"u":{"ha":1474,"x_min":42,"x_max":1439,"o":"m 297 564 l 296 560 q 300 526 297 543 q 307 494 303 510 q 429 306 338 397 q 625 161 521 215 q 728 117 676 133 q 822 101 779 101 q 825 101 824 101 q 828 101 826 101 q 831 101 829 101 q 833 101 832 101 q 924 119 889 104 q 978 150 958 133 q 1007 185 1000 169 q 1014 200 1014 200 l 1014 907 l 764 910 l 858 979 q 866 983 863 981 q 874 989 869 986 q 888 997 881 993 q 904 1004 896 1001 q 915 1007 910 1006 q 926 1010 921 1008 q 939 1012 932 1011 q 954 1013 946 1013 l 1207 1014 l 1210 811 l 1214 100 l 1439 92 l 1340 17 q 1337 13 1339 14 q 1332 10 1335 11 q 1320 3 1326 6 q 1306 -3 1314 0 q 1295 -6 1300 -4 q 1286 -7 1290 -7 q 1276 -7 1281 -7 q 1267 -7 1272 -7 q 1263 -7 1265 -7 q 1258 -7 1261 -7 l 1018 -3 l 1018 139 l 874 56 q 847 39 860 46 q 819 26 833 32 q 714 -13 767 0 q 613 -26 661 -26 q 592 -26 603 -26 q 571 -24 582 -25 q 479 13 538 -19 q 358 96 421 44 q 199 261 272 165 q 114 457 126 357 q 112 470 113 464 q 111 482 111 476 q 111 486 111 485 q 111 489 111 488 q 156 647 111 567 q 253 817 200 728 q 258 823 256 819 q 261 829 260 826 l 307 908 l 42 913 q 74 936 56 924 q 110 958 92 949 q 176 993 146 979 q 211 1008 207 1007 q 239 1013 221 1011 q 279 1014 257 1014 q 312 1013 294 1014 q 347 1013 329 1013 q 386 1010 367 1011 q 424 1007 406 1008 q 472 1002 451 1004 q 493 1000 492 1000 q 460 950 490 999 q 396 835 431 901 q 375 797 385 817 q 356 757 365 776 q 315 653 332 704 q 297 568 297 603 q 297 567 297 568 q 297 565 297 567 q 297 563 297 564 q 297 563 297 563 l 297 564 z "},"v":{"ha":1331,"x_min":32,"x_max":1290,"o":"m 846 236 l 843 233 q 810 188 828 211 q 775 140 793 165 q 772 135 774 138 q 768 131 769 133 q 685 24 724 71 q 631 -24 646 -22 q 628 -24 629 -24 q 626 -22 628 -24 q 624 -20 625 -21 q 621 -18 622 -19 q 620 -18 621 -18 q 619 -17 619 -18 q 613 -12 615 -15 q 607 -6 610 -10 l 567 76 l 221 788 q 215 797 218 792 q 210 808 213 803 q 185 849 199 831 q 147 874 172 867 q 144 874 146 874 q 142 875 143 875 q 139 875 140 875 q 136 875 138 875 q 126 874 131 875 q 115 871 121 872 q 99 864 107 868 q 85 856 92 860 q 54 839 68 846 q 35 840 40 832 q 33 842 33 842 q 33 844 33 843 q 49 865 32 853 q 89 889 67 876 q 96 894 92 892 q 104 899 100 896 q 115 906 110 903 q 124 913 119 910 q 144 929 133 921 q 164 946 154 938 q 226 995 196 972 q 282 1018 256 1018 q 282 1018 282 1018 q 283 1018 282 1018 q 283 1018 283 1018 q 283 1018 283 1018 q 343 988 321 1018 q 383 921 365 957 q 384 919 383 919 q 385 917 385 918 l 399 890 l 740 179 q 797 259 772 222 q 843 331 822 296 q 858 355 851 343 q 872 378 865 367 q 904 435 888 406 q 939 499 921 464 q 991 599 968 553 q 1033 689 1014 644 q 1056 740 1046 714 q 1078 793 1067 767 q 1100 851 1089 821 q 1124 917 1111 882 l 782 933 l 915 1011 q 921 1013 918 1011 q 926 1014 924 1014 q 938 1018 932 1017 q 949 1021 943 1019 q 964 1024 957 1024 q 976 1024 971 1024 q 987 1024 982 1025 q 996 1024 992 1024 q 1001 1024 999 1024 q 1007 1024 1004 1024 l 1290 1025 q 1204 840 1276 989 q 1032 519 1132 690 q 941 372 988 444 q 846 235 894 299 l 846 236 z "},"w":{"ha":2146,"x_min":36,"x_max":2114,"o":"m 1046 103 l 997 146 l 860 72 q 830 54 853 67 q 775 28 807 42 q 717 6 749 17 q 654 -10 686 -4 q 629 -14 642 -12 q 604 -15 617 -15 q 600 -15 603 -15 q 596 -15 597 -15 q 591 -14 593 -14 q 586 -14 589 -14 q 458 19 513 -7 q 354 96 404 44 q 349 99 351 97 q 346 104 347 101 l 185 275 q 179 279 182 276 q 174 286 176 282 q 115 382 142 324 q 89 507 89 440 q 103 590 89 550 q 133 664 117 631 q 147 688 140 676 q 160 710 154 700 l 289 925 q 256 928 272 926 q 222 931 239 931 q 206 932 214 932 q 189 932 197 932 q 165 932 178 932 q 139 931 153 932 q 113 928 125 929 q 88 924 100 926 q 63 919 75 922 q 36 913 51 917 q 54 932 42 919 q 83 957 67 944 q 101 972 92 965 q 121 986 111 979 q 124 987 122 986 q 126 989 125 988 q 146 1002 138 996 q 163 1013 154 1008 q 188 1024 174 1019 q 224 1028 201 1028 l 440 1029 q 442 1028 442 1028 q 444 1028 443 1028 q 445 1028 444 1028 q 447 1028 446 1028 q 458 1027 453 1028 q 465 1021 463 1026 q 466 1009 469 1015 q 457 996 463 1003 q 453 992 456 994 q 450 986 451 989 l 367 838 q 347 797 357 818 q 328 756 336 776 q 292 657 306 704 q 276 590 278 610 q 276 584 276 588 q 276 578 276 581 q 292 476 276 521 q 343 388 308 431 q 352 378 347 383 q 361 368 357 374 l 469 253 q 520 203 493 225 q 575 165 547 182 q 671 118 625 135 q 744 100 717 101 q 753 100 749 100 q 761 100 757 100 q 810 104 785 100 q 861 118 835 108 q 881 126 871 121 q 901 136 892 131 l 964 174 l 847 315 q 827 339 836 326 q 810 364 818 351 q 776 435 788 399 q 763 518 764 471 q 771 583 763 554 q 792 639 779 611 q 815 682 803 660 q 842 729 828 704 l 949 929 q 935 928 942 928 q 922 929 929 928 q 910 929 917 929 q 899 929 904 929 q 888 929 893 929 q 878 929 883 929 q 847 929 863 929 q 813 931 832 929 q 799 931 806 931 q 785 931 792 931 q 778 931 781 931 q 771 931 775 931 q 752 931 761 931 q 735 931 743 931 q 694 928 715 929 q 649 926 674 928 l 764 996 q 777 1001 771 999 q 789 1007 783 1004 q 807 1014 797 1011 q 828 1019 817 1017 q 842 1022 836 1021 q 856 1025 849 1024 q 869 1026 863 1025 q 883 1026 875 1026 l 1146 1028 l 1039 840 q 1035 833 1038 836 q 1032 826 1033 829 q 1005 784 1018 804 q 982 744 992 764 q 955 685 965 715 q 944 619 944 656 q 944 614 944 617 q 946 608 944 611 q 946 603 946 606 q 946 597 946 600 q 955 540 949 565 q 974 490 961 515 q 985 470 979 481 q 1000 449 992 460 l 1082 343 q 1167 250 1119 292 q 1265 178 1215 208 q 1351 138 1308 153 q 1429 124 1393 124 q 1431 124 1431 124 q 1433 124 1432 124 q 1522 134 1483 125 q 1599 164 1561 143 q 1627 182 1613 172 q 1657 203 1642 192 l 1657 221 l 1657 932 q 1629 931 1642 931 q 1604 932 1617 932 q 1576 933 1590 933 q 1546 933 1563 933 q 1516 933 1532 933 q 1483 932 1500 932 q 1458 931 1471 932 q 1432 931 1444 931 q 1387 928 1406 929 q 1368 926 1368 926 l 1521 1010 q 1529 1013 1525 1011 q 1538 1015 1533 1014 q 1547 1019 1542 1018 q 1560 1022 1553 1021 q 1565 1024 1563 1024 q 1571 1025 1568 1024 q 1582 1026 1576 1025 q 1593 1026 1588 1026 l 1850 1028 l 1850 829 l 1850 118 l 2114 119 l 1989 42 q 1976 33 1982 36 q 1964 26 1969 29 q 1946 19 1956 22 q 1925 13 1936 15 q 1909 10 1917 11 q 1894 7 1901 8 q 1878 6 1886 6 q 1863 6 1871 6 l 1656 1 l 1654 158 l 1488 64 q 1441 37 1463 49 q 1397 15 1419 25 q 1344 -3 1371 3 q 1286 -10 1318 -10 q 1281 -10 1283 -10 q 1275 -10 1278 -10 q 1268 -8 1271 -8 q 1263 -8 1265 -8 q 1181 9 1217 -6 q 1114 47 1146 24 q 1081 73 1097 60 q 1046 101 1064 86 l 1046 103 z "},"x":{"ha":1606,"x_min":-26,"x_max":1571,"o":"m 596 594 l 325 938 l 39 938 l 176 1014 q 186 1017 182 1015 q 194 1022 190 1019 q 206 1027 200 1025 q 219 1031 213 1029 q 230 1033 225 1032 q 239 1036 235 1035 q 248 1037 243 1036 q 258 1038 253 1038 l 496 1039 l 726 753 l 833 860 q 863 886 843 868 q 910 922 883 904 q 947 949 928 936 q 988 972 967 963 q 1060 1008 1026 993 q 1128 1033 1094 1024 q 1188 1047 1158 1042 q 1253 1051 1218 1051 q 1329 1047 1289 1051 q 1418 1031 1369 1042 l 1231 944 q 1222 944 1229 943 q 1201 947 1214 946 q 1169 951 1188 950 q 1129 953 1150 953 q 1085 951 1107 953 q 1044 942 1063 949 q 997 917 1015 932 q 960 882 978 901 q 941 860 951 871 q 919 836 931 849 l 782 688 q 831 620 808 650 q 875 563 853 590 q 878 558 876 561 q 882 553 881 556 q 927 495 904 525 q 978 431 950 465 q 1044 347 1014 385 q 1103 275 1074 310 q 1109 267 1106 271 q 1117 258 1113 263 q 1178 184 1146 222 q 1249 101 1210 146 q 1284 99 1268 100 q 1317 99 1300 99 q 1348 97 1332 97 q 1383 97 1364 97 q 1434 98 1411 97 q 1479 100 1457 99 q 1523 103 1501 101 q 1571 107 1544 104 q 1545 90 1557 97 q 1522 75 1533 82 q 1503 65 1513 69 q 1485 56 1494 60 q 1469 48 1476 51 q 1451 40 1461 44 q 1417 25 1433 32 q 1386 11 1401 18 q 1346 0 1367 4 q 1300 -4 1325 -4 l 1099 -4 q 1043 51 1097 -3 q 833 299 989 106 q 783 360 806 332 q 739 415 761 389 q 736 419 738 418 q 733 424 735 421 q 691 476 713 449 q 644 538 669 504 l 193 54 q 171 31 190 50 q 126 -10 151 11 q 113 -22 119 -17 q 99 -33 106 -28 q 88 -42 93 -37 q 76 -50 82 -46 q 60 -62 68 -57 q 43 -71 51 -67 q 18 -82 31 -76 q -8 -92 6 -87 q -17 -94 -12 -93 q -26 -97 -22 -96 q -7 -81 -15 -89 q 11 -67 1 -74 q 16 -63 14 -65 q 21 -58 18 -61 q 41 -41 31 -50 q 63 -22 51 -32 q 78 -8 69 -15 q 94 4 86 -1 q 97 7 96 6 q 100 10 99 8 q 143 50 124 32 q 165 72 163 68 l 596 594 l 596 594 z "},"y":{"ha":1303,"x_min":28,"x_max":1206,"o":"m 249 792 l 322 919 l 28 924 l 165 1003 q 175 1006 171 1004 q 185 1010 179 1008 q 200 1016 192 1014 q 218 1019 208 1018 q 232 1022 225 1021 q 244 1022 239 1022 q 249 1022 247 1022 q 254 1022 251 1022 q 263 1022 258 1022 q 274 1021 268 1022 l 497 1011 l 340 711 q 328 683 333 696 q 318 657 322 669 q 310 624 314 640 q 306 586 307 607 q 306 580 306 583 q 306 574 306 576 q 316 510 306 543 q 344 443 326 476 q 456 302 386 371 q 603 183 526 233 q 717 124 661 146 q 815 101 772 101 q 860 103 840 101 q 900 113 881 106 q 924 121 911 115 q 949 133 936 126 l 1015 172 l 1015 210 l 1015 921 l 736 921 l 861 999 q 866 1000 864 999 q 871 1004 868 1001 q 874 1006 872 1006 q 878 1008 876 1007 q 887 1015 882 1013 q 899 1021 892 1018 q 908 1024 903 1022 q 917 1026 913 1025 q 929 1028 922 1028 q 943 1029 936 1029 l 1204 1031 l 1204 807 l 1204 96 q 1204 81 1204 88 q 1206 68 1204 75 q 1206 56 1206 63 q 1206 43 1206 50 q 1201 6 1206 24 q 1181 -31 1196 -12 q 1139 -65 1174 -37 q 1060 -124 1104 -93 q 1051 -131 1056 -128 q 1042 -137 1046 -135 q 1013 -158 1026 -147 q 985 -176 999 -168 q 932 -215 956 -196 q 885 -250 908 -233 q 818 -292 853 -274 q 736 -319 783 -310 q 733 -319 735 -319 q 731 -321 732 -319 q 728 -321 729 -321 q 725 -321 726 -321 q 631 -304 694 -321 q 494 -264 567 -287 q 447 -248 471 -257 q 401 -231 424 -239 q 391 -227 396 -229 q 382 -224 386 -225 q 338 -206 361 -215 q 292 -189 315 -197 q 245 -169 268 -179 q 201 -151 222 -160 q 122 -110 154 -131 q 86 -71 89 -89 q 86 -71 86 -71 q 86 -71 86 -71 q 86 -69 86 -69 q 86 -69 86 -69 q 116 -26 85 -53 q 188 29 147 0 q 198 37 193 33 q 207 43 203 40 q 233 62 221 53 q 258 79 246 71 q 264 83 261 81 q 269 88 267 86 q 275 92 272 90 q 281 96 278 93 q 292 101 286 99 q 303 104 297 104 q 306 104 304 104 q 308 103 307 104 q 310 102 308 103 q 313 100 311 101 q 316 91 317 96 q 311 82 315 86 q 304 76 308 79 q 296 69 300 74 q 283 57 289 64 q 276 42 276 50 q 294 12 278 21 q 329 -4 310 3 q 330 -4 329 -4 q 331 -4 331 -4 q 338 -7 335 -6 q 346 -10 342 -8 l 557 -93 q 596 -106 563 -94 q 678 -132 629 -118 q 726 -145 700 -139 q 776 -157 751 -151 q 839 -167 808 -162 q 896 -171 869 -171 q 920 -170 908 -171 q 942 -167 932 -169 q 997 -123 981 -158 q 1014 -47 1013 -87 q 1015 -35 1015 -42 q 1015 -24 1015 -29 l 1015 129 l 794 13 q 760 -5 776 1 q 728 -17 744 -11 q 679 -30 704 -25 q 624 -39 654 -35 q 621 -39 622 -39 q 618 -40 619 -39 q 614 -40 615 -40 q 611 -40 613 -40 q 515 -8 571 -40 q 399 78 458 25 q 319 156 358 114 q 244 242 279 199 q 151 377 188 313 q 115 482 115 442 q 115 490 115 486 q 117 496 115 493 q 143 590 128 549 q 178 669 158 631 q 210 727 193 697 q 249 790 228 757 l 249 792 z "},"z":{"ha":1304,"x_min":35,"x_max":1265,"o":"m 856 936 l 850 940 l 139 961 q 156 966 147 963 q 172 972 164 969 q 184 978 178 975 q 196 983 190 981 q 221 994 208 989 q 247 1007 233 1000 q 268 1017 258 1013 q 286 1026 278 1021 q 294 1030 290 1028 q 301 1033 297 1032 q 324 1046 313 1039 q 349 1060 335 1053 q 474 1052 417 1056 q 585 1046 531 1049 q 698 1041 640 1043 q 825 1038 756 1039 q 909 1035 871 1036 q 985 1035 947 1035 q 1059 1035 1021 1035 q 1143 1035 1097 1035 q 1094 965 1117 997 q 1050 904 1072 933 q 1037 888 1043 896 q 1024 871 1031 879 q 974 806 1000 839 q 915 736 947 774 q 831 641 871 683 q 751 561 790 599 q 738 548 744 554 q 725 535 732 542 q 641 453 685 496 q 549 358 597 411 q 495 300 519 326 q 447 247 471 274 q 445 246 446 247 q 443 243 444 244 q 396 191 419 218 q 343 132 372 164 l 546 110 q 749 88 654 96 q 933 81 844 81 q 1020 83 978 81 q 1104 89 1063 85 q 1153 100 1131 92 q 1196 118 1176 108 q 1241 142 1224 132 q 1263 147 1258 153 q 1263 147 1263 147 q 1264 144 1264 146 q 1265 142 1264 143 q 1265 142 1265 142 q 1253 119 1265 132 q 1221 94 1240 107 q 1203 83 1213 89 q 1186 72 1194 78 q 1165 60 1175 65 q 1144 49 1154 54 q 1093 24 1118 35 q 1044 6 1068 13 q 935 -15 990 -10 q 813 -21 879 -19 q 656 -16 726 -21 q 517 -4 585 -11 q 503 -2 510 -3 q 490 -1 497 -1 q 367 10 431 4 q 226 17 303 15 q 188 17 206 17 q 153 18 169 18 q 121 19 138 19 q 86 19 104 19 q 78 19 82 19 q 68 21 74 19 q 44 31 54 22 q 53 64 35 40 q 98 119 76 93 q 140 169 119 144 q 151 182 146 175 q 163 194 157 189 q 217 255 189 225 q 276 321 244 285 q 394 445 339 390 q 504 553 450 500 q 510 558 507 556 q 517 565 514 561 q 626 673 571 617 q 742 800 681 729 q 772 834 758 818 q 797 865 785 850 q 799 867 799 865 q 801 869 800 868 q 827 900 814 885 q 856 935 840 915 l 856 936 z "},"{":{"ha":411,"x_min":39,"x_max":376,"o":"m 161 524 l 139 517 l 163 507 q 167 503 165 504 q 171 501 168 503 q 194 489 183 496 q 214 471 204 482 q 217 467 215 469 q 219 464 218 465 q 226 455 222 460 q 232 446 229 450 q 240 425 238 436 q 243 400 243 414 l 243 51 q 249 -7 243 18 q 275 -56 254 -32 q 280 -61 278 -58 q 285 -67 282 -64 q 305 -83 294 -76 q 331 -94 315 -90 l 357 -103 l 314 -103 q 285 -101 300 -103 q 256 -96 271 -100 q 213 -80 235 -90 q 172 -50 192 -69 q 147 -2 154 -32 q 138 61 140 28 q 138 100 138 81 q 138 135 138 119 q 138 149 138 143 q 138 161 138 156 l 138 397 l 138 417 q 133 442 138 431 q 122 465 129 454 q 117 472 119 468 q 111 478 114 475 q 108 482 110 481 q 103 486 106 483 q 89 495 96 492 q 75 503 82 499 q 66 506 71 504 q 57 510 61 508 l 39 519 l 57 528 q 65 529 61 528 q 72 533 68 531 q 98 547 86 539 q 121 568 110 554 q 127 576 124 572 q 132 585 131 581 q 142 607 139 596 q 147 633 146 618 l 149 651 l 158 976 q 159 984 158 979 q 160 994 160 989 q 171 1041 163 1018 q 199 1083 179 1064 q 255 1121 225 1111 q 322 1131 285 1131 l 376 1132 l 349 1121 q 322 1106 332 1114 q 300 1086 311 1097 q 297 1081 299 1083 q 292 1075 294 1078 q 282 1058 286 1067 q 275 1039 278 1049 q 267 1006 269 1022 q 265 981 265 990 l 257 686 l 257 663 q 254 639 257 656 q 246 603 251 622 q 237 583 242 593 q 225 564 232 572 q 219 558 222 561 q 214 551 217 554 q 190 535 203 542 q 161 522 178 528 l 161 524 z "},"|":{"ha":310,"x_min":110,"x_max":210,"o":"m 110 -360 l 110 321 l 110 1032 l 210 1032 l 210 350 l 210 -360 l 110 -360 l 110 -360 z "},"}":{"ha":410,"x_min":35,"x_max":369,"o":"m 271 517 l 249 524 q 213 538 228 529 q 185 564 199 547 q 173 583 178 572 q 164 603 168 593 q 156 639 158 622 q 153 661 153 656 l 153 686 l 144 982 q 142 1006 144 990 q 135 1039 140 1022 q 128 1058 132 1049 q 118 1075 124 1067 q 113 1081 115 1078 q 108 1088 111 1085 q 88 1106 99 1099 q 63 1119 78 1114 l 35 1132 l 89 1132 q 156 1121 126 1131 q 213 1083 186 1111 q 240 1041 232 1064 q 251 994 249 1018 q 252 984 251 989 q 253 975 253 979 l 261 651 l 264 635 q 268 607 265 618 q 278 585 271 596 q 283 576 279 581 q 289 568 286 572 q 311 547 300 554 q 338 533 322 539 q 344 529 340 531 q 353 526 349 528 l 369 519 l 351 511 q 342 506 347 508 q 333 503 338 504 q 319 495 326 499 q 306 486 313 492 q 301 482 303 483 q 297 478 300 481 q 292 472 294 475 q 286 465 289 468 q 275 442 279 454 q 271 415 271 431 l 271 397 l 271 163 q 271 149 271 156 q 271 135 271 143 q 271 100 271 119 q 271 61 271 81 q 261 -2 268 28 q 236 -50 254 -32 q 196 -80 218 -69 q 153 -96 174 -90 q 123 -101 138 -100 q 94 -103 108 -103 l 51 -103 l 78 -94 q 101 -85 92 -90 q 121 -69 111 -79 q 127 -63 124 -67 q 135 -56 131 -60 q 161 -7 156 -32 q 167 50 167 18 l 167 401 q 169 425 167 414 q 178 446 172 436 q 184 455 181 450 q 190 464 188 460 q 212 486 200 478 q 239 501 224 494 q 244 503 242 503 q 247 506 246 504 l 271 517 l 271 517 z "},"~":{"ha":992,"x_min":47,"x_max":956,"o":"m 50 824 l 53 822 q 63 835 58 829 q 72 844 68 840 q 75 848 74 846 q 79 851 76 850 q 85 856 82 854 q 90 861 88 858 l 206 963 q 223 976 215 969 q 239 990 231 983 q 273 1014 256 1004 q 314 1028 290 1024 q 325 1030 319 1029 q 336 1031 331 1031 q 341 1031 339 1031 q 346 1032 343 1032 q 374 1029 361 1032 q 401 1022 388 1026 q 428 1012 414 1018 q 456 999 442 1006 l 585 938 q 606 927 596 931 q 626 922 615 924 q 646 919 636 919 q 667 918 656 918 q 687 918 676 918 q 708 919 697 918 q 797 935 758 922 q 872 974 836 949 q 894 990 883 981 q 917 1008 906 999 q 922 1013 919 1011 q 928 1015 925 1014 q 947 1022 938 1022 q 956 1015 956 1021 q 953 1008 956 1013 q 944 997 951 1004 q 929 981 936 989 q 915 968 922 974 q 910 963 913 965 q 904 957 907 960 q 892 946 899 951 q 876 933 885 940 l 769 849 q 746 828 757 838 q 724 813 735 819 q 675 785 700 796 q 618 771 650 775 q 601 769 610 769 q 585 768 593 768 q 546 772 564 768 q 510 781 528 775 q 478 794 494 786 q 444 811 463 801 l 311 885 q 299 889 304 886 q 288 894 293 892 q 266 899 276 897 q 242 901 256 901 q 238 901 240 901 q 233 901 236 901 q 179 890 203 901 q 133 861 156 879 q 107 837 121 850 q 78 810 93 824 q 53 799 60 796 q 47 811 47 803 q 48 817 47 814 q 50 822 49 821 l 50 824 z "},"":{"ha":1461,"x_min":-190,"x_max":1422,"o":"m -190 -194 l -190 -197 q -151 -163 -168 -179 q -119 -131 -135 -147 q -97 -108 -108 -119 q -76 -85 -86 -96 q -47 -48 -61 -67 q -15 -7 -32 -29 q 8 24 -1 10 q 25 53 17 39 q 28 58 26 56 q 32 64 29 61 q 58 109 43 83 q 96 176 72 135 l 199 353 l 111 353 l 236 411 l 522 901 q 489 902 504 901 q 458 904 474 903 q 447 904 453 904 q 433 904 440 904 q 417 904 425 904 q 399 904 408 904 q 363 903 379 904 q 332 900 347 901 q 303 898 318 900 q 272 894 289 896 q 285 907 279 901 q 296 918 290 913 q 310 931 303 925 q 326 943 318 938 q 341 952 333 947 q 358 963 349 957 q 383 977 372 971 q 406 989 394 983 q 448 1003 425 999 q 514 1007 471 1007 l 703 1006 l 799 822 l 1164 111 l 1285 111 q 1307 110 1297 110 q 1326 110 1317 110 q 1344 112 1335 111 q 1363 114 1353 113 q 1378 117 1371 115 q 1393 121 1385 118 q 1407 124 1400 122 q 1422 129 1414 126 q 1386 94 1406 110 q 1346 64 1367 78 q 1290 31 1317 44 q 1246 10 1263 18 q 1203 0 1231 3 q 1144 -3 1176 -3 q 1137 -3 1140 -3 q 1129 -3 1133 -3 q 1082 -1 1106 -3 q 1040 1 1058 0 q 1013 4 1024 3 q 1000 6 1001 6 l 814 356 l 303 363 l 150 117 q 133 88 142 101 q 114 61 124 75 q 71 8 94 35 q 18 -46 47 -18 q -17 -79 0 -64 q -51 -108 -35 -94 q -93 -140 -72 -125 q -139 -168 -114 -154 q -162 -181 -150 -174 q -189 -194 -175 -187 l -190 -194 m 353 438 l 775 436 l 582 803 l 353 438 l 353 438 m 411 1379 l 411 1382 l 492 1307 q 494 1303 493 1304 q 499 1300 496 1301 q 502 1296 500 1297 q 506 1292 504 1294 q 516 1281 511 1286 q 521 1271 521 1275 q 517 1260 521 1267 q 507 1247 513 1254 q 503 1244 506 1246 q 500 1240 501 1243 q 497 1237 499 1239 q 492 1232 494 1235 l 403 1143 q 401 1140 401 1140 q 399 1138 400 1139 q 395 1135 397 1136 q 390 1132 393 1133 q 384 1127 388 1129 q 378 1125 381 1125 q 372 1126 375 1125 q 367 1131 369 1128 q 364 1133 365 1132 q 361 1136 363 1135 q 357 1140 358 1138 q 354 1143 356 1142 l 265 1236 q 262 1238 264 1236 q 257 1242 260 1240 q 254 1244 256 1243 q 250 1247 253 1246 q 240 1258 244 1253 q 236 1271 236 1264 q 236 1276 236 1274 q 238 1279 236 1278 q 246 1289 238 1281 q 265 1307 254 1297 q 268 1310 267 1308 q 271 1313 269 1311 q 279 1320 275 1317 q 288 1326 283 1324 l 349 1378 q 352 1380 350 1378 q 357 1383 354 1382 q 358 1385 357 1385 q 360 1388 360 1386 q 372 1396 365 1392 q 382 1400 378 1400 q 382 1400 382 1400 q 383 1400 382 1400 q 383 1400 383 1400 q 383 1400 383 1400 q 393 1394 388 1399 q 403 1385 399 1390 q 408 1381 406 1383 q 411 1378 410 1379 l 411 1379 m 789 1382 l 789 1385 l 869 1310 q 872 1306 871 1307 q 876 1303 874 1304 q 880 1299 878 1300 q 883 1294 882 1297 q 894 1283 889 1289 q 899 1274 899 1278 q 894 1263 899 1269 q 885 1250 890 1257 q 881 1247 883 1249 q 878 1243 879 1246 q 874 1240 876 1242 q 869 1235 872 1238 l 781 1146 q 778 1142 779 1143 q 776 1140 778 1142 q 773 1138 775 1139 q 768 1135 771 1136 q 762 1130 765 1132 q 756 1128 758 1128 q 750 1129 753 1128 q 744 1133 747 1131 q 742 1136 743 1135 q 739 1139 740 1138 q 735 1142 736 1140 q 732 1146 733 1144 l 642 1239 q 638 1241 640 1239 q 633 1244 636 1243 q 631 1247 632 1246 q 626 1250 629 1249 q 617 1261 621 1256 q 613 1274 613 1267 q 613 1278 613 1276 q 614 1282 613 1281 q 622 1292 614 1283 q 642 1310 631 1300 q 644 1313 643 1311 q 647 1315 646 1314 q 656 1323 651 1319 q 664 1329 660 1326 l 726 1381 q 730 1383 728 1381 q 735 1386 732 1385 q 736 1388 735 1388 q 738 1390 738 1389 q 749 1399 743 1394 q 760 1403 756 1403 q 760 1403 760 1403 q 761 1403 760 1403 q 761 1403 761 1403 q 761 1403 761 1403 q 771 1397 765 1401 q 781 1388 776 1393 q 785 1384 783 1386 q 789 1381 788 1382 l 789 1382 z "},"":{"ha":1451,"x_min":-190,"x_max":1422,"o":"m -190 -194 l -190 -197 q -151 -163 -168 -179 q -119 -131 -135 -147 q -97 -108 -108 -119 q -76 -85 -86 -96 q -47 -48 -61 -67 q -15 -7 -32 -29 q 8 24 -1 10 q 25 53 17 39 q 28 58 26 56 q 32 64 29 61 q 58 109 43 83 q 96 176 72 135 l 199 353 l 111 353 l 236 411 l 522 901 q 489 902 504 901 q 458 904 474 903 q 447 904 453 904 q 433 904 440 904 q 417 904 425 904 q 399 904 408 904 q 363 903 379 904 q 332 900 347 901 q 303 898 318 900 q 272 894 289 896 q 285 907 279 901 q 296 918 290 913 q 310 931 303 925 q 326 943 318 938 q 341 952 333 947 q 358 963 349 957 q 383 977 372 971 q 406 989 394 983 q 448 1003 425 999 q 514 1007 471 1007 l 703 1006 l 799 822 l 1164 111 l 1285 111 q 1307 110 1297 110 q 1326 110 1317 110 q 1344 112 1335 111 q 1363 114 1353 113 q 1378 117 1371 115 q 1393 121 1385 118 q 1407 124 1400 122 q 1422 129 1414 126 q 1386 94 1406 110 q 1346 64 1367 78 q 1290 31 1317 44 q 1246 10 1263 18 q 1203 0 1231 3 q 1144 -3 1176 -3 q 1137 -3 1140 -3 q 1129 -3 1133 -3 q 1082 -1 1106 -3 q 1040 1 1058 0 q 1013 4 1024 3 q 1000 6 1001 6 l 814 356 l 303 363 l 150 117 q 133 88 142 101 q 114 61 124 75 q 71 8 94 35 q 18 -46 47 -18 q -17 -79 0 -64 q -51 -108 -35 -94 q -93 -140 -72 -125 q -139 -168 -114 -154 q -162 -181 -150 -174 q -189 -194 -175 -187 l -190 -194 m 353 438 l 775 436 l 582 803 l 353 438 l 353 438 m 703 1339 l 703 1338 q 712 1315 710 1326 q 715 1292 714 1303 q 700 1238 715 1264 q 657 1197 685 1213 l 554 1144 q 531 1135 543 1138 q 507 1132 519 1132 q 458 1144 481 1132 q 421 1181 435 1157 q 413 1201 415 1190 q 410 1221 410 1211 q 410 1227 410 1224 q 411 1233 410 1231 q 437 1290 415 1263 q 488 1331 458 1317 l 561 1368 q 581 1374 571 1371 q 600 1379 590 1378 q 610 1380 604 1379 q 619 1381 615 1381 q 667 1371 644 1381 q 703 1338 689 1361 l 703 1339 m 513 1229 l 513 1228 q 540 1196 522 1208 q 576 1183 557 1183 q 590 1185 583 1183 q 601 1189 596 1186 q 619 1208 614 1196 q 625 1233 625 1219 q 624 1242 625 1238 q 624 1251 624 1247 q 615 1281 621 1267 q 600 1303 608 1294 q 574 1324 589 1315 q 543 1332 558 1332 q 538 1332 540 1332 q 532 1331 535 1332 q 525 1329 528 1331 q 519 1326 522 1328 q 503 1309 508 1321 q 499 1285 499 1297 q 503 1254 499 1269 q 513 1228 507 1239 l 513 1229 z "},"":{"ha":1207,"x_min":36,"x_max":1172,"o":"m 331 113 l 322 118 q 120 299 204 197 q 36 524 36 400 q 36 534 36 529 q 36 544 36 539 q 37 553 36 549 q 38 564 38 558 q 73 717 46 643 q 131 836 100 790 q 142 851 136 844 q 153 864 147 858 q 194 876 154 867 q 279 899 233 885 q 319 913 300 906 q 354 926 338 919 q 374 936 364 931 q 396 947 385 942 q 416 960 406 954 q 436 974 426 967 q 497 1015 471 996 q 531 1035 524 1035 q 585 1040 556 1038 q 646 1042 615 1042 q 717 1040 681 1042 q 792 1035 754 1038 q 1044 994 928 1022 q 1171 936 1160 967 q 1172 934 1172 935 q 1172 932 1172 933 q 1172 928 1172 931 q 1172 925 1172 926 q 1167 901 1172 911 q 1154 879 1163 890 l 1058 764 q 1053 755 1056 758 q 1046 747 1050 751 q 1042 742 1044 744 q 1039 736 1040 739 q 1023 721 1031 726 q 1010 719 1015 715 q 1010 728 1008 721 q 1017 747 1013 736 q 1019 758 1018 751 q 1022 769 1021 764 q 1023 777 1022 774 q 1024 785 1024 781 q 1024 790 1024 788 q 1024 793 1024 792 q 975 849 1017 826 q 883 885 933 872 q 852 892 868 889 q 821 896 836 894 l 588 922 q 553 924 571 924 q 518 925 536 925 q 515 925 517 925 q 513 925 514 925 q 402 913 454 925 q 333 874 350 900 q 261 720 283 792 q 239 588 239 649 q 324 368 239 457 q 531 222 408 279 l 692 149 q 735 130 715 138 q 775 118 756 122 q 811 112 793 114 q 850 110 829 110 q 858 110 854 110 q 867 111 863 110 q 874 111 869 111 q 882 111 878 111 q 947 122 918 114 q 1001 142 975 129 q 1041 162 1021 151 q 1083 185 1061 172 l 1111 201 l 1108 181 l 985 103 q 949 80 965 89 q 917 63 932 71 q 874 45 896 53 q 826 29 853 38 q 799 22 814 26 q 767 14 783 18 q 719 6 742 8 q 675 3 697 3 q 669 3 672 3 q 663 3 665 3 q 615 7 639 4 q 564 15 592 10 l 510 -60 q 531 -57 521 -58 q 551 -56 542 -56 q 565 -56 558 -56 q 578 -57 571 -57 q 603 -62 590 -58 q 631 -68 617 -65 q 644 -74 633 -69 q 668 -83 656 -78 q 671 -84 669 -83 q 674 -86 672 -85 q 681 -89 678 -87 q 688 -92 685 -90 q 696 -95 692 -93 q 704 -100 700 -97 q 707 -101 706 -100 q 710 -103 708 -101 q 732 -113 722 -108 q 742 -119 742 -118 q 744 -122 743 -121 q 746 -124 744 -122 q 765 -158 756 -136 q 776 -204 774 -181 q 776 -208 776 -207 q 776 -211 776 -210 q 776 -213 776 -212 q 776 -215 776 -214 q 776 -216 776 -215 q 776 -218 776 -217 q 751 -284 776 -254 q 689 -336 725 -314 q 665 -350 676 -344 q 640 -360 653 -356 q 616 -366 628 -364 q 592 -368 604 -368 q 549 -362 571 -369 q 503 -340 526 -356 l 468 -318 l 467 -312 l 475 -317 q 488 -324 482 -321 q 499 -331 493 -328 q 515 -336 507 -333 q 533 -339 524 -339 q 536 -339 535 -339 q 539 -339 538 -339 q 540 -339 539 -339 q 543 -339 542 -339 q 552 -338 547 -339 q 561 -337 557 -337 q 574 -334 567 -336 q 588 -328 581 -332 l 633 -307 q 694 -265 669 -290 q 719 -201 719 -239 q 713 -162 719 -183 q 692 -118 707 -142 q 673 -108 688 -111 q 640 -104 658 -104 q 628 -104 635 -104 q 617 -106 622 -104 l 550 -112 l 482 -128 l 454 -94 l 504 26 q 435 51 460 42 q 396 69 411 61 q 388 74 392 71 q 379 79 383 76 q 358 92 368 85 q 331 111 347 100 l 331 113 z "},"":{"ha":1163,"x_min":44,"x_max":1126,"o":"m 133 865 l 131 864 q 176 880 138 868 q 260 908 215 892 q 293 921 276 914 q 325 935 310 928 q 356 953 340 943 q 385 972 371 963 q 437 1009 413 992 q 481 1028 461 1026 q 492 1029 486 1029 q 506 1029 499 1029 q 545 1028 524 1029 q 590 1024 567 1026 q 601 1022 596 1022 q 613 1021 607 1021 l 929 989 q 964 983 935 988 q 1028 969 993 979 q 1094 944 1064 960 q 1126 906 1125 929 q 1126 906 1126 906 q 1126 904 1126 906 q 1122 885 1126 894 q 1108 865 1117 875 q 1094 849 1103 857 q 1078 832 1086 840 q 1065 818 1071 825 q 1053 804 1058 811 q 1033 777 1042 789 q 1014 753 1024 765 q 1013 750 1014 751 q 1011 749 1011 749 q 992 724 1001 736 q 971 697 982 711 q 979 724 976 711 q 982 749 982 736 q 977 784 982 767 q 961 819 972 801 q 904 865 940 856 q 828 878 868 875 q 814 879 821 879 q 800 881 807 879 l 513 914 q 464 917 488 915 q 417 919 440 919 q 367 916 390 919 q 319 903 343 913 q 267 829 290 890 q 235 697 244 768 q 231 664 232 681 q 229 632 229 647 l 226 564 l 831 543 q 853 542 842 542 q 874 542 864 542 q 890 542 882 542 q 906 542 897 542 q 938 544 921 542 q 974 549 954 546 q 997 553 986 551 q 1018 557 1008 556 q 1040 563 1029 560 q 1063 569 1050 565 l 1065 558 q 1039 544 1056 553 q 1001 526 1022 535 q 966 511 985 518 q 928 499 947 504 q 922 498 925 499 q 915 496 918 497 q 758 474 840 479 q 576 467 675 468 l 268 464 q 312 406 283 439 q 376 336 340 372 q 438 282 406 308 q 506 233 471 256 q 567 197 538 214 q 628 165 597 179 q 715 133 671 144 q 807 121 758 121 q 847 123 826 121 q 890 129 868 125 q 915 136 901 132 q 940 146 928 140 q 960 156 950 151 q 981 167 971 161 q 1033 197 1011 183 q 1056 204 1056 210 q 1051 192 1056 199 q 1040 178 1047 185 q 1028 167 1035 172 q 1014 157 1021 161 q 1010 154 1013 156 q 1006 151 1008 153 l 835 46 q 805 28 819 35 q 776 17 790 21 q 721 3 749 7 q 657 -3 693 -1 q 649 -3 653 -3 q 640 -3 644 -3 q 563 5 604 -3 q 481 31 522 13 q 417 62 449 43 q 357 104 386 81 l 194 238 q 81 373 117 299 q 44 544 44 447 q 44 567 44 556 q 46 589 44 578 q 49 624 47 606 q 56 658 51 642 q 87 781 67 724 q 128 860 107 838 q 131 862 129 861 q 133 864 132 863 l 133 865 m 718 1356 l 717 1360 l 849 1381 q 857 1380 853 1379 q 865 1382 861 1381 q 868 1382 867 1382 q 869 1382 869 1382 q 884 1385 878 1383 q 894 1386 890 1386 q 899 1386 897 1386 q 901 1385 901 1386 q 898 1378 903 1383 q 885 1369 893 1374 q 883 1367 885 1368 q 882 1367 882 1367 q 875 1362 878 1364 q 869 1358 872 1360 l 649 1219 q 639 1212 643 1215 q 629 1206 635 1208 q 615 1198 622 1201 q 600 1192 608 1194 q 582 1185 590 1188 q 565 1181 574 1182 q 551 1176 558 1178 q 538 1174 544 1175 q 531 1172 535 1172 q 524 1171 528 1172 l 404 1150 q 393 1147 399 1147 q 382 1144 388 1146 q 380 1144 381 1144 q 379 1143 379 1143 q 360 1140 369 1142 q 344 1138 351 1138 q 341 1138 343 1138 q 338 1139 339 1138 q 336 1148 333 1143 q 346 1158 339 1153 q 352 1163 349 1160 q 360 1168 356 1165 q 367 1173 363 1171 q 374 1176 371 1175 l 601 1314 q 612 1319 607 1315 q 621 1325 617 1322 q 633 1333 626 1329 q 646 1339 639 1336 q 660 1344 653 1342 q 674 1347 667 1346 q 686 1349 681 1349 q 699 1351 692 1350 q 708 1352 703 1351 q 718 1354 713 1353 l 718 1356 z "},"":{"ha":1346,"x_min":36,"x_max":1307,"o":"m 282 0 l 282 213 l 282 924 l 36 928 l 210 1019 l 475 1019 l 475 879 l 517 907 q 557 931 536 918 q 599 954 578 943 q 730 1017 667 992 q 838 1050 793 1043 q 841 1050 839 1050 q 844 1051 843 1050 q 848 1051 846 1051 q 851 1051 850 1051 q 941 1028 889 1051 q 1049 967 993 1006 q 1226 788 1146 897 q 1307 556 1307 678 q 1269 397 1307 474 q 1186 258 1232 319 q 1128 188 1156 218 q 1083 142 1100 158 l 901 -35 q 881 -56 893 -43 q 853 -81 868 -68 q 847 -86 850 -83 q 842 -92 844 -89 q 795 -130 817 -115 q 771 -133 774 -144 q 787 -101 768 -125 q 828 -51 806 -78 q 828 -49 828 -50 q 831 -47 829 -49 q 846 -28 839 -37 q 860 -11 853 -19 l 917 63 q 969 133 944 97 q 1014 206 994 169 q 1079 349 1056 276 q 1106 499 1103 422 q 1106 503 1106 501 q 1106 507 1106 506 q 1058 678 1106 599 q 956 813 1011 758 q 914 847 935 832 q 875 872 893 863 l 788 922 q 776 926 785 922 q 753 933 767 929 q 727 941 742 938 q 697 946 713 944 q 687 947 692 947 q 678 947 682 947 q 664 947 671 947 q 650 944 657 946 q 543 882 593 932 q 475 774 493 832 q 470 749 472 761 q 468 726 468 738 l 468 69 l 282 0 l 282 0 m 276 1203 l 279 1201 q 290 1214 285 1208 q 299 1224 294 1219 q 301 1227 300 1225 q 306 1231 303 1229 q 311 1235 308 1233 q 317 1240 314 1238 l 432 1342 q 449 1356 442 1349 q 465 1369 457 1363 q 499 1393 482 1383 q 540 1407 517 1403 q 551 1409 546 1408 q 563 1410 557 1410 q 567 1410 565 1410 q 572 1411 569 1411 q 601 1408 588 1411 q 628 1401 614 1406 q 654 1391 640 1397 q 682 1378 668 1385 l 813 1317 q 833 1306 824 1310 q 854 1301 843 1303 q 874 1298 864 1299 q 894 1297 883 1297 q 914 1297 904 1297 q 935 1299 924 1297 q 1024 1315 985 1301 q 1099 1353 1063 1328 q 1121 1369 1110 1360 q 1143 1388 1132 1378 q 1149 1392 1146 1390 q 1154 1394 1151 1393 q 1173 1401 1164 1401 q 1182 1394 1182 1400 q 1180 1388 1182 1392 q 1171 1376 1178 1383 q 1156 1360 1163 1368 q 1142 1347 1149 1353 q 1136 1342 1139 1344 q 1131 1336 1133 1339 q 1118 1325 1125 1331 q 1103 1313 1111 1319 l 996 1228 q 972 1208 983 1217 q 949 1190 960 1199 q 902 1165 926 1175 q 846 1150 878 1154 q 829 1148 838 1149 q 813 1147 821 1147 q 773 1151 792 1147 q 736 1160 754 1154 q 705 1173 721 1165 q 671 1190 689 1181 l 538 1264 q 525 1268 531 1265 q 514 1274 519 1271 q 492 1278 503 1276 q 468 1281 482 1281 q 465 1281 467 1281 q 460 1281 463 1281 q 406 1269 429 1281 q 360 1240 382 1258 q 333 1216 347 1229 q 304 1189 319 1203 q 280 1178 286 1175 q 274 1190 274 1182 q 274 1197 274 1193 q 276 1201 275 1200 l 276 1203 z "},"":{"ha":1185,"x_min":42,"x_max":1143,"o":"m 778 1022 l 775 1021 q 1040 851 939 972 q 1143 558 1142 731 q 1143 555 1143 557 q 1143 551 1143 553 q 1143 547 1143 549 q 1143 543 1143 546 q 1108 340 1143 431 q 976 188 1072 250 l 781 60 q 661 1 721 19 q 540 -17 601 -17 q 423 -1 482 -17 q 303 46 364 15 q 109 224 176 113 q 42 472 42 336 q 43 519 42 496 q 49 564 44 542 q 110 755 67 675 q 250 892 154 835 l 446 1010 q 519 1035 476 1026 q 613 1044 563 1044 q 673 1042 642 1044 q 736 1032 704 1039 q 757 1026 746 1029 q 778 1021 768 1024 l 778 1022 m 251 372 l 253 371 q 290 317 260 349 q 367 251 319 286 q 484 179 418 214 q 619 125 550 144 q 675 114 647 118 q 729 110 703 110 q 810 122 771 110 q 881 161 849 133 q 940 272 917 193 q 964 446 964 351 q 963 474 964 460 q 961 503 963 489 q 935 638 956 572 q 872 756 914 704 q 761 845 829 810 q 621 899 693 881 q 520 919 569 913 q 431 925 471 925 q 364 920 392 925 q 324 907 336 915 q 253 780 282 879 q 225 565 225 681 q 225 551 225 558 q 225 536 225 544 q 233 451 226 493 q 251 371 239 410 l 251 372 m 429 1393 l 429 1396 l 510 1321 q 513 1317 511 1318 q 517 1314 514 1315 q 520 1310 518 1311 q 524 1306 522 1308 q 534 1294 529 1300 q 539 1285 539 1289 q 535 1274 539 1281 q 525 1261 531 1268 q 522 1258 524 1260 q 518 1254 519 1257 q 515 1251 517 1253 q 510 1246 513 1249 l 421 1157 q 419 1153 419 1154 q 417 1151 418 1153 q 413 1149 415 1150 q 408 1146 411 1147 q 402 1141 406 1143 q 396 1139 399 1139 q 390 1140 393 1139 q 385 1144 388 1142 q 382 1147 383 1146 q 379 1150 381 1149 q 375 1153 376 1151 q 372 1157 374 1156 l 283 1250 q 280 1252 282 1250 q 275 1256 278 1254 q 272 1258 274 1257 q 268 1261 271 1260 q 258 1272 263 1267 q 254 1285 254 1278 q 254 1290 254 1288 q 256 1293 254 1292 q 264 1303 256 1294 q 283 1321 272 1311 q 286 1324 285 1322 q 289 1326 288 1325 q 297 1334 293 1331 q 306 1340 301 1338 l 367 1392 q 370 1394 368 1392 q 375 1397 372 1396 q 376 1399 375 1399 q 378 1401 378 1400 q 390 1410 383 1406 q 400 1414 396 1414 q 400 1414 400 1414 q 401 1414 400 1414 q 401 1414 401 1414 q 401 1414 401 1414 q 411 1408 406 1413 q 421 1399 417 1404 q 426 1395 424 1397 q 429 1392 428 1393 l 429 1393 m 807 1396 l 807 1399 l 888 1324 q 890 1319 889 1321 q 894 1317 892 1318 q 898 1313 896 1314 q 901 1308 900 1311 q 912 1297 907 1303 q 917 1288 917 1292 q 913 1277 917 1283 q 903 1264 908 1271 q 899 1261 901 1263 q 896 1257 897 1260 q 892 1253 894 1256 q 888 1249 890 1251 l 799 1160 q 797 1156 797 1157 q 794 1154 796 1156 q 791 1151 793 1153 q 786 1149 789 1150 q 780 1144 783 1146 q 774 1142 776 1142 q 768 1143 771 1142 q 763 1147 765 1144 q 760 1150 761 1149 q 757 1153 758 1151 q 753 1156 754 1154 q 750 1160 751 1158 l 660 1253 q 656 1255 658 1253 q 651 1258 654 1257 q 649 1261 650 1260 q 644 1264 647 1263 q 635 1275 639 1269 q 631 1288 631 1281 q 631 1292 631 1290 q 632 1296 631 1294 q 640 1306 632 1297 q 660 1324 649 1314 q 663 1326 661 1325 q 665 1329 664 1328 q 674 1337 669 1333 q 682 1343 678 1340 l 744 1394 q 748 1397 746 1394 q 753 1400 750 1399 q 754 1402 753 1401 q 756 1404 756 1403 q 767 1413 761 1408 q 778 1417 774 1417 q 778 1417 778 1417 q 779 1417 778 1417 q 779 1417 779 1417 q 779 1417 779 1417 q 789 1411 783 1415 q 799 1401 794 1407 q 803 1398 801 1400 q 807 1394 806 1396 l 807 1396 z "},"":{"ha":1468,"x_min":42,"x_max":1439,"o":"m 297 564 l 296 560 q 300 526 297 543 q 307 494 303 510 q 429 306 338 397 q 625 161 521 215 q 728 117 676 133 q 822 101 779 101 q 825 101 824 101 q 828 101 826 101 q 831 101 829 101 q 833 101 832 101 q 924 119 889 104 q 978 150 958 133 q 1007 185 1000 169 q 1014 200 1014 200 l 1014 907 l 764 910 l 858 979 q 866 983 863 981 q 874 989 869 986 q 888 997 881 993 q 904 1004 896 1001 q 915 1007 910 1006 q 926 1010 921 1008 q 939 1012 932 1011 q 954 1013 946 1013 l 1207 1014 l 1210 811 l 1214 100 l 1439 92 l 1340 17 q 1337 13 1339 14 q 1332 10 1335 11 q 1320 3 1326 6 q 1306 -3 1314 0 q 1295 -6 1300 -4 q 1286 -7 1290 -7 q 1276 -7 1281 -7 q 1267 -7 1272 -7 q 1263 -7 1265 -7 q 1258 -7 1261 -7 l 1018 -3 l 1018 139 l 874 56 q 847 39 860 46 q 819 26 833 32 q 714 -13 767 0 q 613 -26 661 -26 q 592 -26 603 -26 q 571 -24 582 -25 q 479 13 538 -19 q 358 96 421 44 q 199 261 272 165 q 114 457 126 357 q 112 470 113 464 q 111 482 111 476 q 111 486 111 485 q 111 489 111 488 q 156 647 111 567 q 253 817 200 728 q 258 823 256 819 q 261 829 260 826 l 307 908 l 42 913 q 74 936 56 924 q 110 958 92 949 q 176 993 146 979 q 211 1008 207 1007 q 239 1013 221 1011 q 279 1014 257 1014 q 312 1013 294 1014 q 347 1013 329 1013 q 386 1010 367 1011 q 424 1007 406 1008 q 472 1002 451 1004 q 493 1000 492 1000 q 460 950 490 999 q 396 835 431 901 q 375 797 385 817 q 356 757 365 776 q 315 653 332 704 q 297 568 297 603 q 297 567 297 568 q 297 565 297 567 q 297 563 297 564 q 297 563 297 563 l 297 564 m 547 1392 l 547 1394 l 628 1319 q 631 1315 629 1317 q 635 1313 632 1314 q 638 1308 636 1310 q 642 1304 640 1307 q 652 1293 647 1299 q 657 1283 657 1288 q 653 1273 657 1279 q 643 1260 649 1267 q 640 1257 642 1258 q 636 1253 638 1256 q 633 1249 635 1251 q 628 1244 631 1247 l 539 1156 q 537 1152 538 1153 q 535 1150 536 1151 q 531 1147 533 1149 q 526 1144 529 1146 q 520 1140 524 1142 q 514 1138 517 1138 q 508 1139 511 1138 q 503 1143 506 1140 q 500 1146 501 1144 q 497 1149 499 1147 q 493 1152 494 1150 q 490 1156 492 1154 l 401 1249 q 398 1251 400 1249 q 393 1254 396 1253 q 390 1257 392 1256 q 386 1260 389 1258 q 376 1271 381 1265 q 372 1283 372 1276 q 372 1288 372 1286 q 374 1292 372 1290 q 382 1301 374 1293 q 401 1319 390 1310 q 404 1322 403 1321 q 407 1325 406 1324 q 415 1333 411 1329 q 424 1339 419 1336 l 485 1390 q 488 1392 486 1390 q 493 1396 490 1394 q 494 1398 493 1397 q 496 1400 496 1399 q 508 1408 501 1404 q 518 1413 514 1413 q 518 1413 518 1413 q 519 1413 518 1413 q 519 1413 519 1413 q 519 1413 519 1413 q 529 1407 524 1411 q 539 1397 535 1403 q 544 1394 542 1396 q 547 1390 546 1392 l 547 1392 m 925 1394 l 925 1397 l 1006 1322 q 1008 1318 1007 1319 q 1013 1315 1010 1317 q 1016 1311 1014 1313 q 1019 1307 1018 1310 q 1030 1296 1025 1301 q 1035 1286 1035 1290 q 1031 1276 1035 1282 q 1021 1263 1026 1269 q 1017 1260 1019 1261 q 1014 1256 1015 1258 q 1010 1252 1013 1254 q 1006 1247 1008 1250 l 917 1158 q 915 1155 915 1156 q 913 1153 914 1154 q 909 1150 911 1151 q 904 1147 907 1149 q 898 1142 901 1144 q 892 1140 894 1140 q 886 1142 889 1140 q 881 1146 883 1143 q 878 1149 879 1147 q 875 1151 876 1150 q 871 1155 872 1153 q 868 1158 869 1157 l 779 1251 q 776 1253 778 1251 q 771 1257 774 1256 q 768 1260 769 1258 q 764 1263 767 1261 q 754 1274 758 1268 q 750 1286 750 1279 q 750 1291 750 1289 q 751 1294 750 1293 q 760 1304 751 1296 q 779 1322 768 1313 q 782 1325 781 1324 q 785 1328 783 1326 q 793 1335 789 1332 q 801 1342 797 1339 l 863 1393 q 866 1395 864 1393 q 871 1399 868 1397 q 872 1401 871 1400 q 874 1403 874 1401 q 885 1411 879 1407 q 896 1415 892 1415 q 896 1415 896 1415 q 897 1415 896 1415 q 897 1415 897 1415 q 897 1415 897 1415 q 907 1410 901 1414 q 917 1400 913 1406 q 922 1397 919 1399 q 925 1393 924 1394 l 925 1394 z "},"":{"ha":1458,"x_min":-129,"x_max":1483,"o":"m -129 -192 l -129 -194 q -90 -160 -107 -176 q -58 -128 -74 -144 q -36 -105 -47 -117 q -15 -82 -25 -93 q 14 -45 0 -64 q 44 -4 28 -26 q 68 27 58 13 q 86 56 78 42 q 89 61 88 58 q 93 67 90 64 q 119 112 104 86 q 157 179 133 138 l 260 356 l 172 356 l 297 414 l 583 904 q 550 905 565 904 q 519 907 535 906 q 508 907 514 907 q 494 907 501 907 q 478 907 486 907 q 460 907 469 907 q 424 906 440 907 q 393 903 408 904 q 365 901 379 903 q 333 897 350 899 q 346 910 340 904 q 357 921 351 915 q 372 934 364 928 q 388 946 379 940 q 402 955 394 950 q 419 965 410 960 q 444 980 433 974 q 467 992 456 986 q 509 1006 486 1001 q 575 1010 532 1010 l 764 1008 l 860 825 l 1225 114 l 1346 114 q 1368 113 1358 113 q 1388 113 1378 113 q 1405 115 1396 114 q 1424 117 1414 115 q 1439 119 1432 118 q 1454 124 1446 121 q 1468 127 1461 125 q 1483 132 1475 129 q 1447 97 1467 113 q 1407 67 1428 81 q 1351 34 1378 47 q 1307 13 1324 21 q 1265 3 1292 6 q 1206 0 1238 0 q 1198 0 1201 0 q 1190 0 1194 0 q 1143 1 1167 0 q 1101 4 1119 1 q 1074 7 1085 6 q 1061 8 1063 8 l 875 358 l 364 365 l 211 119 q 194 91 203 104 q 175 64 185 78 q 132 11 156 38 q 79 -43 108 -15 q 42 -76 60 -61 q 8 -106 25 -92 q -32 -137 -11 -122 q -78 -165 -53 -151 q -101 -178 -89 -171 q -128 -192 -114 -185 l -129 -192 m 414 440 l 836 439 l 643 806 l 414 440 l 414 440 m 764 1357 l 763 1361 l 894 1382 q 903 1381 899 1381 q 911 1383 907 1382 q 914 1383 913 1383 q 915 1383 915 1383 q 930 1386 924 1385 q 940 1388 936 1388 q 945 1388 943 1388 q 947 1386 947 1388 q 944 1380 949 1385 q 931 1371 939 1375 q 929 1369 931 1369 q 928 1368 928 1368 q 921 1363 924 1365 q 915 1360 918 1361 l 696 1221 q 683 1212 689 1215 q 671 1204 676 1208 q 659 1199 665 1201 q 646 1193 653 1196 q 628 1186 636 1189 q 611 1182 619 1183 q 597 1178 604 1179 q 583 1175 590 1176 q 577 1174 581 1174 q 569 1172 574 1174 l 450 1151 q 439 1148 444 1149 q 428 1146 433 1147 q 426 1145 426 1146 q 425 1144 425 1144 q 406 1141 415 1143 q 390 1139 397 1139 q 387 1139 389 1139 q 383 1140 385 1139 q 382 1149 379 1144 q 392 1160 385 1154 q 398 1164 394 1161 q 406 1169 401 1167 q 413 1174 408 1172 q 419 1178 417 1176 l 647 1315 q 658 1320 653 1317 q 667 1326 663 1324 q 678 1334 672 1331 q 692 1340 685 1338 q 710 1347 701 1344 q 728 1350 719 1349 q 736 1352 732 1351 q 746 1353 740 1353 q 754 1353 750 1353 q 764 1356 758 1354 l 764 1357 z "},"":{"ha":1458,"x_min":-190,"x_max":1422,"o":"m -190 -194 l -190 -197 q -151 -163 -168 -179 q -119 -131 -135 -147 q -97 -108 -108 -119 q -76 -85 -86 -96 q -47 -48 -61 -67 q -15 -7 -32 -29 q 8 24 -1 10 q 25 53 17 39 q 28 58 26 56 q 32 64 29 61 q 58 109 43 83 q 96 176 72 135 l 199 353 l 111 353 l 236 411 l 522 901 q 489 902 504 901 q 458 904 474 903 q 447 904 453 904 q 433 904 440 904 q 417 904 425 904 q 399 904 408 904 q 363 903 379 904 q 332 900 347 901 q 303 898 318 900 q 272 894 289 896 q 285 907 279 901 q 296 918 290 913 q 310 931 303 925 q 326 943 318 938 q 341 952 333 947 q 358 963 349 957 q 383 977 372 971 q 406 989 394 983 q 448 1003 425 999 q 514 1007 471 1007 l 703 1006 l 799 822 l 1164 111 l 1285 111 q 1307 110 1297 110 q 1326 110 1317 110 q 1344 112 1335 111 q 1363 114 1353 113 q 1378 117 1371 115 q 1393 121 1385 118 q 1407 124 1400 122 q 1422 129 1414 126 q 1386 94 1406 110 q 1346 64 1367 78 q 1290 31 1317 44 q 1246 10 1263 18 q 1203 0 1231 3 q 1144 -3 1176 -3 q 1137 -3 1140 -3 q 1129 -3 1133 -3 q 1082 -1 1106 -3 q 1040 1 1058 0 q 1013 4 1024 3 q 1000 6 1001 6 l 814 356 l 303 363 l 150 117 q 133 88 142 101 q 114 61 124 75 q 71 8 94 35 q 18 -46 47 -18 q -17 -79 0 -64 q -51 -108 -35 -94 q -93 -140 -72 -125 q -139 -168 -114 -154 q -162 -181 -150 -174 q -189 -194 -175 -187 l -190 -194 m 353 438 l 775 436 l 582 803 l 353 438 l 353 438 m 603 1171 l 604 1171 q 596 1172 600 1171 q 588 1175 592 1174 q 558 1184 572 1179 q 532 1194 544 1189 q 502 1208 517 1201 q 469 1224 488 1215 l 317 1304 q 314 1305 315 1304 q 311 1306 313 1306 q 294 1318 301 1311 q 286 1333 286 1325 q 292 1341 286 1338 q 306 1347 297 1344 q 319 1352 313 1350 q 335 1357 326 1354 l 422 1388 q 426 1387 424 1386 q 429 1389 428 1388 q 441 1394 435 1392 q 453 1396 447 1396 q 456 1396 454 1396 q 458 1396 457 1396 q 460 1395 458 1396 q 463 1394 461 1394 q 502 1369 474 1390 q 564 1325 531 1349 q 571 1320 568 1322 q 576 1317 574 1318 q 597 1302 586 1308 q 617 1289 607 1296 q 680 1250 651 1268 q 736 1215 708 1232 q 747 1209 742 1213 q 758 1203 753 1206 q 807 1174 782 1189 q 861 1144 832 1160 q 851 1144 858 1144 q 833 1144 844 1144 q 769 1146 808 1144 q 686 1153 729 1147 q 644 1160 665 1156 q 603 1169 622 1164 l 603 1171 z "},"":{"ha":1458,"x_min":-190,"x_max":1422,"o":"m -190 -194 l -190 -197 q -151 -163 -168 -179 q -119 -131 -135 -147 q -97 -108 -108 -119 q -76 -85 -86 -96 q -47 -48 -61 -67 q -15 -7 -32 -29 q 8 24 -1 10 q 25 53 17 39 q 28 58 26 56 q 32 64 29 61 q 58 109 43 83 q 96 176 72 135 l 199 353 l 111 353 l 236 411 l 522 901 q 489 902 504 901 q 458 904 474 903 q 447 904 453 904 q 433 904 440 904 q 417 904 425 904 q 399 904 408 904 q 363 903 379 904 q 332 900 347 901 q 303 898 318 900 q 272 894 289 896 q 285 907 279 901 q 296 918 290 913 q 310 931 303 925 q 326 943 318 938 q 341 952 333 947 q 358 963 349 957 q 383 977 372 971 q 406 989 394 983 q 448 1003 425 999 q 514 1007 471 1007 l 703 1006 l 799 822 l 1164 111 l 1285 111 q 1307 110 1297 110 q 1326 110 1317 110 q 1344 112 1335 111 q 1363 114 1353 113 q 1378 117 1371 115 q 1393 121 1385 118 q 1407 124 1400 122 q 1422 129 1414 126 q 1386 94 1406 110 q 1346 64 1367 78 q 1290 31 1317 44 q 1246 10 1263 18 q 1203 0 1231 3 q 1144 -3 1176 -3 q 1137 -3 1140 -3 q 1129 -3 1133 -3 q 1082 -1 1106 -3 q 1040 1 1058 0 q 1013 4 1024 3 q 1000 6 1001 6 l 814 356 l 303 363 l 150 117 q 133 88 142 101 q 114 61 124 75 q 71 8 94 35 q 18 -46 47 -18 q -17 -79 0 -64 q -51 -108 -35 -94 q -93 -140 -72 -125 q -139 -168 -114 -154 q -162 -181 -150 -174 q -189 -194 -175 -187 l -190 -194 m 353 438 l 775 436 l 582 803 l 353 438 l 353 438 m 507 1349 l 651 1378 q 657 1377 654 1376 q 661 1378 660 1378 q 667 1379 664 1379 q 672 1381 669 1379 q 675 1381 674 1381 q 678 1381 676 1381 q 682 1381 681 1381 q 686 1379 683 1381 q 690 1378 688 1379 q 693 1378 692 1378 q 733 1353 704 1374 q 796 1308 763 1332 q 802 1303 799 1306 q 808 1300 806 1301 q 828 1286 818 1293 q 849 1272 839 1279 q 910 1234 882 1251 q 965 1200 938 1217 q 976 1192 971 1196 q 989 1186 982 1189 q 1038 1158 1013 1172 q 1092 1128 1063 1143 q 1082 1128 1089 1128 q 1064 1128 1075 1128 q 1000 1129 1039 1128 q 921 1136 961 1131 q 876 1143 899 1139 q 835 1153 854 1147 q 826 1156 831 1154 q 818 1158 822 1157 q 789 1167 803 1163 q 763 1178 775 1172 q 733 1192 747 1185 q 700 1207 718 1199 l 554 1283 l 442 1211 q 432 1203 436 1207 q 422 1197 428 1200 q 408 1190 415 1193 q 393 1183 401 1186 q 375 1176 383 1179 q 358 1172 367 1174 q 344 1168 351 1169 q 331 1165 338 1167 q 324 1164 328 1164 q 317 1163 321 1164 l 197 1142 q 187 1139 192 1140 q 176 1136 182 1138 q 173 1136 175 1136 q 169 1135 171 1136 q 151 1131 160 1133 q 136 1129 142 1129 q 133 1129 135 1129 q 131 1131 131 1129 q 131 1131 131 1131 q 131 1132 131 1132 q 129 1133 129 1133 q 129 1133 129 1133 q 131 1140 129 1136 q 138 1147 133 1143 q 145 1154 140 1150 q 156 1161 150 1158 q 161 1165 158 1163 q 167 1168 164 1167 l 394 1306 q 405 1310 400 1307 q 414 1315 410 1313 q 427 1322 421 1319 q 440 1328 433 1325 q 456 1333 449 1331 q 471 1339 464 1336 q 488 1344 479 1342 q 507 1347 496 1346 l 507 1349 z "},"":{"ha":1456,"x_min":-190,"x_max":1422,"o":"m -190 -194 l -190 -197 q -151 -163 -168 -179 q -119 -131 -135 -147 q -97 -108 -108 -119 q -76 -85 -86 -96 q -47 -48 -61 -67 q -15 -7 -32 -29 q 8 24 -1 10 q 25 53 17 39 q 28 58 26 56 q 32 64 29 61 q 58 109 43 83 q 96 176 72 135 l 199 353 l 111 353 l 236 411 l 522 901 q 489 902 504 901 q 458 904 474 903 q 447 904 453 904 q 433 904 440 904 q 417 904 425 904 q 399 904 408 904 q 363 903 379 904 q 332 900 347 901 q 303 898 318 900 q 272 894 289 896 q 285 907 279 901 q 296 918 290 913 q 310 931 303 925 q 326 943 318 938 q 341 952 333 947 q 358 963 349 957 q 383 977 372 971 q 406 989 394 983 q 448 1003 425 999 q 514 1007 471 1007 l 703 1006 l 799 822 l 1164 111 l 1285 111 q 1307 110 1297 110 q 1326 110 1317 110 q 1344 112 1335 111 q 1363 114 1353 113 q 1378 117 1371 115 q 1393 121 1385 118 q 1407 124 1400 122 q 1422 129 1414 126 q 1386 94 1406 110 q 1346 64 1367 78 q 1290 31 1317 44 q 1246 10 1263 18 q 1203 0 1231 3 q 1144 -3 1176 -3 q 1137 -3 1140 -3 q 1129 -3 1133 -3 q 1082 -1 1106 -3 q 1040 1 1058 0 q 1013 4 1024 3 q 1000 6 1001 6 l 814 356 l 303 363 l 150 117 q 133 88 142 101 q 114 61 124 75 q 71 8 94 35 q 18 -46 47 -18 q -17 -79 0 -64 q -51 -108 -35 -94 q -93 -140 -72 -125 q -139 -168 -114 -154 q -162 -181 -150 -174 q -189 -194 -175 -187 l -190 -194 m 353 438 l 775 436 l 582 803 l 353 438 l 353 438 m 407 1392 l 407 1394 l 488 1319 q 490 1315 489 1317 q 494 1313 492 1314 q 498 1308 496 1310 q 501 1304 500 1307 q 512 1293 507 1299 q 517 1283 517 1288 q 513 1273 517 1279 q 503 1260 508 1267 q 499 1257 501 1258 q 496 1253 497 1256 q 492 1249 494 1251 q 488 1244 490 1247 l 399 1156 q 397 1152 397 1153 q 394 1150 396 1151 q 391 1147 393 1149 q 386 1144 389 1146 q 380 1140 383 1142 q 374 1138 376 1138 q 368 1139 371 1138 q 363 1143 365 1140 q 360 1146 361 1144 q 357 1149 358 1147 q 353 1152 354 1150 q 350 1156 351 1154 l 261 1249 q 258 1251 260 1249 q 253 1254 256 1253 q 250 1257 251 1256 q 246 1260 249 1258 q 236 1271 240 1265 q 232 1283 232 1276 q 232 1288 232 1286 q 233 1292 232 1290 q 242 1301 233 1293 q 261 1319 250 1310 q 264 1322 263 1321 q 267 1325 265 1324 q 275 1333 271 1329 q 283 1339 279 1336 l 344 1390 q 348 1392 346 1390 q 353 1396 350 1394 q 354 1398 353 1397 q 356 1400 356 1399 q 367 1408 361 1404 q 378 1413 374 1413 q 378 1413 378 1413 q 379 1413 378 1413 q 379 1413 379 1413 q 379 1413 379 1413 q 389 1407 383 1411 q 399 1397 394 1403 q 403 1394 401 1396 q 407 1390 406 1392 l 407 1392 m 785 1394 l 785 1397 l 865 1322 q 868 1318 867 1319 q 872 1315 869 1317 q 876 1311 874 1313 q 879 1307 878 1310 q 890 1296 885 1301 q 894 1286 894 1290 q 890 1276 894 1282 q 881 1263 886 1269 q 877 1260 879 1261 q 874 1256 875 1258 q 870 1252 872 1254 q 865 1247 868 1250 l 776 1158 q 774 1155 775 1156 q 772 1153 774 1154 q 769 1150 771 1151 q 764 1147 767 1149 q 758 1142 761 1144 q 751 1140 754 1140 q 746 1142 749 1140 q 740 1146 743 1143 q 738 1149 739 1147 q 735 1151 736 1150 q 731 1155 732 1153 q 728 1158 729 1157 l 638 1251 q 634 1253 636 1251 q 629 1257 632 1256 q 626 1260 628 1258 q 622 1263 625 1261 q 613 1274 617 1268 q 608 1286 608 1279 q 608 1291 608 1289 q 610 1294 608 1293 q 618 1304 610 1296 q 638 1322 626 1313 q 640 1325 639 1324 q 643 1328 642 1326 q 651 1335 647 1332 q 660 1342 656 1339 l 722 1393 q 726 1395 724 1393 q 731 1399 728 1397 q 732 1401 731 1400 q 733 1403 733 1401 q 745 1411 739 1407 q 756 1415 751 1415 q 756 1415 756 1415 q 757 1415 756 1415 q 757 1415 757 1415 q 757 1415 757 1415 q 767 1410 761 1414 q 776 1400 772 1406 q 781 1397 779 1399 q 785 1393 783 1394 l 785 1394 z "},"":{"ha":1458,"x_min":-190,"x_max":1422,"o":"m -190 -194 l -190 -197 q -151 -163 -168 -179 q -119 -131 -135 -147 q -97 -108 -108 -119 q -76 -85 -86 -96 q -47 -48 -61 -67 q -15 -7 -32 -29 q 8 24 -1 10 q 25 53 17 39 q 28 58 26 56 q 32 64 29 61 q 58 109 43 83 q 96 176 72 135 l 199 353 l 111 353 l 236 411 l 522 901 q 489 902 504 901 q 458 904 474 903 q 447 904 453 904 q 433 904 440 904 q 417 904 425 904 q 399 904 408 904 q 363 903 379 904 q 332 900 347 901 q 303 898 318 900 q 272 894 289 896 q 285 907 279 901 q 296 918 290 913 q 310 931 303 925 q 326 943 318 938 q 341 952 333 947 q 358 963 349 957 q 383 977 372 971 q 406 989 394 983 q 448 1003 425 999 q 514 1007 471 1007 l 703 1006 l 799 822 l 1164 111 l 1285 111 q 1307 110 1297 110 q 1326 110 1317 110 q 1344 112 1335 111 q 1363 114 1353 113 q 1378 117 1371 115 q 1393 121 1385 118 q 1407 124 1400 122 q 1422 129 1414 126 q 1386 94 1406 110 q 1346 64 1367 78 q 1290 31 1317 44 q 1246 10 1263 18 q 1203 0 1231 3 q 1144 -3 1176 -3 q 1137 -3 1140 -3 q 1129 -3 1133 -3 q 1082 -1 1106 -3 q 1040 1 1058 0 q 1013 4 1024 3 q 1000 6 1001 6 l 814 356 l 303 363 l 150 117 q 133 88 142 101 q 114 61 124 75 q 71 8 94 35 q 18 -46 47 -18 q -17 -79 0 -64 q -51 -108 -35 -94 q -93 -140 -72 -125 q -139 -168 -114 -154 q -162 -181 -150 -174 q -189 -194 -175 -187 l -190 -194 m 353 438 l 775 436 l 582 803 l 353 438 l 353 438 m 168 1194 l 171 1193 q 181 1206 176 1200 q 190 1215 186 1211 q 193 1219 192 1217 q 197 1222 194 1221 q 203 1227 200 1225 q 208 1232 206 1229 l 324 1333 q 341 1347 333 1340 q 357 1361 349 1354 q 391 1385 374 1375 q 432 1399 408 1394 q 443 1401 438 1400 q 454 1401 449 1401 q 459 1402 457 1401 q 464 1403 461 1403 q 492 1400 479 1403 q 519 1393 506 1397 q 546 1383 532 1389 q 574 1369 560 1376 l 704 1308 q 725 1298 715 1301 q 746 1293 735 1294 q 765 1290 756 1290 q 786 1289 775 1289 q 806 1289 796 1289 q 826 1290 815 1289 q 915 1306 876 1293 q 990 1344 954 1319 q 1013 1360 1001 1351 q 1035 1379 1024 1369 q 1040 1383 1038 1382 q 1046 1386 1043 1385 q 1065 1392 1056 1393 q 1074 1386 1074 1392 q 1072 1379 1074 1383 q 1063 1368 1069 1375 q 1047 1352 1054 1360 q 1033 1339 1040 1344 q 1028 1333 1031 1336 q 1022 1328 1025 1331 q 1010 1317 1017 1322 q 994 1304 1003 1311 l 888 1219 q 863 1199 875 1208 q 840 1182 851 1190 q 794 1156 818 1167 q 738 1142 769 1146 q 719 1140 728 1140 q 704 1139 711 1139 q 663 1142 682 1139 q 625 1153 643 1146 q 594 1166 610 1158 q 563 1182 579 1174 l 429 1256 q 417 1260 422 1257 q 406 1265 411 1263 q 384 1270 394 1268 q 360 1272 374 1272 q 356 1272 358 1272 q 351 1272 354 1272 q 297 1261 321 1272 q 251 1232 274 1250 q 225 1208 239 1221 q 196 1181 211 1194 q 172 1170 178 1167 q 165 1182 165 1174 q 166 1188 165 1185 q 168 1193 167 1192 l 168 1194 z "},"":{"ha":1463,"x_min":-181,"x_max":1432,"o":"m -181 -199 l -181 -201 q -142 -167 -158 -183 q -110 -135 -125 -151 q -87 -112 -99 -124 q -67 -89 -76 -100 q -37 -52 -51 -71 q -6 -11 -22 -33 q 17 20 7 6 q 35 49 26 35 q 38 54 36 51 q 42 60 39 57 q 67 105 53 79 q 106 172 82 131 l 208 349 l 121 349 l 246 407 l 532 897 q 499 898 514 897 q 468 900 483 899 q 456 900 463 900 q 443 900 450 900 q 426 900 435 900 q 408 900 418 900 q 373 899 389 900 q 342 896 357 897 q 313 894 328 896 q 282 890 299 892 q 294 903 289 897 q 306 914 300 908 q 320 927 313 921 q 336 939 328 933 q 351 948 343 943 q 368 958 358 953 q 393 973 382 967 q 415 985 404 979 q 458 999 435 994 q 524 1003 481 1003 l 713 1001 l 808 818 l 1174 107 l 1294 107 q 1317 106 1307 106 q 1336 106 1326 106 q 1353 108 1344 107 q 1372 110 1363 108 q 1388 113 1381 111 q 1403 117 1394 114 q 1417 120 1410 118 q 1432 125 1424 122 q 1396 90 1415 106 q 1356 60 1376 74 q 1299 27 1326 40 q 1256 6 1272 14 q 1213 -3 1240 0 q 1154 -7 1186 -7 q 1147 -7 1150 -7 q 1139 -7 1143 -7 q 1092 -6 1115 -7 q 1050 -1 1068 -4 q 1022 1 1033 0 q 1010 1 1011 1 l 824 351 l 313 358 l 160 113 q 142 84 151 97 q 124 57 133 71 q 81 4 104 31 q 28 -50 57 -22 q -8 -83 8 -68 q -42 -112 -25 -99 q -83 -144 -62 -129 q -129 -172 -104 -158 q -153 -185 -140 -178 q -179 -199 -165 -192 l -181 -199 m 363 433 l 785 432 l 592 799 l 363 433 l 363 433 m 704 1340 l 704 1339 q 713 1316 711 1328 q 717 1293 715 1304 q 701 1240 717 1265 q 658 1199 686 1214 l 556 1146 q 533 1136 544 1139 q 508 1133 521 1133 q 459 1146 482 1133 q 422 1182 436 1158 q 414 1202 417 1192 q 411 1222 411 1213 q 411 1228 411 1225 q 413 1235 411 1232 q 438 1291 417 1264 q 489 1332 460 1318 l 563 1369 q 582 1376 572 1372 q 601 1381 592 1379 q 611 1381 606 1381 q 621 1382 617 1382 q 668 1372 646 1382 q 704 1339 690 1363 l 704 1340 m 514 1231 l 514 1229 q 541 1197 524 1210 q 578 1185 558 1185 q 591 1186 585 1185 q 603 1190 597 1188 q 621 1209 615 1197 q 626 1235 626 1221 q 626 1244 626 1239 q 625 1253 625 1249 q 616 1282 622 1268 q 601 1304 610 1296 q 575 1325 590 1317 q 544 1333 560 1333 q 539 1333 542 1333 q 533 1332 536 1333 q 526 1331 529 1332 q 521 1328 524 1329 q 505 1310 510 1322 q 500 1286 500 1299 q 504 1256 500 1271 q 514 1229 508 1240 l 514 1231 z "},"":{"ha":1207,"x_min":36,"x_max":1172,"o":"m 331 113 l 322 118 q 120 299 204 197 q 36 524 36 400 q 36 534 36 529 q 36 544 36 539 q 37 553 36 549 q 38 564 38 558 q 73 717 46 643 q 131 836 100 790 q 142 851 136 844 q 153 864 147 858 q 194 876 154 867 q 279 899 233 885 q 319 913 300 906 q 354 926 338 919 q 374 936 364 931 q 396 947 385 942 q 416 960 406 954 q 436 974 426 967 q 497 1015 471 996 q 531 1035 524 1035 q 585 1040 556 1038 q 646 1042 615 1042 q 717 1040 681 1042 q 792 1035 754 1038 q 1044 994 928 1022 q 1171 936 1160 967 q 1172 934 1172 935 q 1172 932 1172 933 q 1172 928 1172 931 q 1172 925 1172 926 q 1167 901 1172 911 q 1154 879 1163 890 l 1058 764 q 1053 755 1056 758 q 1046 747 1050 751 q 1042 742 1044 744 q 1039 736 1040 739 q 1023 721 1031 726 q 1010 719 1015 715 q 1010 728 1008 721 q 1017 747 1013 736 q 1019 758 1018 751 q 1022 769 1021 764 q 1023 777 1022 774 q 1024 785 1024 781 q 1024 790 1024 788 q 1024 793 1024 792 q 975 849 1017 826 q 883 885 933 872 q 852 892 868 889 q 821 896 836 894 l 588 922 q 553 924 571 924 q 518 925 536 925 q 515 925 517 925 q 513 925 514 925 q 402 913 454 925 q 333 874 350 900 q 261 720 283 792 q 239 588 239 649 q 324 368 239 457 q 531 222 408 279 l 692 149 q 735 130 715 138 q 775 118 756 122 q 811 112 793 114 q 850 110 829 110 q 858 110 854 110 q 867 111 863 110 q 874 111 869 111 q 882 111 878 111 q 947 122 918 114 q 1001 142 975 129 q 1041 162 1021 151 q 1083 185 1061 172 l 1111 201 l 1108 181 l 985 103 q 949 80 965 89 q 917 63 932 71 q 874 45 896 53 q 826 29 853 38 q 799 22 814 26 q 767 14 783 18 q 719 6 742 8 q 675 3 697 3 q 669 3 672 3 q 663 3 665 3 q 615 7 639 4 q 564 15 592 10 l 510 -60 q 531 -57 521 -58 q 551 -56 542 -56 q 565 -56 558 -56 q 578 -57 571 -57 q 603 -62 590 -58 q 631 -68 617 -65 q 644 -74 633 -69 q 668 -83 656 -78 q 671 -84 669 -83 q 674 -86 672 -85 q 681 -89 678 -87 q 688 -92 685 -90 q 696 -95 692 -93 q 704 -100 700 -97 q 707 -101 706 -100 q 710 -103 708 -101 q 732 -113 722 -108 q 742 -119 742 -118 q 744 -122 743 -121 q 746 -124 744 -122 q 765 -158 756 -136 q 776 -204 774 -181 q 776 -208 776 -207 q 776 -211 776 -210 q 776 -213 776 -212 q 776 -215 776 -214 q 776 -216 776 -215 q 776 -218 776 -217 q 751 -284 776 -254 q 689 -336 725 -314 q 665 -350 676 -344 q 640 -360 653 -356 q 616 -366 628 -364 q 592 -368 604 -368 q 549 -362 571 -369 q 503 -340 526 -356 l 468 -318 l 467 -312 l 475 -317 q 488 -324 482 -321 q 499 -331 493 -328 q 515 -336 507 -333 q 533 -339 524 -339 q 536 -339 535 -339 q 539 -339 538 -339 q 540 -339 539 -339 q 543 -339 542 -339 q 552 -338 547 -339 q 561 -337 557 -337 q 574 -334 567 -336 q 588 -328 581 -332 l 633 -307 q 694 -265 669 -290 q 719 -201 719 -239 q 713 -162 719 -183 q 692 -118 707 -142 q 673 -108 688 -111 q 640 -104 658 -104 q 628 -104 635 -104 q 617 -106 622 -104 l 550 -112 l 482 -128 l 454 -94 l 504 26 q 435 51 460 42 q 396 69 411 61 q 388 74 392 71 q 379 79 383 76 q 358 92 368 85 q 331 111 347 100 l 331 113 z "},"":{"ha":1168,"x_min":44,"x_max":1126,"o":"m 133 865 l 131 864 q 176 880 138 868 q 260 908 215 892 q 293 921 276 914 q 325 935 310 928 q 356 953 340 943 q 385 972 371 963 q 437 1009 413 992 q 481 1028 461 1026 q 492 1029 486 1029 q 506 1029 499 1029 q 545 1028 524 1029 q 590 1024 567 1026 q 601 1022 596 1022 q 613 1021 607 1021 l 929 989 q 964 983 935 988 q 1028 969 993 979 q 1094 944 1064 960 q 1126 906 1125 929 q 1126 906 1126 906 q 1126 904 1126 906 q 1122 885 1126 894 q 1108 865 1117 875 q 1094 849 1103 857 q 1078 832 1086 840 q 1065 818 1071 825 q 1053 804 1058 811 q 1033 777 1042 789 q 1014 753 1024 765 q 1013 750 1014 751 q 1011 749 1011 749 q 992 724 1001 736 q 971 697 982 711 q 979 724 976 711 q 982 749 982 736 q 977 784 982 767 q 961 819 972 801 q 904 865 940 856 q 828 878 868 875 q 814 879 821 879 q 800 881 807 879 l 513 914 q 464 917 488 915 q 417 919 440 919 q 367 916 390 919 q 319 903 343 913 q 267 829 290 890 q 235 697 244 768 q 231 664 232 681 q 229 632 229 647 l 226 564 l 831 543 q 853 542 842 542 q 874 542 864 542 q 890 542 882 542 q 906 542 897 542 q 938 544 921 542 q 974 549 954 546 q 997 553 986 551 q 1018 557 1008 556 q 1040 563 1029 560 q 1063 569 1050 565 l 1065 558 q 1039 544 1056 553 q 1001 526 1022 535 q 966 511 985 518 q 928 499 947 504 q 922 498 925 499 q 915 496 918 497 q 758 474 840 479 q 576 467 675 468 l 268 464 q 312 406 283 439 q 376 336 340 372 q 438 282 406 308 q 506 233 471 256 q 567 197 538 214 q 628 165 597 179 q 715 133 671 144 q 807 121 758 121 q 847 123 826 121 q 890 129 868 125 q 915 136 901 132 q 940 146 928 140 q 960 156 950 151 q 981 167 971 161 q 1033 197 1011 183 q 1056 204 1056 210 q 1051 192 1056 199 q 1040 178 1047 185 q 1028 167 1035 172 q 1014 157 1021 161 q 1010 154 1013 156 q 1006 151 1008 153 l 835 46 q 805 28 819 35 q 776 17 790 21 q 721 3 749 7 q 657 -3 693 -1 q 649 -3 653 -3 q 640 -3 644 -3 q 563 5 604 -3 q 481 31 522 13 q 417 62 449 43 q 357 104 386 81 l 194 238 q 81 373 117 299 q 44 544 44 447 q 44 567 44 556 q 46 589 44 578 q 49 624 47 606 q 56 658 51 642 q 87 781 67 724 q 128 860 107 838 q 131 862 129 861 q 133 864 132 863 l 133 865 m 710 1356 l 708 1360 l 840 1381 q 849 1380 844 1379 q 857 1382 853 1381 q 860 1382 858 1382 q 861 1382 861 1382 q 876 1385 869 1383 q 886 1386 882 1386 q 891 1386 889 1386 q 893 1385 893 1386 q 890 1378 894 1383 q 876 1369 885 1374 q 875 1367 876 1368 q 874 1367 874 1367 q 867 1362 869 1364 q 861 1358 864 1360 l 640 1219 q 631 1212 635 1215 q 621 1206 626 1208 q 607 1198 614 1201 q 592 1192 600 1194 q 574 1185 582 1188 q 557 1181 565 1182 q 543 1176 550 1178 q 529 1174 536 1175 q 523 1172 526 1172 q 515 1171 519 1172 l 396 1150 q 385 1147 390 1147 q 374 1144 379 1146 q 372 1144 372 1144 q 371 1143 371 1143 q 352 1140 361 1142 q 336 1138 343 1138 q 333 1138 335 1138 q 329 1139 331 1138 q 328 1148 325 1143 q 338 1158 331 1153 q 344 1163 340 1160 q 351 1168 347 1165 q 358 1173 354 1171 q 365 1176 363 1175 l 593 1314 q 603 1319 599 1315 q 613 1325 608 1322 q 624 1333 618 1329 q 638 1339 631 1336 q 651 1344 644 1342 q 665 1347 658 1346 q 678 1349 672 1349 q 690 1351 683 1350 q 699 1352 694 1351 q 710 1354 704 1353 l 710 1356 z "},"":{"ha":1168,"x_min":44,"x_max":1126,"o":"m 133 865 l 131 864 q 176 880 138 868 q 260 908 215 892 q 293 921 276 914 q 325 935 310 928 q 356 953 340 943 q 385 972 371 963 q 437 1009 413 992 q 481 1028 461 1026 q 492 1029 486 1029 q 506 1029 499 1029 q 545 1028 524 1029 q 590 1024 567 1026 q 601 1022 596 1022 q 613 1021 607 1021 l 929 989 q 964 983 935 988 q 1028 969 993 979 q 1094 944 1064 960 q 1126 906 1125 929 q 1126 906 1126 906 q 1126 904 1126 906 q 1122 885 1126 894 q 1108 865 1117 875 q 1094 849 1103 857 q 1078 832 1086 840 q 1065 818 1071 825 q 1053 804 1058 811 q 1033 777 1042 789 q 1014 753 1024 765 q 1013 750 1014 751 q 1011 749 1011 749 q 992 724 1001 736 q 971 697 982 711 q 979 724 976 711 q 982 749 982 736 q 977 784 982 767 q 961 819 972 801 q 904 865 940 856 q 828 878 868 875 q 814 879 821 879 q 800 881 807 879 l 513 914 q 464 917 488 915 q 417 919 440 919 q 367 916 390 919 q 319 903 343 913 q 267 829 290 890 q 235 697 244 768 q 231 664 232 681 q 229 632 229 647 l 226 564 l 831 543 q 853 542 842 542 q 874 542 864 542 q 890 542 882 542 q 906 542 897 542 q 938 544 921 542 q 974 549 954 546 q 997 553 986 551 q 1018 557 1008 556 q 1040 563 1029 560 q 1063 569 1050 565 l 1065 558 q 1039 544 1056 553 q 1001 526 1022 535 q 966 511 985 518 q 928 499 947 504 q 922 498 925 499 q 915 496 918 497 q 758 474 840 479 q 576 467 675 468 l 268 464 q 312 406 283 439 q 376 336 340 372 q 438 282 406 308 q 506 233 471 256 q 567 197 538 214 q 628 165 597 179 q 715 133 671 144 q 807 121 758 121 q 847 123 826 121 q 890 129 868 125 q 915 136 901 132 q 940 146 928 140 q 960 156 950 151 q 981 167 971 161 q 1033 197 1011 183 q 1056 204 1056 210 q 1051 192 1056 199 q 1040 178 1047 185 q 1028 167 1035 172 q 1014 157 1021 161 q 1010 154 1013 156 q 1006 151 1008 153 l 835 46 q 805 28 819 35 q 776 17 790 21 q 721 3 749 7 q 657 -3 693 -1 q 649 -3 653 -3 q 640 -3 644 -3 q 563 5 604 -3 q 481 31 522 13 q 417 62 449 43 q 357 104 386 81 l 194 238 q 81 373 117 299 q 44 544 44 447 q 44 567 44 556 q 46 589 44 578 q 49 624 47 606 q 56 658 51 642 q 87 781 67 724 q 128 860 107 838 q 131 862 129 861 q 133 864 132 863 l 133 865 m 603 1169 l 604 1169 q 596 1171 600 1169 q 588 1174 592 1172 q 558 1183 572 1178 q 532 1193 544 1188 q 502 1207 517 1200 q 469 1222 488 1214 l 317 1303 q 314 1303 315 1303 q 311 1304 313 1304 q 294 1317 301 1310 q 286 1332 286 1324 q 292 1340 286 1336 q 306 1346 297 1343 q 319 1351 313 1349 q 335 1356 326 1353 l 422 1386 q 426 1385 424 1385 q 429 1388 428 1386 q 441 1392 435 1390 q 453 1394 447 1394 q 456 1394 454 1394 q 458 1394 457 1394 q 460 1394 458 1394 q 463 1393 461 1393 q 502 1368 474 1389 q 564 1324 531 1347 q 571 1319 568 1321 q 576 1315 574 1317 q 597 1301 586 1307 q 617 1288 607 1294 q 680 1249 651 1267 q 736 1214 708 1231 q 747 1208 742 1211 q 758 1201 753 1204 q 807 1173 782 1188 q 861 1143 832 1158 q 851 1143 858 1143 q 833 1143 844 1143 q 769 1144 808 1143 q 686 1151 729 1146 q 644 1158 665 1154 q 603 1168 622 1163 l 603 1169 z "},"":{"ha":1163,"x_min":44,"x_max":1126,"o":"m 133 865 l 131 864 q 176 880 138 868 q 260 908 215 892 q 293 921 276 914 q 325 935 310 928 q 356 953 340 943 q 385 972 371 963 q 437 1009 413 992 q 481 1028 461 1026 q 492 1029 486 1029 q 506 1029 499 1029 q 545 1028 524 1029 q 590 1024 567 1026 q 601 1022 596 1022 q 613 1021 607 1021 l 929 989 q 964 983 935 988 q 1028 969 993 979 q 1094 944 1064 960 q 1126 906 1125 929 q 1126 906 1126 906 q 1126 904 1126 906 q 1122 885 1126 894 q 1108 865 1117 875 q 1094 849 1103 857 q 1078 832 1086 840 q 1065 818 1071 825 q 1053 804 1058 811 q 1033 777 1042 789 q 1014 753 1024 765 q 1013 750 1014 751 q 1011 749 1011 749 q 992 724 1001 736 q 971 697 982 711 q 979 724 976 711 q 982 749 982 736 q 977 784 982 767 q 961 819 972 801 q 904 865 940 856 q 828 878 868 875 q 814 879 821 879 q 800 881 807 879 l 513 914 q 464 917 488 915 q 417 919 440 919 q 367 916 390 919 q 319 903 343 913 q 267 829 290 890 q 235 697 244 768 q 231 664 232 681 q 229 632 229 647 l 226 564 l 831 543 q 853 542 842 542 q 874 542 864 542 q 890 542 882 542 q 906 542 897 542 q 938 544 921 542 q 974 549 954 546 q 997 553 986 551 q 1018 557 1008 556 q 1040 563 1029 560 q 1063 569 1050 565 l 1065 558 q 1039 544 1056 553 q 1001 526 1022 535 q 966 511 985 518 q 928 499 947 504 q 922 498 925 499 q 915 496 918 497 q 758 474 840 479 q 576 467 675 468 l 268 464 q 312 406 283 439 q 376 336 340 372 q 438 282 406 308 q 506 233 471 256 q 567 197 538 214 q 628 165 597 179 q 715 133 671 144 q 807 121 758 121 q 847 123 826 121 q 890 129 868 125 q 915 136 901 132 q 940 146 928 140 q 960 156 950 151 q 981 167 971 161 q 1033 197 1011 183 q 1056 204 1056 210 q 1051 192 1056 199 q 1040 178 1047 185 q 1028 167 1035 172 q 1014 157 1021 161 q 1010 154 1013 156 q 1006 151 1008 153 l 835 46 q 805 28 819 35 q 776 17 790 21 q 721 3 749 7 q 657 -3 693 -1 q 649 -3 653 -3 q 640 -3 644 -3 q 563 5 604 -3 q 481 31 522 13 q 417 62 449 43 q 357 104 386 81 l 194 238 q 81 373 117 299 q 44 544 44 447 q 44 567 44 556 q 46 589 44 578 q 49 624 47 606 q 56 658 51 642 q 87 781 67 724 q 128 860 107 838 q 131 862 129 861 q 133 864 132 863 l 133 865 m 492 1346 l 636 1375 q 642 1374 639 1374 q 646 1375 644 1375 q 651 1376 649 1376 q 657 1378 654 1376 q 660 1378 658 1378 q 663 1378 661 1378 q 667 1378 665 1378 q 671 1376 668 1378 q 674 1376 672 1376 q 678 1375 676 1375 q 718 1350 689 1371 q 781 1306 747 1329 q 787 1301 783 1303 q 793 1297 790 1299 q 813 1283 803 1290 q 833 1269 824 1276 q 894 1231 867 1249 q 950 1197 922 1214 q 961 1190 956 1193 q 974 1183 967 1186 q 1022 1155 997 1169 q 1076 1125 1047 1140 q 1067 1125 1074 1125 q 1049 1125 1060 1125 q 985 1126 1024 1125 q 906 1133 946 1128 q 861 1140 883 1136 q 819 1150 839 1144 q 811 1153 815 1151 q 803 1156 807 1154 q 774 1165 788 1160 q 749 1175 761 1169 q 717 1188 733 1181 q 683 1204 701 1194 l 539 1281 l 426 1208 q 417 1201 421 1204 q 407 1194 413 1197 q 393 1187 400 1190 q 378 1181 386 1183 q 360 1174 368 1176 q 343 1169 351 1171 q 329 1165 336 1167 q 315 1163 322 1164 q 309 1161 313 1161 q 301 1160 306 1161 l 182 1139 q 172 1136 176 1138 q 161 1133 167 1135 q 158 1133 160 1133 q 154 1132 156 1133 q 135 1128 144 1131 q 121 1126 126 1126 q 117 1126 119 1126 q 115 1128 115 1126 q 115 1128 115 1128 q 115 1129 115 1129 q 114 1131 114 1131 q 114 1131 114 1131 q 116 1137 114 1133 q 122 1144 118 1140 q 130 1151 125 1147 q 140 1158 135 1156 q 146 1162 143 1160 q 151 1165 149 1164 l 379 1303 q 390 1307 385 1304 q 399 1313 394 1310 q 412 1319 406 1317 q 425 1325 418 1322 q 441 1331 433 1328 q 456 1336 449 1333 q 472 1341 464 1339 q 492 1344 481 1343 l 492 1346 z "},"":{"ha":1163,"x_min":44,"x_max":1126,"o":"m 133 865 l 131 864 q 176 880 138 868 q 260 908 215 892 q 293 921 276 914 q 325 935 310 928 q 356 953 340 943 q 385 972 371 963 q 437 1009 413 992 q 481 1028 461 1026 q 492 1029 486 1029 q 506 1029 499 1029 q 545 1028 524 1029 q 590 1024 567 1026 q 601 1022 596 1022 q 613 1021 607 1021 l 929 989 q 964 983 935 988 q 1028 969 993 979 q 1094 944 1064 960 q 1126 906 1125 929 q 1126 906 1126 906 q 1126 904 1126 906 q 1122 885 1126 894 q 1108 865 1117 875 q 1094 849 1103 857 q 1078 832 1086 840 q 1065 818 1071 825 q 1053 804 1058 811 q 1033 777 1042 789 q 1014 753 1024 765 q 1013 750 1014 751 q 1011 749 1011 749 q 992 724 1001 736 q 971 697 982 711 q 979 724 976 711 q 982 749 982 736 q 977 784 982 767 q 961 819 972 801 q 904 865 940 856 q 828 878 868 875 q 814 879 821 879 q 800 881 807 879 l 513 914 q 464 917 488 915 q 417 919 440 919 q 367 916 390 919 q 319 903 343 913 q 267 829 290 890 q 235 697 244 768 q 231 664 232 681 q 229 632 229 647 l 226 564 l 831 543 q 853 542 842 542 q 874 542 864 542 q 890 542 882 542 q 906 542 897 542 q 938 544 921 542 q 974 549 954 546 q 997 553 986 551 q 1018 557 1008 556 q 1040 563 1029 560 q 1063 569 1050 565 l 1065 558 q 1039 544 1056 553 q 1001 526 1022 535 q 966 511 985 518 q 928 499 947 504 q 922 498 925 499 q 915 496 918 497 q 758 474 840 479 q 576 467 675 468 l 268 464 q 312 406 283 439 q 376 336 340 372 q 438 282 406 308 q 506 233 471 256 q 567 197 538 214 q 628 165 597 179 q 715 133 671 144 q 807 121 758 121 q 847 123 826 121 q 890 129 868 125 q 915 136 901 132 q 940 146 928 140 q 960 156 950 151 q 981 167 971 161 q 1033 197 1011 183 q 1056 204 1056 210 q 1051 192 1056 199 q 1040 178 1047 185 q 1028 167 1035 172 q 1014 157 1021 161 q 1010 154 1013 156 q 1006 151 1008 153 l 835 46 q 805 28 819 35 q 776 17 790 21 q 721 3 749 7 q 657 -3 693 -1 q 649 -3 653 -3 q 640 -3 644 -3 q 563 5 604 -3 q 481 31 522 13 q 417 62 449 43 q 357 104 386 81 l 194 238 q 81 373 117 299 q 44 544 44 447 q 44 567 44 556 q 46 589 44 578 q 49 624 47 606 q 56 658 51 642 q 87 781 67 724 q 128 860 107 838 q 131 862 129 861 q 133 864 132 863 l 133 865 m 435 1392 l 435 1394 l 515 1319 q 518 1315 517 1317 q 522 1313 519 1314 q 526 1308 524 1310 q 529 1304 528 1307 q 540 1293 535 1299 q 544 1283 544 1288 q 540 1273 544 1279 q 531 1260 536 1267 q 527 1257 529 1258 q 524 1253 525 1256 q 520 1249 522 1251 q 515 1244 518 1247 l 426 1156 q 424 1152 425 1153 q 422 1150 424 1151 q 419 1147 421 1149 q 414 1144 417 1146 q 408 1140 411 1142 q 401 1138 404 1138 q 396 1139 399 1138 q 390 1143 393 1140 q 388 1146 389 1144 q 385 1149 386 1147 q 381 1152 382 1150 q 378 1156 379 1154 l 289 1249 q 285 1251 288 1249 q 281 1254 283 1253 q 278 1257 279 1256 q 274 1260 276 1258 q 264 1271 268 1265 q 260 1283 260 1276 q 260 1288 260 1286 q 261 1292 260 1290 q 269 1301 261 1293 q 289 1319 278 1310 q 292 1322 290 1321 q 294 1325 293 1324 q 303 1333 299 1329 q 311 1339 307 1336 l 372 1390 q 376 1392 374 1390 q 381 1396 378 1394 q 382 1398 381 1397 q 383 1400 383 1399 q 395 1408 389 1404 q 406 1413 401 1413 q 406 1413 406 1413 q 407 1413 406 1413 q 407 1413 407 1413 q 407 1413 407 1413 q 417 1407 411 1411 q 426 1397 422 1403 q 431 1394 429 1396 q 435 1390 433 1392 l 435 1392 m 813 1394 l 813 1397 l 893 1322 q 896 1318 894 1319 q 900 1315 897 1317 q 903 1311 901 1313 q 907 1307 906 1310 q 917 1296 913 1301 q 922 1286 922 1290 q 918 1276 922 1282 q 908 1263 914 1269 q 905 1260 907 1261 q 901 1256 903 1258 q 898 1252 900 1254 q 893 1247 896 1250 l 804 1158 q 802 1155 803 1156 q 800 1153 801 1154 q 797 1150 799 1151 q 792 1147 794 1149 q 785 1142 789 1144 q 779 1140 782 1140 q 774 1142 776 1140 q 768 1146 771 1143 q 765 1149 767 1147 q 763 1151 764 1150 q 758 1155 760 1153 q 756 1158 757 1157 l 665 1251 q 662 1253 664 1251 q 657 1257 660 1256 q 654 1260 656 1258 q 650 1263 653 1261 q 640 1274 644 1268 q 636 1286 636 1279 q 636 1291 636 1289 q 638 1294 636 1293 q 646 1304 638 1296 q 665 1322 654 1313 q 668 1325 667 1324 q 671 1328 669 1326 q 679 1335 675 1332 q 688 1342 683 1339 l 750 1393 q 753 1395 751 1393 q 758 1399 756 1397 q 760 1401 758 1400 q 761 1403 761 1401 q 773 1411 767 1407 q 783 1415 779 1415 q 783 1415 783 1415 q 785 1415 783 1415 q 785 1415 785 1415 q 785 1415 785 1415 q 794 1410 789 1414 q 804 1400 800 1406 q 809 1397 807 1399 q 813 1393 811 1394 l 813 1394 z "},"":{"ha":507,"x_min":6,"x_max":574,"o":"m 271 -6 l 271 218 l 271 929 l 38 929 l 182 1025 l 461 1025 l 461 800 l 461 89 l 271 -6 l 271 -6 m 389 1350 l 388 1354 l 519 1375 q 528 1374 524 1374 q 536 1376 532 1375 q 539 1376 538 1376 q 540 1376 540 1376 q 555 1379 549 1378 q 565 1381 561 1381 q 570 1381 568 1381 q 572 1379 572 1381 q 569 1373 574 1378 q 556 1364 564 1368 q 554 1362 556 1363 q 553 1361 553 1361 q 546 1356 549 1358 q 540 1353 543 1354 l 321 1214 q 311 1206 315 1210 q 301 1200 307 1203 q 288 1192 294 1196 q 272 1186 281 1189 q 254 1179 263 1182 q 238 1175 246 1176 q 224 1171 231 1172 q 210 1168 217 1169 q 203 1167 207 1167 q 196 1165 200 1167 l 76 1144 q 65 1141 71 1142 q 54 1139 60 1140 q 52 1138 53 1139 q 51 1138 51 1138 q 33 1134 42 1136 q 17 1132 24 1132 q 13 1132 15 1132 q 10 1133 11 1132 q 8 1142 6 1138 q 18 1153 11 1147 q 24 1157 21 1154 q 32 1163 28 1160 q 39 1167 35 1165 q 46 1171 43 1169 l 274 1308 q 284 1313 279 1310 q 293 1319 289 1317 q 305 1327 299 1324 q 318 1333 311 1331 q 334 1338 326 1336 q 349 1342 342 1340 q 360 1344 354 1343 q 371 1346 365 1344 q 379 1347 375 1346 q 389 1349 383 1347 l 389 1350 z "}}}
